<svg width="88" height="88" viewBox="0 0 88 88" fill="none" xmlns="http://www.w3.org/2000/svg">
<circle cx="51" cy="18" r="18" fill="#3CD3A5"/>
<path fill-rule="evenodd" clip-rule="evenodd" d="M54.8748 15.213C54.2927 17.9533 50.7002 16.5611 49.5349 16.2197L50.5626 11.3761C51.728 11.7175 55.481 12.3545 54.8748 15.213ZM54.2363 23.0292C53.5983 26.0418 49.2821 24.4132 47.8827 24.0048L49.0163 18.6644C50.4157 19.0748 54.903 19.8874 54.2363 23.0292ZM58.953 15.2566C59.3274 12.3145 57.4213 10.7328 54.8149 9.6777L55.6603 5.69217L53.596 5.08765L52.7728 8.96804C52.2302 8.80917 51.6728 8.65915 51.1189 8.51067L51.9479 4.60463L49.8848 4L49.0387 7.9841C48.5895 7.86392 48.1485 7.74507 47.7204 7.61993L47.7228 7.60754L44.8758 6.77218L44.3267 9.36328C44.3267 9.36328 45.8583 9.77576 45.826 9.8013C46.6621 10.0466 46.8132 10.6968 46.7879 11.2123L45.8249 15.7526C45.8824 15.7699 45.9571 15.7947 46.0394 15.8334C45.9707 15.8134 45.8971 15.7913 45.8213 15.7699L44.4714 22.1303C44.369 22.4288 44.1098 22.8765 43.5253 22.7066C43.5459 22.7417 42.0248 22.2663 42.0248 22.2663L41 25.0434L43.6864 25.8304C44.1862 25.9776 44.6759 26.1316 45.158 26.2768L44.3037 30.3078L46.3657 30.9125L47.2118 26.9242C47.7751 27.1038 48.3219 27.2697 48.8569 27.4259L48.0138 31.3955L50.0782 32L50.9325 27.9765C54.4526 28.7594 57.0996 28.4436 58.2138 24.7021C59.1117 21.6895 58.1691 19.9516 56.3171 18.8184C57.6659 18.4529 58.6819 17.4103 58.9529 15.2566H58.953Z" fill="#FBFFFE"/>
<path d="M31 30.5322C29.1008 31.6473 27.9889 32.3139 26.9113 33.4791C26.2603 34.1831 25.246 34.4741 24.3755 34.0722L19.8438 31.9796C18.4482 31.3351 16.8775 32.4406 17.0131 33.9718L17.5641 40.1914C17.6036 40.6368 17.491 41.0812 17.2575 41.4625C16.1929 43.2011 14.6297 46.1476 14.1233 48.4666C13.948 49.2688 13.4564 50.0129 12.6926 50.3144L9.41404 51.6084C8.57835 51.9382 8.06514 52.7848 8.15928 53.6783L9.68001 68.1129C9.77131 68.9795 10.4133 69.6873 11.2669 69.8625L15.7752 70.7877C16.3655 70.9089 16.8643 71.2911 17.1718 71.8094C18.3402 73.779 20.4724 76.5974 22.9279 77.8653C23.9569 78.3967 24.7918 79.473 24.5956 80.6143L23.9856 84.1608C23.7755 85.3829 24.7167 86.4998 25.9567 86.4998H33.3332C34.0981 86.4998 34.7961 86.0635 35.1311 85.3758L35.7156 84.1762C36.1255 83.335 37.0602 82.8929 37.9799 83.0652C42.1467 83.8462 49.5097 84.5817 55.9269 83.2433C57.0437 83.0104 58.1843 83.6639 58.4544 84.7723L58.5033 84.9732C58.7216 85.8692 59.5243 86.4998 60.4465 86.4998H67.9603C69.2004 86.4998 70.1416 85.3829 69.9314 84.1608L69.2031 79.9258C69.0571 79.077 69.4739 78.2386 70.1874 77.7563C73.9082 75.2413 79.6309 69.2422 79.9587 60.1619C80.3713 48.7304 77 38.9996 68.9586 33.4996" stroke="#194035" stroke-width="3" stroke-linecap="round" stroke-linejoin="round"/>
<path d="M32.6979 5.91843C29.8904 6.84752 28.8481 7.89037 27.9184 10.6979C27.785 11.1007 27.2144 11.1007 27.0816 10.6979C26.1525 7.89037 25.1096 6.84814 22.3021 5.91843C21.8993 5.785 21.8993 5.21439 22.3021 5.08157C25.1096 4.15248 26.1525 3.10963 27.0816 0.302063C27.215 -0.100688 27.7856 -0.100688 27.9184 0.302063C28.8475 3.10963 29.8904 4.15186 32.6979 5.08157C33.1007 5.215 33.1007 5.78561 32.6979 5.91843Z" fill="#3CD3A5"/>
</svg>
