<svg width="88" height="88" viewBox="0 0 88 88" fill="none" xmlns="http://www.w3.org/2000/svg">
<path d="M8 32H81V74C81 75.1046 80.1046 76 79 76H10C8.89543 76 8 75.1046 8 74V32Z" stroke="#194035" stroke-width="3" stroke-linejoin="round"/>
<path d="M8 18C8 16.8954 8.89543 16 10 16H79C80.1046 16 81 16.8954 81 18V32H8V18Z" stroke="#194035" stroke-width="3" stroke-linejoin="round"/>
<circle cx="44" cy="54" r="15" fill="#3CD3A5"/>
<path d="M38.0698 54.3488L41.907 58.186L49.9303 50.1628" stroke="#FBFFFE" stroke-width="3" stroke-linecap="round" stroke-linejoin="round"/>
<rect x="18" y="11" width="3" height="10" rx="1.5" fill="#194035"/>
<rect x="68" y="11" width="3" height="10" rx="1.5" fill="#194035"/>
<path d="M68.6979 42.9184C65.8904 43.8475 64.8481 44.8904 63.9184 47.6979C63.785 48.1007 63.2144 48.1007 63.0816 47.6979C62.1525 44.8904 61.1096 43.8481 58.3021 42.9184C57.8993 42.785 57.8993 42.2144 58.3021 42.0816C61.1096 41.1525 62.1525 40.1096 63.0816 37.3021C63.215 36.8993 63.7856 36.8993 63.9184 37.3021C64.8475 40.1096 65.8904 41.1519 68.6979 42.0816C69.1007 42.215 69.1007 42.7856 68.6979 42.9184Z" fill="#3CD3A5"/>
</svg>
