<svg width="88" height="88" viewBox="0 0 88 88" fill="none" xmlns="http://www.w3.org/2000/svg">
<path d="M70.9977 16.9464C72.5753 14.0359 74.6748 12.0563 77.6736 11.3148C80.8317 10.5328 83.6861 11.2186 86.2957 13.2509C87.0712 13.856 87.1774 14.3959 86.7557 15.3081C84.3849 20.4588 78.4373 22.6866 73.4805 20.2292C73.05 20.0151 72.6283 19.7886 71.9737 19.4472V21.281C71.9737 26.2952 71.9737 26.3093 71.9737 31.3235C71.9737 31.6337 71.9737 31.944 71.9737 32.2543C71.9708 33.1169 71.9501 34.0477 70.8237 33.9981C69.8271 33.9516 69.7946 33.0921 69.7946 32.276C69.8005 27.0043 69.7946 26.7327 69.7946 21.461C69.7946 20.9056 69.7946 20.3471 69.7946 19.7761C68.4353 20.2292 67.2174 20.7784 65.9436 21.039C61.6001 21.9202 57.2891 19.5714 55.281 15.4074C54.8298 14.4734 54.8858 13.9056 55.7144 13.2199C60.0697 9.62372 66.5628 10.4987 69.8742 15.1964C70.2222 15.6928 70.5318 16.2172 70.9977 16.9464Z" fill="#3CD3A5"/>
<rect x="9" y="58" width="19" height="22" rx="2" stroke="#194035" stroke-width="3"/>
<line x1="8" y1="66" x2="28" y2="66" stroke="#194035" stroke-width="2"/>
<line x1="8" y1="72" x2="28" y2="72" stroke="#194035" stroke-width="2"/>
<rect x="35" y="46" width="19" height="34" rx="2" stroke="#194035" stroke-width="3"/>
<line x1="34" y1="66" x2="54" y2="66" stroke="#194035" stroke-width="2"/>
<line x1="34" y1="60" x2="54" y2="60" stroke="#194035" stroke-width="2"/>
<line x1="34" y1="54" x2="54" y2="54" stroke="#194035" stroke-width="2"/>
<line x1="34" y1="72" x2="54" y2="72" stroke="#194035" stroke-width="2"/>
<rect x="61" y="33" width="19" height="47" rx="2" stroke="#194035" stroke-width="3"/>
<line x1="60" y1="66" x2="80" y2="66" stroke="#194035" stroke-width="2"/>
<line x1="60" y1="60" x2="80" y2="60" stroke="#194035" stroke-width="2"/>
<line x1="60" y1="54" x2="80" y2="54" stroke="#194035" stroke-width="2"/>
<line x1="60" y1="48" x2="80" y2="48" stroke="#194035" stroke-width="2"/>
<line x1="60" y1="42" x2="80" y2="42" stroke="#194035" stroke-width="2"/>
<line x1="60" y1="72" x2="80" y2="72" stroke="#194035" stroke-width="2"/>
<path d="M52.6979 9.91843C49.8904 10.8475 48.8481 11.8904 47.9184 14.6979C47.785 15.1007 47.2144 15.1007 47.0816 14.6979C46.1525 11.8904 45.1096 10.8481 42.3021 9.91843C41.8993 9.785 41.8993 9.21439 42.3021 9.08157C45.1096 8.15248 46.1525 7.10963 47.0816 4.30206C47.215 3.89931 47.7856 3.89931 47.9184 4.30206C48.8475 7.10963 49.8904 8.15186 52.6979 9.08157C53.1007 9.215 53.1007 9.78561 52.6979 9.91843Z" fill="#3CD3A5"/>
</svg>
