<svg xmlns="http://www.w3.org/2000/svg" width="118" height="118" viewBox="0 0 118 118">
    <g fill="#F4D9A9" fill-rule="evenodd">
        <path d="M63.733 41.82L77.31 55.398 39.126 93.581a9.6 9.6 0 0 1-13.577-13.577l38.184-38.183zM30.641 88.49a2.4 2.4 0 1 0 3.394-3.394 2.4 2.4 0 0 0-3.394 3.394z"/>
        <path d="M86.908 18.646L75.665 29.888l1.246 12.513 12.33 1.064 11.243-11.242c2.322 7.252.606 15.516-5.15 21.271-8.2 8.201-21.497 8.201-29.698 0-8.2-8.2-8.2-21.497 0-29.698 5.755-5.755 14.02-7.472 21.272-5.15zM74.121 65.374L92.79 84.04a4.8 4.8 0 0 1 0 6.788l-5.94 5.94a4.8 4.8 0 0 1-6.788 0L61.394 78.101 74.12 65.374zM27.452 27.19l7.156 3.453 1.492 5.194 13.414 13.415-4.242 4.242-13.363-13.362-5.17-1.62-3.53-7.08z"/>
    </g>
</svg>
