<svg xmlns="http://www.w3.org/2000/svg" viewBox="0 0 17.8 18"><defs><style>.cls-1{fill:#fff;}</style></defs><title>icon_btc</title><g id="レイヤー_2" data-name="レイヤー 2"><g id="レイヤー_1-2" data-name="レイヤー 1"><path class="cls-1" d="M8,9.11l-.63,2.56c.78.2,3.18,1,3.54-.47S8.77,9.31,8,9.11Z"/><path class="cls-1" d="M8.85,5.62,8.28,7.94c.65.16,2.65.83,3-.48S9.5,5.78,8.85,5.62Z"/><path class="cls-1" d="M11,.27A8.89,8.89,0,0,0,.27,6.82,9,9,0,0,0,6.74,17.73a8.89,8.89,0,0,0,10.78-6.55A9,9,0,0,0,11,.27Zm2.47,7.21h0a1.85,1.85,0,0,1-1.47,1.71A2,2,0,0,1,13.11,12C12.49,13.8,11,14,9.06,13.58l-.48,1.93-1.15-.29.47-1.9L7,13.07,6.51,15l-1.15-.29.48-1.93L5,12.55l-1.5-.38.57-1.33s.85.23.84.21a.42.42,0,0,0,.53-.28L6.75,5.54a.62.62,0,0,0-.54-.68s-.83-.21-.83-.21l.31-1.24,1.59.4h0L8,4l.47-1.91,1.15.29L9.16,4.25l.92.22.46-1.86,1.15.29-.47,1.91C12.67,5.31,13.73,6.07,13.52,7.48Z"/></g></g></svg>