<?xml version="1.0" encoding="utf-8"?>
<!-- Generator: Adobe Illustrator 23.0.3, SVG Export Plug-In . SVG Version: 6.00 Build 0)  -->
<svg version="1.1" id="_x30_0" xmlns="http://www.w3.org/2000/svg" xmlns:xlink="http://www.w3.org/1999/xlink" x="0px" y="0px"
	 viewBox="0 0 83.4 83.4" style="enable-background:new 0 0 83.4 83.4;" xml:space="preserve">
<style type="text/css">
	.st0{fill:#009EF1;}
</style>
<path id="_x30_8" class="st0" d="M41.8,23c-7.5,0-13.6,6.1-13.6,13.6l0,0l0,0c0,2.5,0.7,4.9,1.9,7l0,0c5.6,8.7,5,12.7,5,12.7h13.6
	c0,0-0.6-4,5-12.7h-0.1c1.3-2.1,1.9-4.5,1.9-7c0-7.5-6-13.6-13.5-13.6H41.8z"/>
<path class="st0" d="M45.8,65.2h-7.7c-1.7,0-3-1.3-3-3v-3.9h13.7v3.9C48.8,63.9,47.5,65.2,45.8,65.2z"/>
<g>
	<polygon class="st0" points="61.3,23.9 57.5,18 61.3,12.1 65,18 	"/>
</g>
<g>
	<polygon class="st0" points="67.4,28.9 65,25.1 67.4,21.4 69.8,25.1 	"/>
</g>
<g>
	<polygon class="st0" points="15.3,57.7 11.5,51.8 15.3,45.9 19,51.8 	"/>
</g>
<g>
	<polygon class="st0" points="21.4,62.7 19,58.9 21.4,55.2 23.8,58.9 	"/>
</g>
</svg>
