<?xml version="1.0" encoding="utf-8"?>
<!-- Generator: Adobe Illustrator 23.0.3, SVG Export Plug-In . SVG Version: 6.00 Build 0)  -->
<svg version="1.1" id="_x30_1" xmlns="http://www.w3.org/2000/svg" xmlns:xlink="http://www.w3.org/1999/xlink" x="0px" y="0px"
	 viewBox="0 0 80 80" style="enable-background:new 0 0 80 80;" xml:space="preserve">
<style type="text/css">
	.st0{fill:#009EF1;}
	.st1{fill:#FFFFFF;}
	.st2{fill:none;stroke:#FFFFFF;stroke-width:2;stroke-linecap:round;stroke-linejoin:round;stroke-miterlimit:10;}
</style>
<g>
	<path class="st0" d="M61.3,45.3c-2.9,11.8-14.9,19-26.7,16c-11.8-2.9-19-14.9-16-26.7c2.9-11.8,14.9-19,26.7-16
		S64.3,33.5,61.3,45.3L61.3,45.3z"/>
	<path class="st1" d="M49.7,36.9c0.4-2.9-1.8-4.5-4.8-5.6l1-4l-2.4-0.6l-1,3.9c-0.6-0.2-1.3-0.3-1.9-0.5l1-3.9l-2.4-0.6l-1,4
		c-0.5-0.1-1-0.2-1.5-0.4l0,0l-3.3-0.8L32.6,31l1.8,0.4c1,0.2,1.2,0.9,1.1,1.4l-1.1,4.5c0.1,0,0.2,0,0.3,0.1c-0.1,0-0.2,0-0.3-0.1
		l-1.6,6.3c-0.1,0.3-0.4,0.7-1.1,0.6l-1.8-0.4l-1.2,2.8l3.1,0.8c0.6,0.1,1.2,0.3,1.7,0.4l-1,4l2.4,0.6l1-4c0.7,0.2,1.3,0.3,1.9,0.5
		l-1,3.9l2.4,0.6l1-4c4.1,0.8,7.2,0.5,8.5-3.3c1-3-0.1-4.7-2.2-5.9C48.2,40,49.4,39,49.7,36.9L49.7,36.9z M44.2,44.6
		c-0.7,3-5.8,1.4-7.4,1l1.3-5.3C39.7,40.7,45,41.5,44.2,44.6L44.2,44.6z M44.9,36.8c-0.7,2.7-4.9,1.3-6.2,1l1.2-4.8
		C41.3,33.3,45.6,34,44.9,36.8z"/>
</g>
<g>
	<path class="st0" d="M59.2,32.7c-6,0-10.9-4.9-10.9-10.9s4.9-10.9,10.9-10.9s10.9,4.9,10.9,10.9S65.3,32.7,59.2,32.7z"/>
	<path class="st1" d="M59.2,11.9c5.5,0,9.9,4.4,9.9,9.9s-4.4,9.9-9.9,9.9s-9.9-4.4-9.9-9.9S53.8,11.9,59.2,11.9 M59.2,9.9
		c-6.6,0-11.9,5.3-11.9,11.9s5.3,11.9,11.9,11.9s11.9-5.3,11.9-11.9S65.8,9.9,59.2,9.9L59.2,9.9z"/>
</g>
<line class="st2" x1="59.2" y1="26.3" x2="59.2" y2="18.9"/>
<polyline class="st2" points="55.2,21.7 59.2,17.6 63.2,21.7 "/>
</svg>
