<svg xmlns="http://www.w3.org/2000/svg" width="120" height="120" viewBox="0 0 120 120">
    <g fill="none" fill-rule="evenodd">
        <path fill="#F4D9A9" d="M26.741 60.119c3.092-10.464 1.933-18.603 1.933-18.603s9.662 5.038 10.049 10.852c-.58-18.41 4.831-28.873 16.62-38.368 4.444 14.533 17.006 8.914 22.803 30.229 1.546-6.2 4.252-14.727 4.252-14.727 4.251 6.2 16.233 32.167 11.981 53.482-2.77 13.89-16.577 23.23-34.37 23.012-43.703-.534-36.36-35.413-33.268-45.877"/>
        <path stroke="#FFFDF1" stroke-linecap="round" stroke-linejoin="round" stroke-width="3" d="M50.107 94.784c-6.841-3.033-10.545-15.775-5.467-26.548 1.562 5.002 5.467 5.002 5.467 5.002S51.67 57.463 56.357 54c3.71 11.35 11.716 5.002 15.23 21.93 1.954-3.847 3.125-6.155 3.125-8.848 5.078 5.001 4.296 19.622.39 24.624-4.885 6.257-17.184 6.54-24.995 3.078"/>
    </g>
</svg>
