<?xml version="1.0" encoding="utf-8"?>
<!-- Generator: Adobe Illustrator 23.0.4, SVG Export Plug-In . SVG Version: 6.00 Build 0)  -->
<svg version="1.1" id="レイヤー_1" xmlns="http://www.w3.org/2000/svg" xmlns:xlink="http://www.w3.org/1999/xlink" x="0px"
	 y="0px" viewBox="0 0 120 120" style="enable-background:new 0 0 120 120;" xml:space="preserve">
<style type="text/css">
	.st0{fill:#12575F;}
	.st1{fill:none;stroke:#12575F;stroke-width:4;}
	.st2{fill:none;stroke:#12575F;stroke-width:1.319;stroke-linecap:round;stroke-linejoin:round;}
	.st3{font-family:'HelveticaNeue-Bold';}
	.st4{font-size:28.5px;}
</style>
<g>
	<g transform="translate(32 27)">
		<path class="st0" d="M11.3,1.4l0.1,0.1l7.1,7.1c0.8,0.8,0.8,2,0,2.8c-0.7,0.7-1.9,0.8-2.7,0.1l-0.1-0.1L12,7.8l0,8.3
			c-1.5,1.2-2.8,2.5-4,4L8,7.8l-3.7,3.7c-0.7,0.7-1.9,0.8-2.7,0.1l-0.1-0.1c-0.7-0.7-0.8-1.9-0.1-2.7l0.1-0.1l7.1-7.1
			C9.3,0.8,10.5,0.7,11.3,1.4z"/>
		<g transform="translate(10 18.113)">
			<circle class="st1" cx="19" cy="19" r="21"/>
			<path class="st2" d="M34.8,19c0-8.7-7.1-15.8-15.8-15.8 M3.2,19c0,8.7,7.1,15.8,15.8,15.8l0,0"/>
			<text transform="matrix(1 0 0 1 11.0791 29.5828)" class="st0 st3 st4">P</text>
		</g>
	</g>
</g>
</svg>
