<svg xmlns="http://www.w3.org/2000/svg" viewBox="0 0 17.73 17.71"><defs><style>.cls-1{fill:#fff;}</style></defs><title>icon_cc</title><g id="レイヤー_2" data-name="レイヤー 2"><g id="レイヤー_1-2" data-name="レイヤー 1"><path class="cls-1" d="M9.43.37A.59.59,0,0,1,9.53,0l8.2,8.2a.38.38,0,0,1-.21.1h-3a2.49,2.49,0,0,1-1.34-.62L10,4.52A2.45,2.45,0,0,1,9.42,3Zm5.25,9.07a2.44,2.44,0,0,0-1.5.62L10,13.21a2.44,2.44,0,0,0-.63,1.5v2.71a.56.56,0,0,0,.08.29l8.19-8.19a.68.68,0,0,0-.33-.07ZM3,8.28a2.44,2.44,0,0,0,1.5-.62L7.66,4.51A2.45,2.45,0,0,0,8.28,3V.37A.59.59,0,0,0,8.19,0L0,8.19a.64.64,0,0,0,.35.08Zm5.26,6.43a2.44,2.44,0,0,0-.62-1.5L4.48,10A2.45,2.45,0,0,0,3,9.42H.34A.68.68,0,0,0,0,9.48l8.17,8.17a.74.74,0,0,0,.05-.3Zm4.11-6.21L9.21,5.34a.52.52,0,0,0-.74,0L5.31,8.49a.52.52,0,0,0,0,.74l3.15,3.17a.52.52,0,0,0,.74,0l3.17-3.15A.52.52,0,0,0,12.36,8.51Z"/></g></g></svg>