<?xml version="1.0" encoding="utf-8"?>
<!-- Generator: Adobe Illustrator 23.0.4, SVG Export Plug-In . SVG Version: 6.00 Build 0)  -->
<svg version="1.1" id="レイヤー_1" xmlns="http://www.w3.org/2000/svg" xmlns:xlink="http://www.w3.org/1999/xlink" x="0px"
	 y="0px" viewBox="0 0 200 200" style="enable-background:new 0 0 200 200;" xml:space="preserve">
<style type="text/css">
	.st0{fill-rule:evenodd;clip-rule:evenodd;fill:#0051A3;}
</style>
<g>
	<g transform="translate(14 57)">
		<path class="st0" d="M36.3,44.2l-5.7-10.3c-0.2-0.3-0.5-0.5-0.8-0.5h-1.9c-0.3,0-0.7,0.2-0.8,0.5l-5.8,10.6c0,0.1-0.1,0.2-0.1,0.2
			c0,0.1,0,0.2,0.1,0.3c0.1,0.1,0.2,0.1,0.3,0.1h1.8c0.3,0,0.7-0.2,0.8-0.5l4.6-8.3c0-0.1,0.1-0.1,0.1-0.1s0,0,0.1,0.1l4.5,8.3
			c0.2,0.3,0.5,0.5,0.8,0.5h1.8c0.1,0,0.2,0,0.3,0h0.1c0,0,0.1-0.1,0.1-0.2v-0.1C36.5,44.7,36.4,44.5,36.3,44.2 M80.9,41.8
			c-0.9,0.7-2,1-3.5,1s-2.6-0.4-3.5-1c-0.9-0.7-1.3-1.5-1.3-2.6s0.4-1.9,1.3-2.6c0.9-0.7,2-1.1,3.5-1.1c1.4,0,2.6,0.4,3.5,1.1
			c0.9,0.7,1.3,1.5,1.3,2.6S81.8,41.2,80.9,41.8 M82.6,34.6L82.6,34.6c-1.4-1-3.1-1.6-5.1-1.6s-3.7,0.5-5.1,1.6
			c-1.6,1.2-2.5,2.7-2.5,4.6l0,0l0,0c0,1.9,0.8,3.5,2.4,4.7c1.4,1,3.1,1.5,5.1,1.5l0,0l0,0c2,0,3.7-0.5,5.1-1.5
			c1.6-1.2,2.4-2.8,2.4-4.7l0,0l0,0l0,0C85,37.3,84.2,35.8,82.6,34.6 M124.2,43.2c0-0.3-0.3-0.6-0.6-0.6h-7.7
			c-0.2,0-0.3-0.1-0.3-0.3v-8.2c0-0.3-0.3-0.6-0.6-0.6h-1.5c-0.3,0-0.6,0.3-0.6,0.6v10.4c0,0.3,0.3,0.6,0.6,0.6h10.1
			c0.7,0,0.6-0.6,0.6-0.6V43.2z M137.3,44.4v-1.3c0-0.3-0.3-0.6-0.6-0.6H129c-0.2,0-0.3-0.1-0.3-0.3V34c0-0.3-0.3-0.6-0.6-0.6h-1.5
			c-0.3,0-0.6,0.3-0.6,0.6v10.4c0,0.3,0.3,0.6,0.6,0.6h10.1C137.3,45.1,137.3,44.4,137.3,44.4 M41.5,36.6c0.9-0.7,2.1-1,3.6-1
			c1.7,0,3.1,0.5,4.2,1.6l0,0c0,0,0.1,0.1,0.3,0.2h0.1l1.9-0.6c0.1-0.1,0.2-0.2,0.2-0.3c0-0.2-0.1-0.3-0.1-0.3c-1.7-2-4-3-6.8-3l0,0
			l0,0c-2,0-3.7,0.5-5.1,1.5c-1.6,1.2-2.4,2.7-2.4,4.6l0,0l0,0c0,1.8,0.7,3.3,2.2,4.4c1.4,1.2,3.3,1.7,5.6,1.7l0,0l0,0
			c2.7,0,5-1,6.6-2.8c0-0.1,0.1-0.1,0.1-0.2c0-0.2-0.2-0.3-0.2-0.3l0,0l-1.8-0.9c-0.1,0-0.1,0-0.2,0c-0.2,0-0.3,0.1-0.3,0.1
			c-1.1,1.1-2.5,1.7-4.3,1.7c-1.6,0-2.8-0.3-3.6-1c-0.9-0.7-1.3-1.5-1.3-2.6C40.3,38.1,40.7,37.3,41.5,36.6 M67.7,44.2l-1.1-1.5
			l-1.4-1.9c1.7-0.5,2.6-1.8,2.6-3.6l0,0l0,0c0-1.1-0.4-2.1-1.1-2.8c-0.8-0.7-1.8-1-3-1l0,0h-8.6c-0.3,0-0.6,0.3-0.6,0.6v10.4
			c0,0.3,0.3,0.6,0.6,0.6h1.5c0.3,0,0.6-0.3,0.6-0.6v-8.2c0-0.2,0.1-0.3,0.3-0.3H58h5.3c0.7,0,1.1,0.1,1.4,0.3s0.4,0.5,0.4,1
			c0,0.4-0.1,0.7-0.4,0.9c-0.3,0.2-0.7,0.3-1.3,0.3l-2.8,0.1l4.3,6.1c0.2,0.3,0.5,0.4,0.8,0.4h1.9c0.1,0,0.2,0,0.3,0H68
			c0,0,0.1-0.1,0.1-0.2v-0.1C68,44.7,67.9,44.5,67.7,44.2"/>
		<g transform="translate(0 .71)">
			<path class="st0" d="M18.7,30.7h-2c-0.3,0-0.7,0.2-0.9,0.4l-5.6,7.1c0,0.1-0.1,0.1-0.1,0.1c-0.1,0-0.1,0-0.2-0.1l-5.6-7.1
				c-0.2-0.2-0.6-0.4-0.9-0.4h-2c-0.3,0-0.6,0.3-0.6,0.6v12.4c0,0.3,0.3,0.6,0.6,0.6h1.5c0.3,0,0.6-0.3,0.6-0.6v-9.5L8,39.9
				c0.2,0.2,0.5,0.4,0.9,0.4h1.2h1.2c0.3,0,0.7-0.2,0.9-0.4l4.5-5.7v9.6c0,0.3,0.3,0.6,0.6,0.6h1.5c0.3,0,0.6-0.3,0.6-0.6V31.3
				C19.3,31,19,30.7,18.7,30.7"/>
		</g>
		<path class="st0" d="M103.1,33.4h-2.5c-0.3,0-0.7,0.2-0.9,0.4l-3.9,5.5c0,0.1-0.1,0.1-0.1,0.1s-0.1,0-0.1-0.1l-3.9-5.4
			c-0.2-0.3-0.5-0.4-0.9-0.4h-2.5c-0.3,0-0.6,0.3-0.6,0.6v10.4c0,0.3,0.3,0.6,0.6,0.6h1.5c0.3,0,0.6-0.3,0.6-0.6v-8.1l3.4,4.7
			c0.2,0.3,0.5,0.4,0.9,0.4h1h1c0.3,0,0.7-0.2,0.9-0.4l3.4-4.7v8.1c0,0.3,0.3,0.6,0.6,0.6h1.5c0.3,0,0.6-0.3,0.6-0.6V34
			C103.7,33.7,103.4,33.4,103.1,33.4 M109.1,33.4h-1.5c-0.3,0-0.6,0.3-0.6,0.6v10.4c0,0.3,0.3,0.6,0.6,0.6h1.5
			c0.3,0,0.6-0.3,0.6-0.6V34C109.7,33.7,109.4,33.4,109.1,33.4"/>
		<g transform="translate(146.104 .29)">
			<path class="st0" d="M14.1,32.8c0,0.4,0.3,0.7,0.7,0.7h4.3c0.4,0,0.5,0.2,0.2,0.5l-5.9,5.9c-0.3,0.3-0.7,0.3-1,0L6.6,34
				c-0.3-0.3-0.2-0.5,0.2-0.5h4.3c0.4,0,0.7-0.3,0.7-0.7v-1.3c0-0.4-0.3-0.7-0.7-0.7H1.8c-0.4,0-0.7,0.3-0.7,0.7v9.4
				c0,0.4,0.3,0.7,0.7,0.7h1.3c0.4,0,0.7-0.3,0.7-0.7v-4.3c0-0.4,0.2-0.5,0.5-0.2l4.8,4.8c0.3,0.3,0.8,0.5,1.2,0.5h2.1h1.4h2
				c0.4,0,0.9-0.2,1.2-0.5l4.8-4.8c0.3-0.3,0.5-0.2,0.5,0.2V41c0,0.4,0.3,0.7,0.7,0.7h1.3c0.4,0,0.7-0.3,0.7-0.7v-9.5
				c0-0.4-0.3-0.7-0.7-0.7h-9.5c-0.4,0-0.7,0.3-0.7,0.7V32.8z"/>
		</g>
		<g transform="translate(146.104 13.306)">
			<path class="st0" d="M22.2,35.9c0,0.4-0.2,0.5-0.5,0.2L17,31.4c-0.3-0.3-0.8-0.5-1.2-0.5h-2.1h-1.4h-2.1c-0.4,0-1,0.2-1.2,0.4
				l-4.8,4.8c-0.2,0.3-0.4,0.2-0.4-0.2v-4.4c0-0.4-0.3-0.7-0.7-0.7H1.8c-0.4,0-0.7,0.3-0.7,0.7v9.4c0,0.4,0.3,0.7,0.7,0.7h9.4
				c0.4,0,0.7-0.3,0.7-0.7v-1.3c0-0.4-0.3-0.7-0.7-0.7H6.8c-0.4,0-0.5-0.2-0.2-0.4l5.9-5.9c0.3-0.3,0.7-0.3,1,0l5.9,5.9
				c0.3,0.3,0.2,0.5-0.2,0.5h-4.4c-0.4,0-0.7,0.3-0.7,0.7V41c0,0.4,0.3,0.7,0.7,0.7h9.4c0.4,0,0.7-0.3,0.7-0.7v-9.5
				c0-0.4-0.3-0.7-0.7-0.7h-1.3c-0.4,0-0.7,0.3-0.7,0.7V35.9z"/>
		</g>
	</g>
</g>
</svg>
