<?xml version="1.0" encoding="utf-8"?>
<!-- Generator: Adobe Illustrator 23.0.4, SVG Export Plug-In . SVG Version: 6.00 Build 0)  -->
<svg version="1.1" id="レイヤー_1" xmlns="http://www.w3.org/2000/svg" xmlns:xlink="http://www.w3.org/1999/xlink" x="0px"
	 y="0px" viewBox="0 0 120 120" style="enable-background:new 0 0 120 120;" xml:space="preserve">
<style type="text/css">
	.st0{fill:#12575F;}
</style>
<g>
	<g transform="translate(36 37)">
		<path class="st0" d="M40.6,25.3h-4c-1.3,0-2.3,1-2.3,2.3c0,1.3,1,2.3,2.3,2.3h4c0.9,0,1.7,1.1,1.7,2.3v11.5c0,1.3,1,2.3,2.3,2.3
			c1.3,0,2.3-1,2.3-2.3V32.2C47.1,28.5,44.3,25.5,40.6,25.3z M15.2,23c6.4,0,11.7-5.1,11.7-11.5S21.6,0,15.2,0S3.5,5.1,3.5,11.5
			C3.5,17.8,8.7,23,15.2,23z M15.2,4.6c3.9,0,7,3.1,7,6.9s-3.1,6.9-7,6.9s-7-3.1-7-6.9C8.2,7.7,11.3,4.6,15.2,4.6z M23.3,25.3H7
			c-3.9,0-7,3.1-7,6.9v11.5C0,44.9,1,46,2.3,46s2.3-1,2.3-2.3V32.2c0-1.3,1-2.3,2.3-2.3h16.3c1.3,0,2.3,1,2.3,2.3v11.5
			c0,1.3,1,2.3,2.3,2.3c1.3,0,2.3-1,2.3-2.3V32.2C30.3,28.4,27.2,25.3,23.3,25.3z M43.5,11.5C43.5,5.1,38.2,0,31.8,0
			c-1.3,0-2.3,1-2.3,2.3s1,2.3,2.3,2.3c3.9,0,7,3.1,7,6.9s-3.1,6.9-7,6.9c-1.3,0-2.3,1-2.3,2.3s1,2.3,2.3,2.3
			C38.2,23,43.5,17.8,43.5,11.5L43.5,11.5z"/>
	</g>
</g>
</svg>
