<?xml version="1.0" encoding="utf-8"?>
<!-- Generator: Adobe Illustrator 23.0.4, SVG Export Plug-In . SVG Version: 6.00 Build 0)  -->
<svg version="1.1" id="レイヤー_1" xmlns="http://www.w3.org/2000/svg" xmlns:xlink="http://www.w3.org/1999/xlink" x="0px"
	 y="0px" viewBox="0 0 120 120" style="enable-background:new 0 0 120 120;" xml:space="preserve">
<style type="text/css">
	.st0{fill:none;}
	.st1{fill:none;stroke:#12575F;stroke-width:4;}
	.st2{fill:none;stroke:#12575F;stroke-width:1.491;stroke-linecap:round;stroke-linejoin:round;}
	.st3{fill:#12575F;}
	.st4{font-family:'HelveticaNeue-Bold';}
	.st5{font-size:32.199px;}
	.st6{fill:none;stroke:#12575F;stroke-width:4;stroke-linecap:round;stroke-linejoin:round;}
</style>
<g>
	<circle class="st0" cx="60" cy="60" r="60"/>
	<g transform="translate(10 25)">
		<g transform="translate(61 26.711)">
			<circle class="st1" cx="20.5" cy="21.5" r="23.5"/>
			<path class="st2" d="M38.4,21.5c0-9.9-8-17.9-17.9-17.9 M2.6,21.5c0,9.9,8,17.9,17.9,17.9l0,0"/>
			<path class="st3" d="M30,16.8c-0.4-3.1-3-4.1-6.3-4.4l-0.1-4.3l-2.5,0l0.1,4.2c-0.7,0-1.4,0-2,0l-0.1-4.2l-2.5,0l0.1,4.3
				c-0.5,0-5.1,0.1-5.1,0.1l0.1,2.8c0,0,1.9-0.1,1.8,0c0.7-0.1,1.4,0.4,1.5,1.1l0.3,11.7c0,0.2-0.1,0.5-0.3,0.6
				c-0.2,0.2-0.4,0.2-0.6,0.2c0,0-1.8,0-1.8,0L12,32.3l3.3,0c0.6,0,1.2,0,1.8,0l0.1,4.3l2.5,0l-0.1-4.3c0.7,0,1.4,0,2,0l0.1,4.3
				l2.5,0l-0.1-4.3c4.3-0.3,7.2-1.4,7.5-5.6c0.2-3.3-1.3-4.8-3.8-5.4C29.6,20.4,30.4,18.6,30,16.8z M26.7,26.1
				c0.1,3.2-5.3,2.9-7.1,2.9l-0.1-5.7C21.2,23.3,26.6,22.8,26.7,26.1z M25.3,18c0.1,2.9-4.4,2.6-5.9,2.7l-0.1-5.2
				C20.8,15.5,25.3,15,25.3,18L25.3,18z"/>
		</g>
		<g transform="translate(.876 26.711)">
			<circle class="st1" cx="20.5" cy="21.5" r="23.5"/>
			<path class="st2" d="M38.4,21.5c0-9.9-8-17.9-17.9-17.9 M2.6,21.5c0,9.9,8,17.9,17.9,17.9l0,0"/>
			<text transform="matrix(1 0 0 1 11.5161 32.789)" class="st3 st4 st5">P</text>
		</g>
		<path class="st6" d="M62.2,13c-7-7-18.3-7-25.3,0"/>
		<polyline class="st6" points="61.1,4.7 62.7,13.6 53.8,15.1 		"/>
	</g>
</g>
</svg>
