<svg xmlns="http://www.w3.org/2000/svg" width="120" height="120" viewBox="0 0 120 120">
    <path fill="#F4D9A9" fill-rule="nonzero" d="M49.235 51l-9.66 28.77h9.24v5.6h-11.13v4.2h11.13v5.6h-11.13V100h-9.94v-4.83h-11.13v-5.6h11.13v-4.2h-11.13v-5.6h9.24L16.195 51h10.29l3.99 13.58c.49 1.61 1.61 5.46 2.1 7.84h.28c.56-2.38 1.68-6.23 2.24-8.05L38.945 51h10.29zm26.73 50.1c-13.86 0-22.11-8.58-22.11-23.21V45.33c0-14.74 8.25-23.43 22.11-23.43 13.97 0 22.22 8.69 22.22 23.43v32.56c0 14.63-8.25 23.21-22.22 23.21zm0-13.75c5.06 0 7.7-3.19 7.7-9.35V45.44c0-6.27-2.64-9.57-7.7-9.57-5.06 0-7.59 3.3-7.59 9.57V78c0 6.16 2.53 9.35 7.59 9.35z"/>
</svg>
