<?xml version="1.0" encoding="utf-8"?>
<!-- Generator: Adobe Illustrator 23.0.3, SVG Export Plug-In . SVG Version: 6.00 Build 0)  -->
<svg version="1.1" id="レイヤー_1" xmlns="http://www.w3.org/2000/svg" xmlns:xlink="http://www.w3.org/1999/xlink" x="0px"
	 y="0px" viewBox="0 0 340 340" style="enable-background:new 0 0 340 340;" xml:space="preserve">
<style type="text/css">
	.st0{fill:#97A5AD;}
	.st1{opacity:0.23;fill:#009EF1;enable-background:new    ;}
	.st2{fill:#FFFF03;stroke:#009EF1;stroke-width:2;stroke-miterlimit:10;}
	.st3{fill:#FFFF03;}
	.st4{fill:none;stroke:#009EF1;stroke-width:2;stroke-linecap:round;stroke-linejoin:round;}
	.st5{fill:none;stroke:#009EF1;stroke-width:2;stroke-linecap:round;stroke-linejoin:round;stroke-dasharray:6.1967,6.1967;}
	.st6{fill:#009EF1;}
	.st7{fill:#FFFFFF;}
	.st8{fill:#143B4E;}
</style>
<g>
	<g id="レイヤー_1-2">
		<rect id="長方形_48" x="42.8" y="29.7" class="st0" width="73.4" height="255.1"/>
		<g id="グループ化_53">
			<rect id="長方形_53" x="223.8" y="90.8" class="st1" width="73.4" height="194.2"/>
			<rect id="長方形_58" x="223.8" y="29.8" class="st2" width="73.4" height="61"/>
			<g>
				<line class="st3" x1="116.2" y1="29.7" x2="223.8" y2="90.8"/>
				<g>
					<line class="st4" x1="116.2" y1="29.7" x2="118.8" y2="31.2"/>
					<line class="st5" x1="124.2" y1="34.2" x2="218.5" y2="87.8"/>
					<line class="st4" x1="221.2" y1="89.3" x2="223.8" y2="90.8"/>
				</g>
			</g>
		</g>
		<path id="パス_118" class="st6" d="M266.1,51.2l1-4.2l-2.5-0.6l-1,4.1c-0.7-0.2-1.4-0.3-2-0.5l1-4.2l-2.6-0.6l-1,4.2l-1.6-0.4
			l0,0l-3.6-0.9l-0.7,2.8c0,0,1.9,0.4,1.9,0.5c0.7,0.1,1.3,0.8,1.2,1.5l-2.9,11.6c-0.1,0.5-0.7,0.8-1.1,0.6l0,0l0,0l-1.9-0.5l-1.3,3
			l3.3,0.9l1.8,0.5l-1.1,4.3l2.5,0.6l1-4.2c0.7,0.2,1.4,0.4,2,0.5l-1,4.2L260,75l1.1-4.3c4.4,0.8,7.6,0.5,9-3.5
			c1.1-3.2-0.1-5.1-2.3-6.3c1.7-0.4,2.9-1.5,3.3-3.8l0,0C271.7,54,269.4,52.3,266.1,51.2z M265.4,65.4c-0.8,3.2-6.1,1.5-7.9,1
			l1.4-5.7C260.7,61.2,266.2,62.1,265.4,65.4z M266.2,57.1c-0.7,2.9-5.2,1.4-6.6,1.1l1.3-5.2C262.3,53.4,267,54.1,266.2,57.1z"/>
	</g>
</g>
<g>
	<path class="st7" d="M192.5,139.1c-0.8,17.4,25.1,27.9,68,27.6c42.9,0.3,68.8-10.2,68-27.6c0.7-16.5-22.6-26.8-61.7-27.5l-5.1-11.7
		l-4.6,11.7C216.3,111.8,191.7,122.2,192.5,139.1z"/>
	<path class="st6" d="M261.7,98.4c0.6,0,1.1,0.4,1.4,0.9l4.7,10.8c27.8,0.6,48.1,6.2,57,15.7c3.6,3.9,5.4,8.3,5.2,13.3
		c0.2,5-1.6,9.6-5.4,13.5c-9.9,10.3-32.7,15.8-64.1,15.6c-31.4,0.2-54.2-5.3-64.1-15.6c-3.8-3.9-5.6-8.5-5.4-13.5
		c-0.2-5,1.6-9.5,5.3-13.4c9.3-9.8,30.5-15.4,59.8-15.7l4.3-10.7C260.5,98.7,261.1,98.4,261.7,98.4
		C261.7,98.4,261.7,98.4,261.7,98.4z M262.3,165.1c29.3,0,51.2-5.3,60.2-14.6c3.2-3.3,4.8-7.2,4.6-11.3c0,0,0-0.1,0-0.1
		c0.2-4.1-1.3-7.9-4.4-11.1c-8.5-9-28.3-14.3-55.8-14.8c-0.6,0-1.1-0.4-1.3-0.9l-3.7-8.4l-3.3,8.3c-0.2,0.6-0.8,0.9-1.4,0.9
		c-39,0.2-53.5,9.3-58.6,14.7c-3.2,3.3-4.7,7.1-4.5,11.2c0,0,0,0.1,0,0.1c-0.2,4.2,1.4,8,4.6,11.3c9.2,9.5,31.8,14.9,61.9,14.6
		C261.1,165.1,261.7,165.1,262.3,165.1z"/>
</g>
<title>illust_plan01</title>
<g>
	<path class="st6" d="M197.8,303.9c-0.3-1.9-1.4-3-2.9-3c-2.1,0-3.5,1.8-3.5,5.4c0,3.5,1.5,5.4,3.5,5.4c1.7,0,2.7-1,3.1-3l2.3,0.7
		c-0.7,2.9-2.5,4.2-5.4,4.2c-3.6,0-6.1-2.6-6.1-7.2s2.5-7.3,6.1-7.3c2.9,0,4.7,1.6,5.3,4.2L197.8,303.9z"/>
	<path class="st6" d="M211,308.4c0,3.2-1.8,5.2-4.5,5.2s-4.5-1.9-4.5-5.1s1.8-5.2,4.5-5.2C209.2,303.2,211,305.2,211,308.4z
		 M204.4,308.4c0,2.3,0.7,3.5,2.1,3.5c1.5,0,2.2-1.2,2.2-3.5s-0.7-3.5-2.1-3.5C205.1,304.9,204.4,306.1,204.4,308.4z"/>
	<path class="st6" d="M216,301.7h-2.4v-2.3h2.4V301.7z M215.9,313.3h-2.3v-9.9h2.3V313.3z"/>
	<path class="st6" d="M221.4,305.2c0.8-1.2,2-1.9,3.2-1.9c1.6,0,2.8,1.1,2.8,3v7.1h-2.3v-6.5c0-1.1-0.5-1.7-1.4-1.7
		c-0.8,0-1.7,0.6-2.3,1.7v6.5h-2.3v-9.9h2.2v1.7L221.4,305.2L221.4,305.2z"/>
	<path class="st6" d="M236.3,306.9c-0.2-1.4-0.8-2-1.7-2c-1.5,0-2.2,1.2-2.2,3.5s0.8,3.5,2.2,3.5c1.1,0,1.7-0.7,1.9-2.1l2.1,0.6
		c-0.5,2.1-1.9,3.2-4.1,3.2c-2.8,0-4.5-1.9-4.5-5.1s1.7-5.2,4.5-5.2c2.1,0,3.6,1.1,4,3.2L236.3,306.9z"/>
	<path class="st6" d="M243.2,305.1c0.8-1.1,1.9-1.9,3.2-1.9c1.6,0,2.8,1.1,2.8,3v7.1h-2.3v-6.5c0-1.2-0.5-1.7-1.4-1.7
		c-0.8,0-1.7,0.7-2.3,1.7v6.4h-2.3V299h2.3V305.1z"/>
	<path class="st6" d="M254.1,308.9c0,1.9,0.8,3.1,2.5,3.1c1,0,1.7-0.6,2.1-1.9l2.1,0.6c-0.6,1.9-2,2.9-4.2,2.9c-3,0-4.7-1.9-4.7-5.1
		s1.8-5.2,4.5-5.2c2.5,0,4.4,1.8,4.4,5.2v0.5h-6.7L254.1,308.9L254.1,308.9z M258.5,307.4c-0.1-1.7-0.8-2.6-2.2-2.6
		c-1.4,0-2.2,1-2.3,2.6H258.5z"/>
	<path class="st6" d="M269.1,306.9c-0.2-1.4-0.8-2-1.7-2c-1.5,0-2.2,1.2-2.2,3.5s0.8,3.5,2.2,3.5c1.1,0,1.7-0.7,1.9-2.1l2.1,0.6
		c-0.5,2.1-1.9,3.2-4.1,3.2c-2.8,0-4.5-1.9-4.5-5.1s1.7-5.2,4.5-5.2c2.1,0,3.6,1.1,4,3.2L269.1,306.9z"/>
	<path class="st6" d="M278.7,307.1l3.5,6.2h-2.5l-2.4-4.7l-1.3,1.5v3.2h-2.2v-14.2h2.2v8.7l3.6-4.3h2.5L278.7,307.1z"/>
	<path class="st6" d="M292.3,302.5c-2.2,0.4-4.1,0.8-6,1.2c-0.7,0.2-0.9,0.2-1.1,0.3c-0.1,0.1-0.3,0.1-0.4,0.1s-0.3-0.1-0.3-0.3
		c-0.2-0.5-0.4-1.1-0.7-1.9c0.9,0,1.5-0.1,2.9-0.3c2.2-0.3,6.2-0.9,10.8-1.5c0.3,0,0.4,0.1,0.4,0.2c0.1,0.4,0.2,1.1,0.2,1.6
		c0,0.2-0.1,0.3-0.3,0.3c-0.8,0.1-1.4,0.1-2.2,0.4c-3.1,1-4.6,3.2-4.6,5.3c0,2.3,1.7,3.6,4.8,3.8c0.3,0,0.4,0.1,0.4,0.3
		c0,0.5-0.1,1.1-0.2,1.5c-0.1,0.3-0.1,0.4-0.3,0.4c-3.2,0-6.6-1.8-6.6-5.6C288.9,305.7,290.1,303.9,292.3,302.5L292.3,302.5z
		 M295.9,304.4c0.1-0.1,0.2-0.1,0.3,0c0.6,0.4,1.2,1.2,1.7,1.9c0.1,0.1,0.1,0.2-0.1,0.3l-0.8,0.6c-0.1,0.1-0.2,0.1-0.3-0.1
		c-0.5-0.8-1.1-1.5-1.8-2.1L295.9,304.4z M297.5,303.3c0.1-0.1,0.2-0.1,0.3,0c0.7,0.5,1.3,1.2,1.7,1.9c0.1,0.1,0.1,0.2-0.1,0.3
		l-0.7,0.6c-0.1,0.1-0.2,0.1-0.3-0.1c-0.5-0.8-1.1-1.5-1.8-2.1L297.5,303.3z"/>
	<path class="st6" d="M306.3,307.2c0.7-0.6,1.5-0.9,2.2-0.9c1.9,0,2.4,1.7,2.6,3.4c0.1,1.3,0.4,1.9,1,1.9s1.2-0.3,1.7-0.9
		c0.6-0.7,1.4-1.7,1.8-2.9c0.4,0.8,0.7,1.2,1,1.5c0.1,0.1,0.2,0.3,0.2,0.4s0,0.2-0.1,0.3c-0.4,0.8-1,1.6-1.5,2.2
		c-0.9,1-2.1,1.5-3.3,1.5c-1.8,0-2.6-1-2.8-3.5c-0.2-1.8-0.6-2.3-1.2-2.3c-0.8,0-1.5,0.6-2.3,1.5c-0.6,0.9-1.4,2.3-2.1,4
		c-0.1,0.3-0.2,0.3-0.4,0.2c-0.5-0.2-1-0.5-1.4-0.8c-0.1-0.1-0.2-0.2-0.2-0.2s0-0.2,0.1-0.3c2.6-5.1,4.3-8.6,5.3-10.8
		c0.5-1.2,0.8-1.8,0.9-2.6c0.8,0.3,1.5,0.7,2,1c0.2,0.1,0.3,0.2,0.3,0.4c0,0.1-0.1,0.2-0.2,0.4c-0.2,0.2-0.4,0.5-0.6,0.8
		C308.2,303.7,307.3,305.6,306.3,307.2L306.3,307.2z"/>
	<path class="st6" d="M323.9,300.2c-0.2-0.4-0.3-0.8-0.6-1.2c0.7-0.1,1.5-0.2,2.2-0.2c0.3,0,0.4,0.1,0.4,0.3c0,0.1,0,0.2,0,0.3
		c0,0.2,0,0.3,0.1,0.5c0.1,0.5,0.2,0.6,0.3,0.9c1.4-0.3,2.4-0.5,3.7-1c0.2-0.1,0.3-0.1,0.3,0.1c0.1,0.3,0.2,0.8,0.3,1.2
		c0,0.2-0.1,0.3-0.2,0.3c-1.2,0.4-2.3,0.6-3.5,0.9c0.2,0.5,0.4,1,0.6,1.5c1.5-0.3,2.4-0.6,3.3-0.9c0.2-0.1,0.3-0.1,0.3,0.1
		c0.2,0.4,0.2,0.8,0.3,1.2c0,0.2,0,0.3-0.1,0.3c-0.9,0.3-2,0.7-3,0.9c0.8,1.3,1.5,2.3,2.4,3.1c0.2,0.2,0.2,0.2,0.1,0.4
		c-0.2,0.4-0.5,0.8-0.7,1.1c-0.1,0.1-0.2,0.2-0.3,0.2c-0.1,0-0.1,0-0.3-0.1c-0.3-0.2-0.6-0.4-1.1-0.6c-0.9-0.4-2.1-0.6-3.4-0.6
		c-1.7,0-2.7,0.5-2.7,1.4c0,1.2,1.5,1.5,4.3,1.5c0.7,0,1.3-0.1,2-0.1c0.2,0,0.2,0.1,0.2,0.2c-0.1,0.5-0.2,1.2-0.4,1.6
		c-0.1,0.2-0.1,0.3-0.4,0.3c-0.4,0-0.8,0.1-1.3,0.1c-4.1,0-6.3-1.2-6.3-3.4c0-1.9,1.7-3.1,4.5-3.1c1.3,0,2.4,0.1,3.1,0.5
		c-0.4-0.5-1-1.4-1.5-2.1c-1.9,0.3-3.6,0.5-4.9,0.5c-0.2,0-0.3-0.1-0.3-0.3c-0.1-0.4-0.3-1-0.3-1.5c1.8,0,3.2-0.2,4.8-0.5
		c-0.2-0.4-0.5-1-0.7-1.5c-1.7,0.3-3,0.4-4.4,0.4c-0.2,0-0.3-0.1-0.4-0.3c-0.1-0.2-0.2-0.9-0.3-1.4c1.8,0,3.2-0.1,4.5-0.3
		C324.2,300.9,324.1,300.6,323.9,300.2z"/>
</g>
<g>
	<path class="st8" d="M27.3,310.7c0.4,0.7,0.8,1.2,1.5,1.5c0.6,0.3,1.8,0.4,3.4,0.4c2.3,0,5.1-0.1,7.8-0.5c-0.3,0.4-0.4,0.9-0.5,1.4
		c-0.1,0.6-0.1,0.6-0.7,0.6c-2.3,0.1-4.5,0.2-6.4,0.2c-1.8,0-3.6-0.2-4.2-0.5c-0.8-0.4-1.4-0.9-1.8-1.6c-0.6,0.5-1.2,1.1-1.7,1.6
		c-0.2,0.2-0.3,0.3-0.4,0.4s-0.1,0.2-0.3,0.2c-0.1,0-0.2-0.1-0.3-0.2c-0.3-0.5-0.5-1-0.7-1.7c0.5-0.2,0.7-0.4,1-0.6
		c0.5-0.3,0.9-0.7,1.4-1.1v-4h-0.8c-0.9,0-1.2,0-1.3,0c-0.2,0-0.2,0-0.2-0.2v-1.4c0-0.2,0-0.2,0.2-0.2c0.1,0,0.3,0,1.3,0h1
		c0.9,0,1.2,0,1.3,0c0.2,0,0.2,0,0.2,0.2c0,0.1,0,0.6,0,1.7v3.8L27.3,310.7L27.3,310.7z M24.7,298.8c0.1-0.1,0.2-0.1,0.2-0.1
		c0.1,0,0.1,0,0.2,0.1c0.8,0.8,1.6,1.6,2.2,2.6c0.1,0.2,0.1,0.2-0.1,0.4l-1,0.8c-0.1,0.1-0.2,0.1-0.2,0.1l-0.1-0.1
		c-0.6-1.1-1.4-2.1-2.2-2.8c-0.1-0.1-0.1-0.2,0.1-0.3L24.7,298.8z M38.6,307.4c0,1.1,0,1.9,0,2.6s-0.1,1.1-0.5,1.4
		c-0.3,0.2-0.7,0.4-1.8,0.4c-0.5,0-0.5,0-0.6-0.4c-0.1-0.5-0.2-1-0.5-1.2c0.4,0,0.8,0.1,1.1,0.1c0.4,0,0.5-0.1,0.5-0.5v-0.9h-2.6
		v0.5c0,1.4,0,2,0,2.1c0,0.2,0,0.2-0.2,0.2h-1.3c-0.2,0-0.2,0-0.2-0.2c0-0.1,0-0.7,0-2.1v-0.5h-2.3v0.7c0,1.4,0,2,0,2.1
		c0,0.2,0,0.2-0.2,0.2h-1.3c-0.2,0-0.2,0-0.2-0.2c0-0.1,0-0.7,0-2.1v-5.1c0-1.4,0-2,0-2.1c0-0.2,0-0.2,0.2-0.2c0.1,0,0.7,0,2.4,0h1
		c-0.5-0.4-1-0.7-1.5-1c-0.1-0.1-0.1-0.1-0.1-0.1s0.1-0.1,0.1-0.2l0.9-0.6h-0.7c-1.7,0-2.3,0-2.4,0c-0.2,0-0.2,0-0.2-0.2v-1.2
		c0-0.2,0-0.2,0.2-0.2c0.1,0,0.7,0,2.4,0h5.3c0.2,0,0.4,0,0.5-0.1s0.2-0.1,0.3-0.1s0.3,0.1,0.7,0.5s0.6,0.6,0.6,0.8
		c0,0.2-0.1,0.3-0.3,0.3c-0.2,0.1-0.4,0.2-0.7,0.5c-0.6,0.5-1.2,1-2,1.5H36c1.7,0,2.3,0,2.4,0c0.2,0,0.2,0,0.2,0.2
		c0,0.1,0,0.8,0,2.3C38.6,304.6,38.6,307.4,38.6,307.4z M32.7,304.8v-1.3h-2.3v1.3H32.7z M32.7,307.4v-1.3h-2.3v1.3H32.7z
		 M31.9,300.2c0.6,0.4,1.2,0.9,1.8,1.4c0.6-0.4,1.2-0.9,1.8-1.4H31.9z M34.3,303.5v1.3h2.6v-1.3H34.3z M36.9,307.4v-1.3h-2.6v1.3
		H36.9z"/>
	<path class="st8" d="M46.3,300.9h3.1v-0.7c0-0.9,0-1.4-0.1-2c0.7,0,1.3,0.1,1.9,0.1c0.2,0,0.3,0.1,0.3,0.2s-0.1,0.3-0.1,0.4
		c-0.1,0.2-0.1,0.5-0.1,1.3v0.8h1.4c0.3-0.5,0.5-1,0.8-1.5c0.1-0.3,0.2-0.5,0.3-1c0.6,0.1,1.3,0.3,1.8,0.4c0.2,0.1,0.3,0.1,0.3,0.3
		s-0.1,0.2-0.2,0.3c-0.1,0.1-0.2,0.2-0.3,0.4c-0.3,0.4-0.5,0.7-0.7,1.1h0.9c1.7,0,2.3,0,2.4,0c0.2,0,0.2,0,0.2,0.2
		c0,0.1,0,0.4,0,0.9v0.7c0,1.6,0,1.9,0,2c0,0.2,0,0.2-0.2,0.2h-1.4c-0.2,0-0.2,0-0.2-0.2v-2.3H44.7v2.2c0,0.2,0,0.2-0.2,0.2h-1.4
		c-0.2,0-0.2,0-0.2-0.2c0-0.1,0-0.4,0-2v-0.6c0-0.6,0-1,0-1.1c0-0.2,0-0.2,0.2-0.2c0.1,0,0.7,0,2.4,0H46c-0.2-0.5-0.6-1.2-1-1.6
		c-0.1-0.1-0.1-0.1-0.1-0.2s0.1-0.1,0.2-0.1l1.3-0.5c0.2-0.1,0.2-0.1,0.3,0.1c0.4,0.5,0.7,1.1,1,1.6c0.1,0.2,0.1,0.2-0.2,0.3
		L46.3,300.9z M54.3,308.8c1.8,0,2.4,0,2.5,0c0.2,0,0.2,0,0.2,0.2c0,0.1,0,0.6,0,1.7v0.5c0,0.5,0,0.9,0,1.3c0,0.5-0.1,0.9-0.4,1.2
		c-0.3,0.3-0.8,0.4-2.4,0.4c-0.6,0-0.6,0-0.7-0.6c-0.1-0.4-0.2-0.7-0.3-1c0.6,0.1,1,0.1,1.4,0.1s0.5-0.1,0.5-0.5v-1.5h-3.9v2.1
		c0,1.3,0,1.9,0,2c0,0.2,0,0.2-0.2,0.2h-1.5c-0.2,0-0.2,0-0.2-0.2c0-0.1,0-0.7,0-2v-2.1h-3.5v1.9c0,1,0,1.4,0,1.5
		c0,0.2,0,0.2-0.2,0.2h-1.5c-0.2,0-0.2,0-0.2-0.2c0-0.1,0-0.6,0-1.6v-1.7c0-1,0-1.4,0-1.5c0-0.2,0-0.2,0.2-0.2c0.1,0,0.7,0,2.5,0
		h2.7v-1.2h-0.9c-1.6,0-2.2,0-2.3,0c-0.2,0-0.2,0-0.2-0.2c0-0.1,0-0.4,0-1.2V305c0-0.8,0-1.1,0-1.2c0-0.2,0-0.2,0.2-0.2
		c0.1,0,0.7,0,2.3,0h3.8c1.6,0,2.2,0,2.3,0c0.2,0,0.2,0,0.2,0.2c0,0.1,0,0.4,0,1.2v1.4c0,0.8,0,1.1,0,1.2c0,0.2,0,0.2-0.2,0.2
		c-0.1,0-0.7,0-2.3,0h-1.1v1.2h3.2C54.3,309,54.3,308.8,54.3,308.8z M53.1,304.8h-5.3v1.3h5.3V304.8z"/>
	<path class="st8" d="M70.5,302.2c-0.4,3.1-1.2,5.9-2.3,7.8c-0.8,1.3-1.7,2.1-3.1,2.1c-1.6,0-3.2-1.7-3.2-4.6c0-1.7,0.7-3.4,2-4.7
		c1.5-1.5,3.4-2.3,5.9-2.3c4.3,0,6.9,2.7,6.9,6.2c0,3.3-1.9,5.5-5.5,6.6c-0.4,0.1-0.5,0-0.8-0.3c-0.2-0.3-0.6-0.7-1.3-1.1
		c3-0.7,5.4-2,5.4-5.4C74.6,304.3,73,302.2,70.5,302.2L70.5,302.2z M65.4,304c-0.9,1-1.4,2.2-1.4,3.3c0,1.7,0.7,2.6,1.2,2.6
		s0.9-0.2,1.4-1.1c0.8-1.5,1.6-4.1,1.9-6.4C67.2,302.6,66.2,303.1,65.4,304z"/>
	<path class="st8" d="M84.3,300.3c-1.7,0-2.3,0-2.4,0c-0.2,0-0.2,0-0.2-0.2v-1.2c0-0.2,0-0.2,0.2-0.2c0.1,0,0.7,0,2.4,0h8.1
		c1.8,0,2.4,0,2.5,0c0.2,0,0.2,0,0.2,0.2v1.2c0,0.2,0,0.2-0.2,0.2c-0.1,0-0.7,0-2.5,0h-3.3v0.7h4.4c1.7,0,2.2,0,2.4,0
		c0.2,0,0.2,0,0.2,0.2c0,0.1,0,0.4,0,0.9v0.9c0,1.4,0,1.7,0,1.8c0,0.2,0,0.2-0.2,0.2h-1.4c-0.2,0-0.2,0-0.2-0.2v-2.5h-5.2v1.5
		c0,1.2,0,1.7,0,1.8c0,0.2,0,0.2-0.2,0.2h-1.5c-0.2,0-0.2,0-0.2-0.2c0-0.1,0-0.6,0-1.8v-1.5h-5v2.5c0,0.2,0,0.2-0.2,0.2h-1.4
		c-0.2,0-0.2,0-0.2-0.2c0-0.1,0-0.4,0-1.8v-0.8c0-0.6,0-0.9,0-1c0-0.2,0-0.2,0.2-0.2c0.1,0,0.7,0,2.4,0h4.2v-0.7H84.3z M91.4,306.3
		c1.8,0,2.7,0,2.8,0c0.2,0,0.2,0,0.2,0.2c0,0.1,0,0.5,0,1.6v2.1c0,1,0,1.5,0,1.6c0,0.2,0,0.2-0.2,0.2c-0.1,0-1,0-2.8,0h-2.3v0.3
		c0,0.5,0.1,0.6,0.3,0.6c0.5,0.1,1.2,0.1,2.4,0.1c1.6,0,2.3-0.1,2.6-0.4c0.3-0.2,0.4-0.4,0.4-1.8c0.3,0.2,0.8,0.4,1.3,0.5
		s0.5,0.1,0.4,0.6c-0.1,1.2-0.5,1.7-1,2.1c-0.6,0.4-1.6,0.6-3.7,0.6c-1.7,0-3-0.1-3.6-0.3c-0.6-0.2-0.9-0.6-0.9-1.7v-0.7H84v0.7
		c0,0.2,0,0.2-0.2,0.2h-1.4c-0.2,0-0.2,0-0.2-0.2c0-0.1,0-0.6,0-1.7V308c0-1.1,0-1.6,0-1.7c0-0.2,0-0.2,0.2-0.2c0.1,0,1,0,2.7,0h6.3
		V306.3z M85.3,303c0.7,0,0.9,0,1,0c0.2,0,0.2,0,0.2,0.2v0.7c0,0.1,0,0.1-0.2,0.1c-0.1,0-0.3,0-1,0h-0.9c-0.7,0-0.9,0-1,0
		c-0.2,0-0.2,0-0.2-0.1v-0.7c0-0.1,0-0.1,0.2-0.1c0.1,0,0.3,0,1,0h0.9V303z M85.3,304.6c0.7,0,0.9,0,1,0c0.2,0,0.2,0,0.2,0.2v0.7
		c0,0.1,0,0.2-0.2,0.2c-0.1,0-0.3,0-1,0h-0.9c-0.7,0-0.9,0-1,0c-0.2,0-0.2,0-0.2-0.2v-0.7c0-0.1,0-0.1,0.2-0.1c0.1,0,0.3,0,1,0h0.9
		V304.6z M87.3,308.5v-0.9H84v0.9H87.3z M87.3,310.6v-0.9H84v0.9H87.3z M89.1,307.6v0.9h3.5v-0.9H89.1z M92.6,309.7h-3.5v0.9h3.5
		V309.7z M92.2,302.9c0.8,0,1,0,1.1,0c0.2,0,0.2,0,0.2,0.2v0.7c0,0.1,0,0.2-0.2,0.2c-0.1,0-0.3,0-1.1,0h-0.9c-0.8,0-1,0-1.1,0
		c-0.2,0-0.2,0-0.2-0.2v-0.7c0-0.1,0-0.1,0.2-0.1c0.1,0,0.3,0,1.1,0h0.9V302.9z M92.2,304.5c0.8,0,1,0,1.1,0c0.2,0,0.2,0,0.2,0.2
		v0.7c0,0.1,0,0.1-0.2,0.1c-0.1,0-0.3,0-1.1,0h-0.9c-0.8,0-1,0-1.1,0c-0.2,0-0.2,0-0.2-0.1v-0.7c0-0.1,0-0.1,0.2-0.1
		c0.1,0,0.3,0,1.1,0h0.9V304.5z"/>
	<path class="st8" d="M103.1,301.5c-0.6,0.8-1.2,1.6-2,2.3c-0.2,0.2-0.3,0.3-0.4,0.3s-0.2-0.1-0.4-0.4c-0.3-0.4-0.6-0.6-0.9-0.8
		c1.5-1.2,2.3-2.3,3.1-4c0.1-0.3,0.2-0.5,0.3-1c0.6,0.1,1.2,0.3,1.6,0.4c0.2,0.1,0.3,0.1,0.3,0.3c0,0.1-0.1,0.2-0.1,0.2
		c-0.1,0.1-0.2,0.2-0.3,0.4l-0.3,0.6h8c1.8,0,2.4,0,2.5,0c0.2,0,0.2,0,0.2,0.2v1.3c0,0.2,0,0.2-0.2,0.2c-0.1,0-0.7,0-2.5,0H103.1z
		 M102.9,307.6c0.2-0.2,0.2-0.2,0.4-0.1c0.8,0.5,1.6,1.1,2.4,1.7c0.4-0.4,0.7-0.8,1-1.3c0.2-0.3,0.4-0.6,0.5-1
		c0.5,0.2,1.2,0.5,1.5,0.7c0.2,0.1,0.2,0.2,0.2,0.3c0,0.1-0.1,0.2-0.2,0.3c-0.2,0.1-0.3,0.2-0.5,0.5c-0.4,0.5-0.8,1.1-1.2,1.5
		c0.8,0.6,1.6,1.4,2.4,2.1c0.1,0.1,0.1,0.1,0.1,0.2s0,0.1-0.1,0.2l-1,1c-0.1,0.1-0.2,0.2-0.3,0.2c-0.1,0-0.1,0-0.2-0.1
		c-0.8-0.8-1.5-1.6-2.3-2.3c-1.2,1.1-2.7,2-4.4,2.7c-0.2,0.1-0.3,0.1-0.5,0.1c-0.1,0-0.2-0.1-0.4-0.4c-0.3-0.4-0.6-0.8-0.9-1
		c2.1-0.7,3.7-1.5,4.9-2.5c-0.8-0.6-1.5-1.2-2.4-1.8c-0.2-0.1-0.2-0.1,0-0.3L102.9,307.6z M103,306.7c-1.7,0-2.4,0-2.5,0
		c-0.2,0-0.2,0-0.2-0.2v-1.4c0-0.2,0-0.2,0.2-0.2c0.1,0,0.7,0,2.5,0h7c1.8,0,2.4,0,2.5,0c0.2,0,0.2,0,0.2,0.2
		c-0.1,0.8-0.1,1.6,0,2.3c0,1.4,0.1,2.6,0.3,3.5c0.2,1,0.3,1.5,0.7,1.5c0.2,0,0.4-0.6,0.5-2.3c0.3,0.3,0.8,0.6,1.2,0.8
		c0.4,0.1,0.4,0.2,0.3,0.8c-0.3,2.1-0.8,2.9-1.9,2.9c-1,0-1.9-0.8-2.5-2.8c-0.3-1.2-0.5-2.7-0.5-5.1L103,306.7L103,306.7z
		 M105.5,304c-1.7,0-2.3,0-2.4,0c-0.2,0-0.2,0-0.2-0.2v-1.2c0-0.2,0-0.2,0.2-0.2c0.1,0,0.7,0,2.4,0h5.1c1.7,0,2.3,0,2.4,0
		c0.2,0,0.2,0,0.2,0.2v1.2c0,0.2,0,0.2-0.2,0.2c-0.1,0-0.7,0-2.4,0H105.5z"/>
	<path class="st8" d="M120.6,307.8c0-0.6,0-1.3,0-2c-0.4,0.6-0.9,1.1-1.4,1.7c-0.1,0.2-0.3,0.3-0.3,0.3c-0.1,0-0.2-0.1-0.2-0.3
		c-0.2-0.6-0.5-1.3-0.7-1.6c1.8-1.9,3.1-4.1,3.9-6.2c0.1-0.4,0.3-0.8,0.3-1.3c0.6,0.2,1.2,0.4,1.7,0.6c0.2,0.1,0.3,0.1,0.3,0.3
		s-0.1,0.2-0.2,0.3c-0.1,0.1-0.2,0.3-0.4,0.7c-0.3,0.9-0.7,1.8-1.2,2.6v9c0,1.7,0,2.6,0,2.7c0,0.2,0,0.2-0.2,0.2h-1.5
		c-0.2,0-0.2,0-0.2-0.2c0-0.1,0-1,0-2.7L120.6,307.8L120.6,307.8z M131.8,303.1c1.6-0.2,2.3-0.3,2.4-0.3c0.2,0,0.2,0,0.2,0.2
		l0.1,1.4c0,0.2,0,0.2-0.2,0.2l-2.5,0.3l-2.7,0.3c0.2,1.5,0.6,2.9,1.2,4.2c0.8,1.9,1.7,2.8,2.1,2.8c0.3,0,0.6-0.7,0.8-2.5
		c0.3,0.3,0.6,0.5,1.2,0.7c0.5,0.2,0.5,0.3,0.4,0.8c-0.3,2.3-1,3.3-2.1,3.3c-1.7,0-3.1-2-4.1-4.4c-0.6-1.4-1-3-1.3-4.8l-1.2,0.1
		c-1.6,0.2-2.3,0.3-2.4,0.3c-0.2,0-0.2,0-0.2-0.2l-0.1-1.4c0-0.2,0-0.2,0.2-0.2s0.8-0.1,2.4-0.2l1.2-0.1c-0.1-0.9-0.1-1.7-0.2-2.6
		c-0.1-1.2-0.1-1.7-0.2-2.6c0.6,0,1.3,0,1.9,0.1c0.2,0,0.3,0.1,0.3,0.2c0,0.2-0.1,0.3-0.1,0.4c-0.1,0.2-0.1,0.6-0.1,1.8
		c0,0.8,0.1,1.7,0.2,2.5L131.8,303.1z M131,299c0.1-0.1,0.1-0.1,0.2-0.1s0.1,0,0.2,0.1c0.7,0.6,1.4,1.3,2,2.1
		c0.1,0.2,0.1,0.2-0.1,0.4l-1,0.7c-0.1,0.1-0.2,0.1-0.2,0.1c-0.1,0-0.1-0.1-0.1-0.1c-0.6-0.9-1.3-1.7-1.9-2.2
		c-0.1-0.1-0.1-0.1-0.1-0.2s0.1-0.1,0.2-0.2L131,299z"/>
</g>
<g>
	<path class="st6" d="M225.4,144.4c0,2.3,1,3.2,3.4,3.2c3,0,4.6-1.1,4.6-3.4c0-1.4-0.4-2.6-2.3-4.6c1,0.1,1.6,0,2.6-0.2
		c0.2-0.1,0.4,0,0.5,0.1c1.4,1.3,2.1,3,2.1,4.7c0,3.6-2.9,5.9-7.3,5.9c-4.5,0-6.4-2-6.4-5.7c0-0.5,0.1-1.2,0.2-2.4
		c-1.5-0.2-2.5-0.5-3.4-0.8c-0.2-0.1-0.3-0.2-0.3-0.5c-0.1-0.8-0.1-1.6,0-2.3c1.5,0.6,2.6,0.8,4.1,1c0.1-0.9,0.3-2.6,0.4-3.6
		c-1.8-0.2-2.7-0.4-3.6-0.7c-0.3-0.1-0.4-0.2-0.4-0.4c0-0.6-0.1-1.4-0.1-2.3c1.7,0.6,2.9,0.8,4.6,1c0.2-1.5,0.3-2.1,0.3-2.9
		c0-0.7,0-1.4,0-2.1c1.2,0.2,2.5,0.5,3,0.7c0.4,0.1,0.6,0.4,0.6,0.6s-0.1,0.3-0.2,0.5c-0.2,0.2-0.3,0.5-0.5,1.1
		c-0.1,0.6-0.3,1.4-0.4,2.4c1,0.1,2,0,3.1-0.2c0.2,0,0.3,0.1,0.3,0.3c0,0.6,0,1.3,0,1.9c0,0.3-0.1,0.4-0.4,0.4
		c-1.1,0.1-2.2,0.2-3.4,0.1c-0.2,0.9-0.4,2.6-0.6,3.6c1.3,0,2.4,0,3.6-0.1c0.3-0.1,0.4,0,0.4,0.3c0,0.5,0,1.4-0.1,1.9
		c0,0.3-0.1,0.4-0.4,0.4c-1.3,0.1-2.6,0.1-3.9,0.1C225.4,143.3,225.4,143.9,225.4,144.4z"/>
	<path class="st6" d="M244.3,134.7c0.3,0.1,0.4,0.3,0.4,0.5c0,0.1,0,0.3-0.1,0.4c-0.2,0.4-0.4,0.9-0.5,1.3c-0.3,1.3-0.5,3.2-0.6,4.6
		c2.3-2.3,5.3-4,8.4-4c3.7,0,5.9,2.1,5.9,5.4c0,2.7-1.6,4.6-3.8,5.6c-1.7,0.9-4.3,1.5-6.5,1.7c-0.6,0.1-0.8,0.1-1-0.3
		c-0.5-0.9-0.9-1.5-1.7-2.1c2.8-0.2,5.2-0.7,6.9-1.4c2-0.9,3-2.2,3-3.8c0-1.4-0.9-2.6-3-2.6c-2.2,0-4.9,1.4-7.3,3.8
		c-0.5,0.5-0.8,0.9-1.1,1.4c-0.2,0.3-0.3,0.3-0.6,0.2c-0.6-0.2-1.2-0.4-1.7-0.7c-0.3-0.1-0.4-0.2-0.4-0.5c0.2-2.9,0.5-5.9,0.8-8.1
		c0.1-0.8,0.2-1.4,0.2-2.3C242.7,134.1,243.7,134.4,244.3,134.7z M244.9,128.3c0.1-0.1,0.3-0.2,0.5-0.1c1.9,0.7,3.4,1.7,4.9,3
		c0.1,0.1,0.2,0.2,0.2,0.3s0,0.2-0.1,0.3c-0.3,0.5-0.9,1.3-1.3,1.8c-0.1,0.1-0.2,0.2-0.3,0.2s-0.2-0.1-0.3-0.2
		c-1.4-1.2-3.1-2.4-5.1-3.3C244,129.4,244.5,128.8,244.9,128.3z"/>
	<path class="st6" d="M268.2,135.5c1.9-0.3,3.4-0.6,4.4-0.8c0.4-0.1,0.7-0.2,1-0.4c0.2-0.1,0.3-0.2,0.6-0.2c0.2,0,0.2,0.1,0.4,0.2
		c0.5,0.3,1,0.8,1.5,1.3c0.2,0.2,0.3,0.4,0.3,0.6c0,0.2-0.2,0.4-0.5,0.6c-0.4,0.2-0.5,0.4-0.8,0.6c-1.9,1.8-2.9,2.8-4.6,4.6
		c0.3-0.1,0.7-0.1,0.9-0.1c1.2,0,2.3,0.8,2.7,2.5c0.5,2.1,0.9,2.5,2.8,2.5c1.5,0,2.7-0.2,3.9-0.5c0.3-0.1,0.4,0.1,0.5,0.4
		c0.1,0.5,0.2,1.4,0.2,2.2c0,0.3-0.1,0.4-0.5,0.4c-1.1,0.2-2.5,0.3-3.7,0.3c-3.7,0-4.9-1-5.4-3.5c-0.4-1.7-0.7-2.4-1.6-2.4
		c-0.7,0-1.4,0.4-2.4,1.3c-1.1,1.2-3,3.4-3.8,4.4c-0.1,0.1-0.2,0.2-0.4,0.2c-0.1,0-0.2,0-0.3-0.1c-0.7-0.5-1.3-1.1-1.8-1.5
		c-0.1-0.1-0.1-0.2-0.1-0.3s0.1-0.3,0.2-0.4c1.6-1.6,3.2-3.2,4.8-4.8c1-1,2.3-2.5,5-5.4c-1.9,0.5-3.6,0.9-5.2,1.3
		c-0.8,0.2-1.2,0.4-1.4,0.5c-0.2,0.1-0.4,0.2-0.5,0.2c-0.2,0-0.3-0.1-0.4-0.4c-0.3-0.6-0.6-1.6-1-2.8
		C265.1,135.9,266.1,135.8,268.2,135.5z M275.2,130.1c0.3,0.1,0.4,0.2,0.3,0.6c-0.2,0.6-0.5,1.6-0.7,2.1c-0.1,0.2-0.2,0.3-0.4,0.3
		c-2.2-0.4-5.2-1.3-7-2.1c-0.2-0.1-0.3-0.2-0.2-0.5c0.2-0.6,0.5-1.4,0.9-2.3C270.5,129,272.8,129.6,275.2,130.1z"/>
	<path class="st6" d="M291.6,138.3c1.4-0.8,2.6-1.1,4-1.1c3.7,0,6.3,2.4,6.3,6c0,4.2-3.4,6.9-8.8,6.9c-3.2,0-5.1-1.4-5.1-3.7
		c0-1.7,1.6-3.1,3.6-3.1c2.4,0,4.1,1.3,4.7,3.7c1.8-0.8,2.6-1.9,2.6-3.8c0-2.3-1.6-3.8-4-3.8c-2.1,0-4.4,0.9-6.5,2.7
		c-0.7,0.7-1.4,1.4-2.2,2.1c-0.2,0.2-0.3,0.3-0.4,0.3s-0.2-0.1-0.4-0.2c-0.5-0.5-1.1-1.1-1.5-1.6c-0.2-0.2-0.1-0.4,0.1-0.6
		c2-1.6,3.7-3.2,6-5.6c1.6-1.6,2.7-2.9,3.9-4.3c-1.5,0.3-3.3,0.6-4.9,1c-0.3,0.1-0.7,0.2-1.1,0.3c-0.1,0-0.4,0.1-0.5,0.1
		c-0.3,0-0.4-0.1-0.6-0.4c-0.3-0.6-0.5-1.3-0.9-2.7c0.8,0.1,1.6,0.1,2.3,0c1.5-0.2,3.8-0.5,5.7-0.9c0.6-0.1,1.1-0.3,1.4-0.4
		c0.1-0.1,0.4-0.2,0.5-0.2c0.3,0,0.4,0.1,0.6,0.2c0.8,0.6,1.3,1.1,1.7,1.6c0.2,0.2,0.3,0.4,0.3,0.6c0,0.3-0.2,0.5-0.4,0.6
		c-0.4,0.2-0.6,0.4-1.1,0.8C295.2,134.6,293.5,136.4,291.6,138.3L291.6,138.3z M291.6,145.5c-0.7,0-1.2,0.4-1.2,1
		c0,0.8,0.7,1.3,2.2,1.3c0.5,0,0.8,0,1.2-0.1C293.4,146.3,292.7,145.5,291.6,145.5z"/>
</g>
</svg>
