<?xml version="1.0" encoding="utf-8"?>
<!-- Generator: Adobe Illustrator 26.5.0, SVG Export Plug-In . SVG Version: 6.00 Build 0)  -->
<svg version="1.1" id="レイヤー_1" xmlns="http://www.w3.org/2000/svg" xmlns:xlink="http://www.w3.org/1999/xlink" x="0px"
	 y="0px" viewBox="0 0 560 679" style="enable-background:new 0 0 560 679;" xml:space="preserve">
<style type="text/css">
	.st0{fill-rule:evenodd;clip-rule:evenodd;fill:#FFFFFF;}
	.st1{fill:#12575F;}
	.st2{font-family:'HiraginoSans-W5-83pv-RKSJ-H';}
	.st3{font-size:18px;}
	.st4{enable-background:new    ;}
	.st5{font-family:'HiraginoSansCNS-W3-B5pc-H';}
	.st6{font-size:13px;}
	.st7{font-family:'KozGoPr6N-Regular-83pv-RKSJ-H';}
	.st8{fill-rule:evenodd;clip-rule:evenodd;fill:#0051A3;}
	.st9{filter:url(#Adobe_OpacityMaskFilter);}
	
		.st10{mask:url(#img_description_01-e_00000066477971782528734460000000571935358912674181_);fill-rule:evenodd;clip-rule:evenodd;fill:#0051A3;}
	.st11{filter:url(#Adobe_OpacityMaskFilter_00000090993602258575056930000008206807487112140723_);}
	
		.st12{mask:url(#img_description_01-g_00000118382550190143887600000007153981778741390232_);fill-rule:evenodd;clip-rule:evenodd;fill:#0051A3;}
	.st13{filter:url(#Adobe_OpacityMaskFilter_00000098209105044131472580000002684451219871636926_);}
	
		.st14{mask:url(#img_description_01-i_00000181086866224147018760000016105643517983277704_);fill-rule:evenodd;clip-rule:evenodd;fill:#0051A3;}
	.st15{fill-rule:evenodd;clip-rule:evenodd;fill:#F6D78C;}
	.st16{fill-rule:evenodd;clip-rule:evenodd;fill:#12575F;}
	.st17{fill:#FFFFFF;}
	.st18{font-family:'AvenirNext-Medium';}
	.st19{font-size:11px;}
	.st20{fill:#00D9B1;}
	.st21{fill:#00241E;}
</style>
<path class="st0" d="M15,0h530c8.3,0,15,6.7,15,15v190c0,8.3-6.7,15-15,15H15c-8.3,0-15-6.7-15-15V15C0,6.7,6.7,0,15,0z"/>
<path class="st0" d="M15,310h530c8.3,0,15,6.7,15,15v152c0,8.3-6.7,15-15,15H15c-8.3,0-15-6.7-15-15V325C0,316.7,6.7,310,15,310z"/>
<g transform="translate(0 575)">
	<path class="st0" d="M15,0h530c8.3,0,15,6.7,15,15v74c0,8.3-6.7,15-15,15H15c-8.3,0-15-6.7-15-15V15C0,6.7,6.7,0,15,0z"/>
	<text transform="matrix(1 0 0 1 37.45 59)" class="st1 st2 st3">コインチェックに登録している全ての方がご利用できます！</text>
</g>
<text transform="matrix(1 0 0 1 248.65 513)" class="st4"><tspan x="0" y="0" class="st1 st5 st6">前提条件：コインチェック</tspan><tspan x="156" y="0" class="st1 st7 st6">・</tspan><tspan x="169" y="0" class="st1 st5 st6">マクロミル会員登</tspan><tspan x="273" y="0" class="st1 st7 st6">録済</tspan><tspan x="299" y="0" class="st1 st5 st6">み</tspan></text>
<g transform="translate(130 40)">
	<path class="st8" d="M62.4,23.8L52.5,5.6c-0.3-0.5-0.9-0.8-1.4-0.8h-3.4c-0.6,0-1.1,0.4-1.4,0.8L36.1,24.2C36,24.3,36,24.5,36,24.6
		c0,0.2,0.1,0.4,0.2,0.5c0.2,0.1,0.3,0.2,0.5,0.2h3.1c0.6,0,1.1-0.4,1.4-0.9l7.9-14.6c0.1-0.1,0.1-0.1,0.1-0.1c0,0,0.1,0,0.1,0.1
		l7.9,14.6c0.3,0.5,0.9,0.8,1.4,0.9H62c0.2,0,0.4,0,0.6-0.1c0.1,0,0.1,0,0.2-0.1c0.1,0,0.2-0.1,0.2-0.3c0-0.1,0-0.1,0-0.1
		C62.9,24.6,62.7,24.2,62.4,23.8 M141,19.6c-1.5,1.2-3.5,1.8-6.1,1.8c-2.6,0-4.7-0.6-6.2-1.8c-1.5-1.2-2.2-2.7-2.3-4.6
		c0-1.8,0.7-3.3,2.3-4.6c1.6-1.2,3.6-1.9,6.1-1.9c2.5,0,4.5,0.6,6.1,1.8c1.6,1.2,2.3,2.7,2.3,4.6C143.3,16.9,142.5,18.4,141,19.6
		 M143.9,6.8L143.9,6.8c-2.5-1.8-5.5-2.7-9-2.7c-3.5,0-6.5,0.9-9,2.7c-2.9,2.1-4.3,4.8-4.3,8.1c0,0,0,0,0,0v0c0,3.4,1.5,6.2,4.3,8.2
		c2.4,1.8,5.5,2.7,9,2.7h0h0c3.6,0,6.6-0.9,9-2.7c2.8-2.1,4.3-4.9,4.3-8.2v0v0v0C148.3,11.7,146.8,8.9,143.9,6.8 M217.2,21.9
		c0-0.6-0.5-1.1-1.1-1.1h-13.5c-0.3,0-0.5-0.2-0.5-0.5l0-14.5c0-0.6-0.5-1.1-1.1-1.1h-2.7c-0.6,0-1.1,0.5-1.1,1.1v18.4
		c0,0.6,0.5,1.1,1.1,1.1h17.8c1.2,0,1.1-1.1,1.1-1.1V21.9z M240.2,24.2v-2.2c0-0.6-0.5-1.1-1.1-1.1h-13.5c-0.3,0-0.5-0.2-0.5-0.5
		l0-14.5c0-0.6-0.5-1.1-1.1-1.1h-2.7c-0.6,0-1.1,0.5-1.1,1.1v18.4c0,0.6,0.5,1.1,1.1,1.1h17.8C240.3,25.3,240.2,24.2,240.2,24.2
		 M71.7,10.3c1.5-1.2,3.6-1.8,6.3-1.8c3,0,5.5,0.9,7.5,2.8l0,0c0.1,0.1,0.2,0.2,0.5,0.3c0,0,0.1,0,0.1,0l3.3-1.1
		c0.2-0.1,0.4-0.4,0.4-0.6c0-0.3-0.2-0.5-0.2-0.5c-3-3.5-7-5.3-11.9-5.3h0h0c-3.5,0-6.6,0.9-9,2.7c-2.8,2.1-4.3,4.8-4.3,8.1v0v0
		c0,3.2,1.3,5.8,3.8,7.8c2.5,2,5.8,3,9.8,3h0h0c4.8,0,8.7-1.7,11.7-5c0.1-0.1,0.2-0.2,0.2-0.4c0-0.4-0.3-0.5-0.4-0.5l0,0l-3.1-1.6
		c-0.1-0.1-0.2-0.1-0.3-0.1c-0.3,0-0.5,0.2-0.5,0.2c-1.9,2-4.4,2.9-7.5,2.9c-2.7,0-4.9-0.6-6.4-1.8c-1.5-1.2-2.3-2.7-2.3-4.6
		C69.4,13,70.2,11.6,71.7,10.3 M117.8,23.8l-2-2.8l-2.4-3.4c2.9-0.9,4.5-3.1,4.5-6.2c0,0,0,0,0,0c0,0,0,0,0,0c0-2-0.7-3.7-2-4.9
		c-1.3-1.2-3.1-1.8-5.3-1.8h0H95.4c-0.6,0-1.1,0.5-1.1,1.1v18.4c0,0.6,0.5,1.1,1.1,1.1h2.7c0.6,0,1.1-0.5,1.1-1.1V9.7
		c0-0.3,0.2-0.5,0.5-0.5h0.8h9.3c1.2,0,2,0.2,2.5,0.6c0.5,0.4,0.7,0.9,0.7,1.7c0,0.8-0.2,1.3-0.7,1.6c-0.4,0.3-1.2,0.5-2.3,0.6
		l-5,0.2l7.6,10.7c0.3,0.4,0.9,0.8,1.5,0.8h3.3c0.2,0,0.4,0,0.5-0.1c0.1,0,0.1,0,0.2-0.1c0.1,0,0.2-0.1,0.2-0.3c0-0.1,0-0.1-0.1-0.2
		C118.3,24.6,118,24.2,117.8,23.8"/>
	<g transform="translate(0 1.25)">
		<defs>
			<filter id="Adobe_OpacityMaskFilter" filterUnits="userSpaceOnUse" x="0" y="0" width="32.6" height="24">
				<feColorMatrix  type="matrix" values="1 0 0 0 0  0 1 0 0 0  0 0 1 0 0  0 0 0 1 0"/>
			</filter>
		</defs>
		
			<mask maskUnits="userSpaceOnUse" x="0" y="0" width="32.6" height="24" id="img_description_01-e_00000066477971782528734460000000571935358912674181_">
			<g class="st9">
				<polygon id="img_description_01-d_00000102507501180535013670000014936635303792580003_" class="st0" points="0,0 32.6,0 
					32.6,24.1 0,24.1 				"/>
			</g>
		</mask>
		<path class="st10" d="M31.5,0H28c-0.6,0-1.2,0.3-1.5,0.7l-9.9,12.5c-0.1,0.1-0.2,0.2-0.3,0.2c-0.1,0-0.2,0-0.3-0.2L6.1,0.8
			C5.7,0.3,5.1,0,4.6,0H1.1C0.5,0,0,0.5,0,1.1V23c0,0.6,0.5,1.1,1.1,1.1h2.7c0.6,0,1.1-0.5,1.1-1.1V6.1l7.9,10
			c0.4,0.4,1,0.7,1.5,0.7h2h2c0.6,0,1.2-0.3,1.5-0.7l7.9-10V23c0,0.6,0.5,1.1,1.1,1.1h2.7c0.6,0,1.1-0.5,1.1-1.1V1.1
			C32.6,0.5,32.1,0,31.5,0"/>
	</g>
	<path class="st8" d="M180,4.7h-4.5c-0.6,0-1.2,0.3-1.5,0.8l-6.9,9.6c-0.1,0.1-0.2,0.1-0.2,0.1c-0.1,0-0.1,0-0.2-0.1l-6.9-9.6
		c-0.3-0.4-0.9-0.8-1.5-0.8h-4.5c-0.6,0-1.1,0.5-1.1,1.1v18.4c0,0.6,0.5,1.1,1.1,1.1h2.7c0.6,0,1.1-0.5,1.1-1.1V10l6,8.3
		c0.3,0.4,0.9,0.8,1.5,0.8h1.8h1.8c0.6,0,1.2-0.3,1.5-0.8l6-8.3v14.2c0,0.6,0.5,1.1,1.1,1.1h2.7c0.6,0,1.1-0.5,1.1-1.1V5.8
		C181.1,5.2,180.6,4.8,180,4.7 M190.6,4.7h-2.7c-0.6,0-1.1,0.5-1.1,1.1v18.4c0,0.6,0.5,1.1,1.1,1.1h2.7c0.6,0,1.1-0.5,1.1-1.1V5.8
		C191.6,5.2,191.2,4.7,190.6,4.7"/>
	<g transform="translate(257.143 .512)">
		<defs>
			
				<filter id="Adobe_OpacityMaskFilter_00000065072388010537124310000013106109131881835954_" filterUnits="userSpaceOnUse" x="0.5" y="0.2" width="41.8" height="19">
				<feColorMatrix  type="matrix" values="1 0 0 0 0  0 1 0 0 0  0 0 1 0 0  0 0 0 1 0"/>
			</filter>
		</defs>
		
			<mask maskUnits="userSpaceOnUse" x="0.5" y="0.2" width="41.8" height="19" id="img_description_01-g_00000118382550190143887600000007153981778741390232_">
			<g style="filter:url(#Adobe_OpacityMaskFilter_00000065072388010537124310000013106109131881835954_);">
				<polygon id="img_description_01-f_00000007424522509014786770000002934037382073070480_" class="st0" points="0.5,0.2 42.3,0.2 
					42.3,19.2 0.5,19.2 				"/>
			</g>
		</mask>
		<path class="st12" d="M23.4,3.7c0,0.7,0.5,1.2,1.2,1.2h7.7c0.7,0,0.8,0.4,0.4,0.9L22.3,16.1c-0.5,0.5-1.2,0.5-1.7,0L10.2,5.8
			c-0.5-0.5-0.3-0.9,0.4-0.9h7.7c0.7,0,1.2-0.5,1.2-1.2V1.4c0-0.7-0.5-1.2-1.2-1.2H1.7C1,0.2,0.5,0.8,0.5,1.4V18
			c0,0.7,0.5,1.2,1.2,1.2H4c0.7,0,1.2-0.5,1.2-1.2v-7.7c0-0.7,0.4-0.8,0.9-0.4l8.4,8.4c0.5,0.5,1.4,0.9,2.1,0.9h3.7h2.4h3.7
			c0.7,0,1.6-0.4,2.1-0.9l8.4-8.4c0.5-0.5,0.9-0.3,0.9,0.4V18c0,0.7,0.5,1.2,1.2,1.2h2.3c0.7,0,1.2-0.5,1.2-1.2V1.4
			c0-0.7-0.5-1.2-1.2-1.2H24.6c-0.7,0-1.2,0.5-1.2,1.2V3.7z"/>
	</g>
	<g transform="translate(257.143 23.418)">
		<defs>
			
				<filter id="Adobe_OpacityMaskFilter_00000124157411995889089870000001308619691659901872_" filterUnits="userSpaceOnUse" x="0.5" y="0.2" width="41.8" height="19">
				<feColorMatrix  type="matrix" values="1 0 0 0 0  0 1 0 0 0  0 0 1 0 0  0 0 0 1 0"/>
			</filter>
		</defs>
		
			<mask maskUnits="userSpaceOnUse" x="0.5" y="0.2" width="41.8" height="19" id="img_description_01-i_00000181086866224147018760000016105643517983277704_">
			<g style="filter:url(#Adobe_OpacityMaskFilter_00000124157411995889089870000001308619691659901872_);">
				<polygon id="img_description_01-h_00000085244934893401990980000007989528122621073555_" class="st0" points="0.5,0.2 42.3,0.2 
					42.3,19.2 0.5,19.2 				"/>
			</g>
		</mask>
		<path class="st14" d="M37.6,9.1c0,0.7-0.4,0.8-0.9,0.4l-8.3-8.3c-0.5-0.5-1.4-0.9-2.1-0.9h-3.7h-2.4h-3.7c-0.7,0-1.6,0.4-2.1,0.9
			L6.1,9.5C5.6,9.9,5.2,9.8,5.2,9.1V1.5c0-0.7-0.5-1.2-1.2-1.2H1.7C1,0.2,0.5,0.8,0.5,1.5V18c0,0.7,0.5,1.2,1.2,1.2l16.5,0
			c0.7,0,1.2-0.5,1.2-1.2v-2.3c0-0.7-0.5-1.2-1.2-1.2h-7.7c-0.7,0-0.8-0.4-0.4-0.9L20.5,3.3c0.5-0.5,1.2-0.5,1.7,0l10.3,10.3
			c0.5,0.5,0.3,0.9-0.4,0.9h-7.7c-0.7,0-1.2,0.5-1.2,1.2V18c0,0.7,0.5,1.2,1.2,1.2l16.5,0c0.7,0,1.2-0.5,1.2-1.2V1.5
			c0-0.7-0.5-1.2-1.2-1.2h-2.3c-0.7,0-1.2,0.5-1.2,1.2V9.1z"/>
	</g>
</g>
<path class="st15" d="M293.5,240c1.1,0,2,0.9,2,2l0,20h8.5c1.1,0,2,0.9,2,2c0,0.5-0.2,1-0.6,1.4l-23.5,23.5c-0.8,0.8-2,0.8-2.8,0
	l-23.5-23.5c-0.8-0.8-0.8-2,0-2.8c0.4-0.4,0.9-0.6,1.4-0.6h8.5l0-20c0-1.1,0.9-2,2-2H293.5z"/>
<g transform="translate(114 128)">
	<path class="st16" d="M2,0h14c1.1,0,2,0.9,2,2v14c0,1.1-0.9,2-2,2H2c-1.1,0-2-0.9-2-2V2C0,0.9,0.9,0,2,0z"/>
	<text transform="matrix(1 0 0 1 5.5 12.5)" class="st17 st18 st19">1</text>
	<g transform="translate(0 38)">
		<path class="st16" d="M2,0h14c1.1,0,2,0.9,2,2v14c0,1.1-0.9,2-2,2H2c-1.1,0-2-0.9-2-2V2C0,0.9,0.9,0,2,0z"/>
		<text transform="matrix(1 0 0 1 5.5 12.5)" class="st17 st18 st19">2</text>
	</g>
	<text transform="matrix(1 0 0 1 28 16)" class="st1 st2 st3">アンケートに答えてポイントを貯める</text>
	<text transform="matrix(1 0 0 1 28 325)" class="st1 st2 st3">コインチェック残高に反映される</text>
	<text transform="matrix(1 0 0 1 28 54)" class="st1 st2 st3">暗号資産へのポイント交換申し込み</text>
	<g transform="translate(0 309)">
		<path class="st16" d="M2,0h14c1.1,0,2,0.9,2,2v14c0,1.1-0.9,2-2,2H2c-1.1,0-2-0.9-2-2V2C0,0.9,0.9,0,2,0z"/>
		<text transform="matrix(1 0 0 1 5.5 12.5)" class="st17 st18 st19">3</text>
	</g>
</g>
<g>
	<g>
		<path class="st20" d="M157.4,372l-7.9,0c-0.3,0-0.4-0.3-0.2-0.5l20.8-20.8c0.2-0.2,0.5-0.1,0.5,0.2l0,7.9c0,0.6-0.2,1.1-0.6,1.5
			l-11,11C158.5,371.8,157.9,372,157.4,372z"/>
		<path class="st20" d="M187,375.2l7.9,0c0.3,0,0.4,0.3,0.2,0.5l-20.8,20.8c-0.2,0.2-0.5,0.1-0.5-0.2l0-7.9c0-0.6,0.2-1.1,0.6-1.5
			l11-11C185.9,375.4,186.4,375.2,187,375.2z"/>
		<path class="st20" d="M173.8,358.9l0-7.9c0-0.3,0.3-0.4,0.5-0.2l20.8,20.8c0.2,0.2,0.1,0.5-0.2,0.5l-7.9,0c-0.6,0-1.1-0.2-1.5-0.6
			l-11-11C174,360,173.8,359.4,173.8,358.9z"/>
		<path class="st20" d="M170.6,388.4l0,7.9c0,0.3-0.3,0.4-0.5,0.2l-20.8-20.8c-0.2-0.2-0.1-0.5,0.2-0.5l7.9,0c0.6,0,1.1,0.2,1.5,0.6
			l11,11C170.4,387.3,170.6,387.8,170.6,388.4z"/>
		<path class="st20" d="M163.8,372.5l7.3-7.2c0.6-0.6,1.7-0.6,2.3,0l7.3,7.2c0.6,0.6,0.6,1.7,0,2.3l-7.3,7.2c-0.6,0.6-1.7,0.6-2.3,0
			l-7.3-7.2C163.1,374.1,163.1,373.1,163.8,372.5z"/>
	</g>
	<g>
		<path class="st21" d="M208,374.1c0-8.2,6.5-15,14.7-15c4.4,0,8.3,1.9,10.9,4.9l-2.8,2.3c-1.9-2.3-4.9-3.7-8.1-3.7
			c-6.1,0-10.9,5.3-10.9,11.5c0,6.1,4.8,11.3,10.9,11.3c3.2,0,6.2-1.5,8.1-3.7l2.8,2.3c-2.6,3-6.4,4.9-10.9,4.9
			C214.5,389,208,382.3,208,374.1z"/>
		<path class="st21" d="M238.5,378.7c0-6.2,4.7-10.3,10.2-10.3s10.3,4.1,10.3,10.3c0,6.2-4.7,10.3-10.3,10.3
			S238.5,384.9,238.5,378.7z M255.4,378.7c0-4-3-6.8-6.6-6.8c-3.6,0-6.5,2.8-6.5,6.8c0,4.1,3,6.9,6.5,6.9
			C252.3,385.5,255.4,382.7,255.4,378.7z"/>
		<path class="st21" d="M293.6,377.2v11.3h-3.6v-11.1c0-3.3-2-5.4-4.7-5.4c-2.7,0-6,1.6-6,5.9v10.6h-3.6v-19.5h3.6v3
			c1.2-2.4,4.4-3.5,6.5-3.5C290.6,368.4,293.6,371.7,293.6,377.2z"/>
		<path class="st21" d="M298.8,378.7c0-6.2,4.9-10.3,10.5-10.3c3.1,0,5.7,1.2,7.5,3.1l-2.3,2.4c-1.2-1.3-3-2.1-5-2.1
			c-3.9,0-7,2.8-7,6.8c0,4,3.1,6.9,7,6.9c2.1,0,3.8-0.8,5-2l2.3,2.4c-1.7,1.9-4.4,3.1-7.5,3.1C303.7,389,298.8,384.9,298.8,378.7z"
			/>
		<path class="st21" d="M340,377.2v11.3h-3.6v-11.1c0-3.3-2-5.4-4.7-5.4c-2.7,0-6,1.6-6,5.9v10.6h-3.6v-30.2h3.6v13.6
			c1.2-2.4,4.4-3.5,6.5-3.5C336.9,368.4,340,371.7,340,377.2z"/>
		<path class="st21" d="M364.9,380.3h-15.9c0.5,3.5,3.1,5.3,6.4,5.3c2.4,0,4.6-1.1,5.7-3.1l3.1,1.3c-1.7,3.4-5.2,5.2-9,5.2
			c-5.6,0-10.1-4.1-10.1-10.3c0-6.2,4.5-10.2,10.1-10.2c5.6,0,9.7,4,9.7,10.2C364.9,379.2,364.9,379.7,364.9,380.3z M361.3,377.1
			c-0.5-3.3-2.9-5.3-6.1-5.3c-3.3,0-5.7,1.8-6.2,5.3H361.3z"/>
		<path class="st21" d="M370.1,378.7c0-6.2,4.9-10.3,10.5-10.3c3.1,0,5.7,1.2,7.5,3.1l-2.3,2.4c-1.2-1.3-3-2.1-5-2.1
			c-3.9,0-7,2.8-7,6.8c0,4,3.1,6.9,7,6.9c2.1,0,3.8-0.8,5-2l2.3,2.4c-1.7,1.9-4.4,3.1-7.5,3.1C375,389,370.1,384.9,370.1,378.7z"/>
		<path class="st21" d="M410.9,388.5H406l-9-9.5v9.5h-3.6v-30.2h3.6v17.5l6.8-6.9h5.1l-8.4,8.5L410.9,388.5z"/>
		<g>
			<path class="st21" d="M265.1,388.5v-19.5h3.6v19.5H265.1z"/>
		</g>
		<ellipse class="st21" cx="266.9" cy="361.7" rx="2.4" ry="2.4"/>
	</g>
</g>
</svg>
