<?xml version="1.0" encoding="utf-8"?>
<!-- Generator: Adobe Illustrator 23.0.3, SVG Export Plug-In . SVG Version: 6.00 Build 0)  -->
<svg version="1.1" id="レイヤー_1" xmlns="http://www.w3.org/2000/svg" xmlns:xlink="http://www.w3.org/1999/xlink" x="0px"
	 y="0px" viewBox="0 0 192.2 213" style="enable-background:new 0 0 192.2 213;" xml:space="preserve">
<style type="text/css">
	.st0{opacity:0.16;}
	.st1{fill:#009EF1;}
	.st2{fill:#FFFF03;}
</style>
<g id="japan_map" transform="translate(-772.079 -2274.445)">
	<g id="グループ化_2" transform="translate(772.079 2274.445)" class="st0">
		<g id="グループ化_1" transform="translate(0)">
			<path id="パス_1" class="st1" d="M192.2,7.9c0-4.3-3.5-7.9-7.9-7.9h-44.6c-4.3,0-7.9,3.5-7.9,7.9v26.5c0,4.3-2.3,7.9-5.1,7.9
				s-5.1,3.4-5.1,7.5c0.1,4.2,3.6,7.6,7.9,7.5l0,0c4.3,0,7.9-2.1,7.9-4.6s3.5-4.6,7.9-4.6h39c4.3,0,7.9-3.5,7.9-7.9V7.9z"/>
			<path id="パス_2" class="st1" d="M164,70.8c0-4.3-3.5-7.9-7.9-7.9h-23.8c-4.3,0-9.7,3.5-9.7,7.9v30.7c0,4.3-3.5,7.9-7.9,7.9
				H94.9c-4.3,0-7.9,3.5-7.9,7.9v10.1c0,4.3-2.7,7.9-5.9,7.9H31.4c-4.3,0-7.9,3.5-7.9,7.9v17.7c0,4.3,3.5,7.9,7.9,7.9h30.3
				c4.3,0,7.9,3.5,7.9,7.9v1.6c0,4.3,3.5,7.9,7.9,7.9h13.9c4.3,0,7.9-3.5,7.9-7.9v-7.9c0-4.3,3.5-7.9,7.9-7.9H140
				c4.3,0,7.9-3.5,7.9-7.9v-25.2c0-4.3,3.5-7.9,7.9-7.9h0.4c4.3,0,7.9-3.5,7.9-7.9L164,70.8z"/>
			<path id="パス_3" class="st1" d="M62.6,190.8c0,4.3-3.5,7.9-7.9,7.9H44.4c-4.3,0-7.9-3.5-7.9-7.9v-8.7c0-4.3,3.5-7.9,7.9-7.9
				h10.4c4.3,0,7.9,3.5,7.9,7.9L62.6,190.8z"/>
			<path id="パス_4" class="st1" d="M0,205.1c0,4.3,3.5,7.9,7.9,7.9h13.9c4.3,0,7.9-3.5,7.9-7.9v-23c0-4.3-3.5-7.9-7.9-7.9H7.9
				c-4.3,0-7.9,3.5-7.9,7.9V205.1z"/>
		</g>
	</g>
	<g id="シンボル_1_2" transform="translate(190.873 -218.251)">
		<g id="パス_5">
			<path class="st2" d="M753,2514.6c-0.4,0-0.8-0.2-0.9-0.6l-2.8-6.7c-2.1-1.2-3.4-3.5-3.4-6c0-4,3.1-7.1,7.1-7.1s7.1,3.1,7.1,7.1
				c0,2.6-1.3,4.8-3.4,6l-2.8,6.7C753.8,2514.4,753.4,2514.6,753,2514.6L753,2514.6z M753,2500c-0.8,0-1.3,0.5-1.3,1.3
				c0,0.8,0.5,1.3,1.3,1.3s1.3-0.5,1.3-1.3C754.3,2500.5,753.8,2500,753,2500z"/>
			<path class="st1" d="M753,2495.2c3.4,0,6.1,2.7,6.1,6.1c0,2.3-1.2,4.3-3.2,5.3l-2.9,7l-2.9-7c-2-1-3.2-3.1-3.2-5.3
				C746.9,2497.9,749.6,2495.2,753,2495.2 M753,2503.6c1.3,0,2.3-1,2.3-2.3s-1-2.3-2.3-2.3s-2.3,1-2.3,2.3S751.7,2503.6,753,2503.6
				 M753,2493.2c-4.5,0-8.1,3.6-8.1,8.1c0,2.7,1.4,5.3,3.6,6.7l2.6,6.4c0.3,0.7,1,1.2,1.8,1.2s1.5-0.5,1.8-1.2l2.6-6.4
				c2.2-1.4,3.6-3.9,3.6-6.7C761.1,2496.8,757.5,2493.2,753,2493.2L753,2493.2z M753,2501.6c-0.2,0-0.3-0.1-0.3-0.3s0.1-0.3,0.3-0.3
				c0.2,0,0.3,0.1,0.3,0.3S753.2,2501.6,753,2501.6L753,2501.6z"/>
		</g>
	</g>
	<g id="シンボル_1_1" transform="translate(172.049 -141.609)">
		<g id="パス_5-2">
			<path class="st2" d="M753,2514.6c-0.4,0-0.8-0.2-0.9-0.6l-2.8-6.7c-2.1-1.2-3.4-3.5-3.4-6c0-4,3.1-7.1,7.1-7.1s7.1,3.1,7.1,7.1
				c0,2.6-1.3,4.8-3.4,6l-2.8,6.7C753.8,2514.4,753.4,2514.6,753,2514.6L753,2514.6z M753,2500c-0.8,0-1.3,0.5-1.3,1.3
				c0,0.8,0.5,1.3,1.3,1.3s1.3-0.5,1.3-1.3C754.3,2500.5,753.8,2500,753,2500z"/>
			<path class="st1" d="M753,2495.2c3.4,0,6.1,2.7,6.1,6.1c0,2.3-1.2,4.3-3.2,5.3l-2.9,7l-2.9-7c-2-1-3.2-3.1-3.2-5.3
				C746.9,2497.9,749.6,2495.2,753,2495.2 M753,2503.6c1.3,0,2.3-1,2.3-2.3s-1-2.3-2.3-2.3s-2.3,1-2.3,2.3S751.7,2503.6,753,2503.6
				 M753,2493.2c-4.5,0-8.1,3.6-8.1,8.1c0,2.7,1.4,5.3,3.6,6.7l2.6,6.4c0.3,0.7,1,1.2,1.8,1.2s1.5-0.5,1.8-1.2l2.6-6.4
				c2.2-1.4,3.6-3.9,3.6-6.7C761.1,2496.8,757.5,2493.2,753,2493.2L753,2493.2z M753,2501.6c-0.2,0-0.3-0.1-0.3-0.3s0.1-0.3,0.3-0.3
				c0.2,0,0.3,0.1,0.3,0.3S753.2,2501.6,753,2501.6L753,2501.6z"/>
		</g>
	</g>
	<g id="シンボル_1_3" transform="translate(124.987 -127.49)">
		<g id="パス_5-3">
			<path class="st2" d="M753,2514.6c-0.4,0-0.8-0.2-0.9-0.6l-2.8-6.7c-2.1-1.2-3.4-3.5-3.4-6c0-4,3.1-7.1,7.1-7.1s7.1,3.1,7.1,7.1
				c0,2.6-1.3,4.8-3.4,6l-2.8,6.7C753.8,2514.4,753.4,2514.6,753,2514.6z M753,2500c-0.8,0-1.3,0.5-1.3,1.3c0,0.8,0.5,1.3,1.3,1.3
				s1.3-0.5,1.3-1.3C754.3,2500.5,753.8,2500,753,2500z"/>
			<path class="st1" d="M753,2495.2c3.4,0,6.1,2.7,6.1,6.1c0,2.3-1.2,4.3-3.2,5.3l-2.9,7l-2.9-7c-2-1-3.2-3.1-3.2-5.3
				C746.9,2497.9,749.6,2495.2,753,2495.2 M753,2503.6c1.3,0,2.3-1,2.3-2.3s-1-2.3-2.3-2.3s-2.3,1-2.3,2.3S751.7,2503.6,753,2503.6
				 M753,2493.2c-4.5,0-8.1,3.6-8.1,8.1c0,2.7,1.4,5.3,3.6,6.7l2.6,6.4c0.3,0.7,1,1.2,1.8,1.2s1.5-0.5,1.8-1.2l2.6-6.4
				c2.2-1.4,3.6-3.9,3.6-6.7C761.1,2496.8,757.5,2493.2,753,2493.2L753,2493.2z M753,2501.6c-0.2,0-0.3-0.1-0.3-0.3s0.1-0.3,0.3-0.3
				c0.2,0,0.3,0.1,0.3,0.3S753.2,2501.6,753,2501.6L753,2501.6z"/>
		</g>
	</g>
	<g id="シンボル_1_4" transform="translate(155.913 -86.48)">
		<g id="パス_5-4">
			<path class="st2" d="M753,2514.6c-0.4,0-0.8-0.2-0.9-0.6l-2.8-6.7c-2.1-1.2-3.4-3.5-3.4-6c0-4,3.1-7.1,7.1-7.1s7.1,3.1,7.1,7.1
				c0,2.6-1.3,4.8-3.4,6l-2.8,6.7C753.8,2514.4,753.4,2514.6,753,2514.6z M753,2500c-0.8,0-1.3,0.5-1.3,1.3s0.5,1.3,1.3,1.3
				s1.3-0.5,1.3-1.3S753.8,2500,753,2500z"/>
			<path class="st1" d="M753,2495.2c3.4,0,6.1,2.7,6.1,6.1c0,2.3-1.2,4.3-3.2,5.3l-2.9,7l-2.9-7c-2-1-3.2-3.1-3.2-5.3
				C746.9,2497.9,749.6,2495.2,753,2495.2 M753,2503.6c1.3,0,2.3-1,2.3-2.3s-1-2.3-2.3-2.3s-2.3,1-2.3,2.3S751.7,2503.6,753,2503.6
				 M753,2493.2c-4.5,0-8.1,3.6-8.1,8.1c0,2.7,1.4,5.3,3.6,6.7l2.6,6.4c0.3,0.7,1,1.2,1.8,1.2s1.5-0.5,1.8-1.2l2.6-6.4
				c2.2-1.4,3.6-3.9,3.6-6.7C761.1,2496.8,757.5,2493.2,753,2493.2L753,2493.2z M753,2501.6c-0.2,0-0.3-0.1-0.3-0.3s0.1-0.3,0.3-0.3
				c0.2,0,0.3,0.1,0.3,0.3S753.2,2501.6,753,2501.6L753,2501.6z"/>
		</g>
	</g>
	<g id="シンボル_1_5" transform="translate(124.987 -85.135)">
		<g id="パス_5-5">
			<path class="st2" d="M753,2514.6c-0.4,0-0.8-0.2-0.9-0.6l-2.8-6.7c-2.1-1.2-3.4-3.5-3.4-6c0-4,3.1-7.1,7.1-7.1s7.1,3.1,7.1,7.1
				c0,2.6-1.3,4.8-3.4,6l-2.8,6.7C753.8,2514.4,753.4,2514.6,753,2514.6z M753,2500c-0.8,0-1.3,0.5-1.3,1.3c0,0.8,0.5,1.3,1.3,1.3
				s1.3-0.5,1.3-1.3C754.3,2500.5,753.8,2500,753,2500z"/>
			<path class="st1" d="M753,2495.2c3.4,0,6.1,2.7,6.1,6.1c0,2.3-1.2,4.3-3.2,5.3l-2.9,7l-2.9-7c-2-1-3.2-3.1-3.2-5.3
				C746.9,2497.9,749.6,2495.2,753,2495.2 M753,2503.6c1.3,0,2.3-1,2.3-2.3s-1-2.3-2.3-2.3s-2.3,1-2.3,2.3S751.7,2503.6,753,2503.6
				 M753,2493.2c-4.5,0-8.1,3.6-8.1,8.1c0,2.7,1.4,5.3,3.6,6.7l2.6,6.4c0.3,0.7,1,1.2,1.8,1.2s1.5-0.5,1.8-1.2l2.6-6.4
				c2.2-1.4,3.6-3.9,3.6-6.7C761.1,2496.8,757.5,2493.2,753,2493.2L753,2493.2z M753,2501.6c-0.2,0-0.3-0.1-0.3-0.3s0.1-0.3,0.3-0.3
				c0.2,0,0.3,0.1,0.3,0.3S753.2,2501.6,753,2501.6L753,2501.6z"/>
		</g>
	</g>
	<g id="シンボル_1_6" transform="translate(101.457 -89.841)">
		<g id="パス_5-6">
			<path class="st2" d="M753,2514.6c-0.4,0-0.8-0.2-0.9-0.6l-2.8-6.7c-2.1-1.2-3.4-3.5-3.4-6c0-4,3.1-7.1,7.1-7.1s7.1,3.1,7.1,7.1
				c0,2.6-1.3,4.8-3.4,6l-2.8,6.7C753.8,2514.4,753.4,2514.6,753,2514.6L753,2514.6z M753,2500c-0.8,0-1.3,0.5-1.3,1.3
				c0,0.8,0.5,1.3,1.3,1.3c0.8,0,1.3-0.5,1.3-1.3C754.3,2500.5,753.8,2500,753,2500z"/>
			<path class="st1" d="M753,2495.2c3.4,0,6.1,2.7,6.1,6.1c0,2.3-1.2,4.3-3.2,5.3l-2.9,7l-2.9-7c-2-1-3.2-3.1-3.2-5.3
				C746.9,2497.9,749.6,2495.2,753,2495.2 M753,2503.6c1.3,0,2.3-1,2.3-2.3s-1-2.3-2.3-2.3s-2.3,1-2.3,2.3S751.7,2503.6,753,2503.6
				 M753,2493.2c-4.5,0-8.1,3.6-8.1,8.1c0,2.7,1.4,5.3,3.6,6.7l2.6,6.4c0.3,0.7,1,1.2,1.8,1.2s1.5-0.5,1.8-1.2l2.6-6.4
				c2.2-1.4,3.6-3.9,3.6-6.7C761.1,2496.8,757.5,2493.2,753,2493.2L753,2493.2z M753,2501.6c-0.2,0-0.3-0.1-0.3-0.3s0.1-0.3,0.3-0.3
				c0.2,0,0.3,0.1,0.3,0.3S753.2,2501.6,753,2501.6L753,2501.6z"/>
		</g>
	</g>
	<g id="シンボル_1_7" transform="translate(59.102 -103.287)">
		<g id="パス_5-7">
			<path class="st2" d="M753,2514.6c-0.4,0-0.8-0.2-0.9-0.6l-2.8-6.7c-2.1-1.2-3.4-3.5-3.4-6c0-4,3.1-7.1,7.1-7.1s7.1,3.1,7.1,7.1
				c0,2.6-1.3,4.8-3.4,6l-2.8,6.7C753.8,2514.4,753.4,2514.6,753,2514.6L753,2514.6z M753,2500c-0.8,0-1.3,0.5-1.3,1.3
				c0,0.8,0.5,1.3,1.3,1.3c0.8,0,1.3-0.5,1.3-1.3C754.3,2500.5,753.8,2500,753,2500z"/>
			<path class="st1" d="M753,2495.2c3.4,0,6.1,2.7,6.1,6.1c0,2.3-1.2,4.3-3.2,5.3l-2.9,7l-2.9-7c-2-1-3.2-3.1-3.2-5.3
				C746.9,2497.9,749.6,2495.2,753,2495.2 M753,2503.6c1.3,0,2.3-1,2.3-2.3s-1-2.3-2.3-2.3s-2.3,1-2.3,2.3S751.7,2503.6,753,2503.6
				 M753,2493.2c-4.5,0-8.1,3.6-8.1,8.1c0,2.7,1.4,5.3,3.6,6.7l2.6,6.4c0.3,0.7,1,1.2,1.8,1.2s1.5-0.5,1.8-1.2l2.6-6.4
				c2.2-1.4,3.6-3.9,3.6-6.7C761.1,2496.8,757.5,2493.2,753,2493.2L753,2493.2z M753,2501.6c-0.2,0-0.3-0.1-0.3-0.3s0.1-0.3,0.3-0.3
				c0.2,0,0.3,0.1,0.3,0.3S753.2,2501.6,753,2501.6L753,2501.6z"/>
		</g>
	</g>
	<g id="シンボル_1_8" transform="translate(67.842 -65.638)">
		<g id="パス_5-8">
			<path class="st2" d="M753,2514.6c-0.4,0-0.8-0.2-0.9-0.6l-2.8-6.7c-2.1-1.2-3.4-3.5-3.4-6c0-4,3.1-7.1,7.1-7.1
				c4,0,7.1,3.1,7.1,7.1c0,2.6-1.3,4.8-3.4,6l-2.8,6.7C753.8,2514.4,753.4,2514.6,753,2514.6z M753,2500c-0.8,0-1.3,0.5-1.3,1.3
				s0.5,1.3,1.3,1.3c0.8,0,1.3-0.5,1.3-1.3S753.8,2500,753,2500z"/>
			<path class="st1" d="M753,2495.2c3.4,0,6.1,2.7,6.1,6.1c0,2.3-1.2,4.3-3.2,5.3l-2.9,7l-2.9-7c-2-1-3.2-3.1-3.2-5.3
				C746.9,2497.9,749.6,2495.2,753,2495.2 M753,2503.6c1.3,0,2.3-1,2.3-2.3s-1-2.3-2.3-2.3s-2.3,1-2.3,2.3S751.7,2503.6,753,2503.6
				 M753,2493.2c-4.5,0-8.1,3.6-8.1,8.1c0,2.7,1.4,5.3,3.6,6.7l2.6,6.4c0.3,0.7,1,1.2,1.8,1.2s1.5-0.5,1.8-1.2l2.6-6.4
				c2.2-1.4,3.6-3.9,3.6-6.7C761.1,2496.8,757.5,2493.2,753,2493.2L753,2493.2z M753,2501.6c-0.2,0-0.3-0.1-0.3-0.3s0.1-0.3,0.3-0.3
				c0.2,0,0.3,0.1,0.3,0.3S753.2,2501.6,753,2501.6L753,2501.6z"/>
		</g>
	</g>
	<g id="シンボル_1_9" transform="translate(30.865 -51.52)">
		<g id="パス_5-9">
			<path class="st2" d="M753,2514.6c-0.4,0-0.8-0.2-0.9-0.6l-2.8-6.7c-2.1-1.2-3.4-3.5-3.4-6c0-4,3.1-7.1,7.1-7.1s7.1,3.1,7.1,7.1
				c0,2.6-1.3,4.8-3.4,6l-2.8,6.7C753.8,2514.4,753.4,2514.6,753,2514.6z M753,2500c-0.8,0-1.3,0.5-1.3,1.3s0.5,1.3,1.3,1.3
				c0.8,0,1.3-0.5,1.3-1.3S753.8,2500,753,2500z"/>
			<path class="st1" d="M753,2495.2c3.4,0,6.1,2.7,6.1,6.1c0,2.3-1.2,4.3-3.2,5.3l-2.9,7l-2.9-7c-2-1-3.2-3.1-3.2-5.3
				C746.9,2497.9,749.6,2495.2,753,2495.2 M753,2503.6c1.3,0,2.3-1,2.3-2.3s-1-2.3-2.3-2.3s-2.3,1-2.3,2.3S751.7,2503.6,753,2503.6
				 M753,2493.2c-4.5,0-8.1,3.6-8.1,8.1c0,2.7,1.4,5.3,3.6,6.7l2.6,6.4c0.3,0.7,1,1.2,1.8,1.2s1.5-0.5,1.8-1.2l2.6-6.4
				c2.2-1.4,3.6-3.9,3.6-6.7C761.1,2496.8,757.5,2493.2,753,2493.2L753,2493.2z M753,2501.6c-0.2,0-0.3-0.1-0.3-0.3s0.1-0.3,0.3-0.3
				s0.3,0.1,0.3,0.3S753.2,2501.6,753,2501.6L753,2501.6z"/>
		</g>
	</g>
</g>
</svg>
