<svg xmlns="http://www.w3.org/2000/svg" width="660" height="480" viewBox="0 0 660 480">
    <g fill="none" fill-rule="evenodd">
        <path fill="#FFDECD" d="M533.974 458h52.3V23h-52.3v435zm-94.308 0h52.301V141.641h-52.301V458zm-94.307 0h52.3V224.159h-52.3V458zm-94.306 0h52.299V290.174h-52.299V458zm-94.308 0h52.3V323.182h-52.3V458zm-94.307 0h52.301v-99.453H62.438V458zM645 458h-49.727V18.5a4.5 4.5 0 0 0-4.5-4.5h-61.299a4.5 4.5 0 0 0-4.5 4.5V458h-24.007V137.141a4.5 4.5 0 0 0-4.5-4.5h-61.301a4.5 4.5 0 0 0-4.5 4.5V458h-24.007V219.659a4.5 4.5 0 0 0-4.5-4.5h-61.3a4.5 4.5 0 0 0-4.5 4.5V458h-24.007V285.674a4.5 4.5 0 0 0-4.5-4.5h-61.299a4.498 4.498 0 0 0-4.5 4.5V458h-24.008V318.682a4.5 4.5 0 0 0-4.5-4.5h-61.3a4.5 4.5 0 0 0-4.5 4.5V458h-24.007V354.047a4.5 4.5 0 0 0-4.5-4.5h-61.3a4.5 4.5 0 0 0-4.5 4.5V458H15.5a4.5 4.5 0 0 0 0 9H645a4.5 4.5 0 0 0 0-9z"/>
        <path fill="#F7931A" d="M621.611 252.845c-12.89 51.696-65.256 83.157-116.964 70.266-51.687-12.888-83.153-65.251-70.257-116.944 12.884-51.703 65.25-83.168 116.944-70.28 51.705 12.89 83.168 65.258 70.277 116.958"/>
        <path fill="#F14F00" d="M527.836 137.486c-16.484 0-32.713 4.466-47.21 13.177-21.06 12.655-35.93 32.753-41.868 56.592-5.947 23.834-2.253 48.558 10.4 69.618 12.652 21.059 32.744 35.929 56.578 41.872 49.219 12.27 99.24-17.781 111.51-66.99 5.944-23.838 2.247-48.565-10.407-69.625-12.655-21.061-32.753-35.933-56.593-41.876a92.6 92.6 0 0 0-22.41-2.768m.149 193.003c-8.065 0-16.254-.974-24.426-3.012-26.166-6.524-48.226-22.85-62.116-45.97-13.891-23.12-17.947-50.263-11.42-76.43 6.523-26.17 22.848-48.235 45.968-62.13 23.12-13.892 50.265-17.95 76.432-11.426 26.173 6.525 48.237 22.85 62.13 45.974 13.892 23.12 17.95 50.267 11.425 76.438-11.433 45.853-52.727 76.556-97.993 76.556"/>
        <path fill="#FFF" d="M549.633 215.563c-2.985 11.96-21.413 5.883-27.391 4.394l5.272-21.14c5.977 1.49 25.228 4.27 22.119 16.746zm-3.275 34.113c-3.273 13.147-25.412 6.04-32.59 4.257l5.814-23.307c7.178 1.79 30.196 5.337 26.776 19.049zm24.194-33.923c1.92-12.84-7.856-19.743-21.227-24.348l4.337-17.394-10.59-2.638-4.221 16.935c-2.783-.693-5.643-1.348-8.484-1.996l4.253-17.047-10.583-2.64-4.34 17.389a364.04 364.04 0 0 1-6.762-1.59l.012-.054-14.603-3.646-2.816 11.309s7.856 1.8 7.69 1.912c4.288 1.07 5.063 3.908 4.934 6.158l-4.94 19.815a8.71 8.71 0 0 1 1.1.353c-.353-.087-.73-.184-1.118-.278l-6.925 27.759c-.525 1.303-1.855 3.257-4.853 2.515.106.154-7.696-1.921-7.696-1.921l-5.257 12.12 13.779 3.435c2.564.642 5.077 1.314 7.549 1.948l-4.382 17.593 10.578 2.638 4.339-17.406c2.889.785 5.695 1.508 8.439 2.19l-4.325 17.324 10.589 2.639 4.382-17.56c18.057 3.417 31.634 2.039 37.35-14.291 4.605-13.148-.23-20.732-9.73-25.678 6.918-1.595 12.13-6.145 13.52-15.545z"/>
        <path fill="#F14F00" d="M409.674 108.454c-.357 0-.72-.043-1.078-.131a56.782 56.782 0 0 1-19.338-8.913 4.5 4.5 0 1 1 5.246-7.313 47.702 47.702 0 0 0 12.046 6.24c1.005-5.234 1.313-12.256 1.342-15.118.024-2.485 2.042-4.491 4.544-4.456a4.5 4.5 0 0 1 4.456 4.542c-.015 1.528-.222 15.139-3.032 22.293a4.5 4.5 0 0 1-4.186 2.856"/>
        <path fill="#F14F00" d="M339.307 74.962c-6.373 3.56-9.475 8.046-8.578 12.567.772 3.892 4.437 6.938 8.525 7.085 3.524.13 6.647-2.32 7.592-5.952 1.446-5.567-2.586-10.47-7.54-13.7m70.364 32.605a4.502 4.502 0 0 1-4.338-3.315c-2.84-10.388-13.731-21.344-27.746-27.91-9.964-4.668-19.886-6.354-28.278-4.942 6.526 6.363 7.736 13.801 6.248 19.526-2.015 7.747-8.85 12.965-16.626 12.682-8.28-.298-15.441-6.323-17.028-14.327-1.331-6.706 1.389-13.16 7.442-18.319-7.687-1.538-17.07-.658-26.466 2.633-15.803 5.536-28.426 16.586-34.63 30.318a4.5 4.5 0 1 1-8.201-3.705c7.212-15.965 21.739-28.76 39.856-35.107 14.388-5.039 29.088-5.112 39.673-.253 11.796-4.822 26.944-3.628 41.829 3.344 16.302 7.638 29.1 20.861 32.609 33.687a4.502 4.502 0 0 1-4.344 5.688M266.865 326.262c.356 0 .718.043 1.078.131a56.8 56.8 0 0 1 19.338 8.913 4.5 4.5 0 0 1-5.247 7.313 47.702 47.702 0 0 0-12.046-6.24c-1.005 5.234-1.313 12.256-1.342 15.118-.024 2.485-2.04 4.491-4.543 4.456a4.5 4.5 0 0 1-4.457-4.542c.015-1.528.223-15.139 3.032-22.293a4.503 4.503 0 0 1 4.187-2.856"/>
        <path fill="#F14F00" d="M337.232 359.754c6.373-3.56 9.474-8.046 8.577-12.567-.772-3.892-4.436-6.938-8.524-7.085-3.525-.13-6.648 2.32-7.592 5.952-1.447 5.567 2.585 10.47 7.54 13.7m-70.365-32.605a4.503 4.503 0 0 1 4.34 3.315c2.838 10.388 13.73 21.344 27.745 27.91 9.963 4.668 19.885 6.354 28.277 4.942-6.526-6.363-7.736-13.801-6.248-19.526 2.015-7.747 8.85-12.965 16.627-12.682 8.278.298 15.44 6.323 17.027 14.327 1.331 6.706-1.388 13.16-7.44 18.319 7.686 1.538 17.068.658 26.464-2.633 15.804-5.536 28.426-16.586 34.63-30.318a4.5 4.5 0 0 1 8.202 3.705c-7.213 15.965-21.739 28.76-39.857 35.107-14.387 5.039-29.088 5.112-39.673.253-11.796 4.822-26.944 3.628-41.828-3.344-16.302-7.638-29.102-20.861-32.609-33.687a4.5 4.5 0 0 1 4.343-5.688"/>
        <path fill="#FF0" d="M54.5 210c8-27 5-48 5-48s25 13 26 28c-1.5-47.5 12.5-74.5 43-99 11.5 37.5 44 23 59 78 4-16 11-38 11-38 11 16 42 83 31 138-7.168 35.842-42.89 59.939-88.926 59.378C27.5 327 46.5 237 54.5 210"/>
        <path fill="#F14F00" d="M64.545 170.36c.159 8.924-.632 23.712-5.73 40.918-14.284 48.207-.264 74.521 6.427 83.597 13.864 18.804 39.227 28.563 75.387 29.003.508.007 1.02.01 1.525.01 43.006 0 76.236-22.278 82.933-55.77 9.24-46.207-12.154-101.856-25.27-126.156-2.375 7.82-5.672 19.014-7.952 28.13a4.5 4.5 0 0 1-4.317 3.408h-.05a4.502 4.502 0 0 1-4.34-3.316c-7.83-28.712-20.368-37.2-32.493-45.409-8.996-6.09-18.261-12.363-24.195-26.219-27.471 23.866-37.776 50.024-36.472 91.302a4.502 4.502 0 0 1-4.277 4.637 4.508 4.508 0 0 1-4.711-4.196c-.486-7.28-9.314-15.004-16.465-19.939m77.615 162.528c-.548 0-1.091-.004-1.64-.01-39.131-.477-66.896-11.466-82.522-32.663-9.874-13.392-14.703-30.58-14.354-51.089.272-16.067 3.708-30.84 6.542-40.404 7.594-25.633 4.886-45.89 4.858-46.092a4.505 4.505 0 0 1 6.532-4.623c1.74.905 11.93 6.39 19.622 14.522 2.147-36.49 15.705-61.92 44.484-85.037a4.498 4.498 0 0 1 7.12 2.19c4.695 15.31 13.136 21.023 22.909 27.64 10.704 7.247 22.597 15.3 31.305 36.226a946.862 946.862 0 0 1 7.196-23.913 4.5 4.5 0 0 1 7.996-1.184c11.91 17.325 42.836 85.773 31.705 141.431-7.566 37.831-44.338 63.006-91.753 63.006"/>
        <path fill="#F7931A" d="M114.5 300c-17.518-7.883-27-41-14-69 4 13 14 13 14 13s4-41 16-50c9.5 29.5 30 13 39 57 5-10 8-16 8-23 13 13 11 51 1 64-12.51 16.263-44 17-64 8"/>
        <path fill="#F7931A" d="M100.573 237.437c-4.81 13.601-4.893 28.851-.06 41.82 3.378 9.07 8.71 15.627 15.013 18.463 19.434 8.746 49.646 7.505 60.992-7.244 8.57-11.14 10.432-41.137 2.672-55.872-1.239 5.083-3.846 10.297-7.454 17.514a2.5 2.5 0 0 1-4.685-.617c-4.84-23.668-13.034-28.994-20.955-34.144-6-3.901-12.184-7.922-16.598-18.785-7.505 9.896-11.53 35.635-12.51 45.671a2.5 2.5 0 0 1-2.488 2.257c-.41 0-8.684-.121-13.927-9.063m42.174 70.784c-10.273 0-20.715-2.09-29.274-5.941-7.529-3.389-13.796-10.945-17.646-21.277-5.938-15.937-5.038-35.023 2.405-51.056a2.498 2.498 0 1 1 4.657.318c2.304 7.486 6.74 9.985 9.413 10.818C113.46 231.19 117.9 200.325 129 192a2.501 2.501 0 0 1 3.88 1.234c3.896 12.099 9.478 15.728 15.941 19.931 7.577 4.926 16.067 10.446 21.513 30.494C173.296 237.465 175 232.904 175 228a2.5 2.5 0 0 1 4.267-1.768c13.594 13.594 12.298 52.883 1.214 67.292-7.807 10.15-22.586 14.697-37.734 14.697"/>
    </g>
</svg>
