<svg width="88" height="88" viewBox="0 0 88 88" fill="none" xmlns="http://www.w3.org/2000/svg">
<path d="M44 77.5C43.1716 77.5 42.5 78.1716 42.5 79C42.5 79.8284 43.1716 80.5 44 80.5V77.5ZM77.5 44C77.5 62.5015 62.5015 77.5 44 77.5V80.5C64.1584 80.5 80.5 64.1584 80.5 44H77.5ZM10.5 44C10.5 25.4985 25.4985 10.5 44 10.5V7.5C23.8416 7.5 7.5 23.8416 7.5 44H10.5ZM44 10.5C62.5015 10.5 77.5 25.4985 77.5 44H80.5C80.5 23.8416 64.1584 7.5 44 7.5V10.5ZM19.5927 66.9464C13.9531 60.9502 10.5 52.88 10.5 44H7.5C7.5 53.6737 11.2653 62.4713 17.4073 69.0018L19.5927 66.9464Z" fill="#194035"/>
<path d="M11 67.7037L18.2226 67.9808C18.4993 67.9914 18.7319 67.7751 18.7414 67.4984L19 60" stroke="#194035" stroke-width="3" stroke-linecap="round"/>
<circle cx="44" cy="44" r="23" fill="#3CD3A5"/>
<path d="M44 32V45.5C44 46.0523 44.4477 46.5 45 46.5H55" stroke="white" stroke-width="3" stroke-linecap="round"/>
</svg>
