<svg width="284" height="165" viewBox="0 0 284 165" fill="none" xmlns="http://www.w3.org/2000/svg">
<path d="M7.296 9.928C7.2 10.48 7.104 10.732 6.9 11.032C6.516 11.596 5.796 11.92 4.956 11.92C3.276 11.92 2.22 10.552 2.22 8.356C2.22 6.148 3.252 4.816 4.956 4.816C5.7 4.816 6.3 5.068 6.708 5.56C6.948 5.836 7.056 6.064 7.224 6.592L8.892 6.208C8.748 5.752 8.664 5.536 8.52 5.284C8.22 4.756 7.788 4.312 7.248 3.976C6.588 3.58 5.88 3.4 4.944 3.4C3.744 3.4 2.664 3.808 1.944 4.54C1.044 5.44 0.54 6.832 0.54 8.416C0.54 9.952 1.008 11.308 1.848 12.184C2.58 12.94 3.624 13.336 4.932 13.336C6.372 13.336 7.524 12.868 8.208 12.028C8.568 11.56 8.784 11.092 9.012 10.228L7.296 9.928ZM14.1596 13.372C16.2956 13.372 17.6996 11.908 17.6996 9.688C17.6996 7.468 16.3196 6.052 14.1476 6.052C11.9636 6.052 10.5716 7.48 10.5716 9.712C10.5716 11.956 11.9636 13.372 14.1596 13.372ZM14.1476 7.3C15.4196 7.3 16.1516 8.188 16.1516 9.736C16.1516 11.2 15.3836 12.1 14.1356 12.1C12.8876 12.1 12.1196 11.188 12.1196 9.712C12.1196 8.212 12.8876 7.3 14.1476 7.3ZM19.4987 3.592V5.116H21.2627V3.592H19.4987ZM19.4987 6.256C19.5707 6.748 19.5947 7.156 19.5947 7.816V11.584C19.5947 12.184 19.5707 12.604 19.4987 13.144H21.2507C21.1907 12.64 21.1667 12.232 21.1667 11.572V7.828C21.1667 7.096 21.1907 6.7 21.2507 6.256H19.4987ZM25.0845 13.144C25.0125 12.628 24.9885 12.172 24.9885 11.584V9.16C25.5165 7.972 26.2245 7.372 27.0885 7.372C27.5445 7.372 27.9045 7.552 28.0965 7.864C28.2405 8.092 28.3005 8.416 28.3005 8.92V11.584C28.3005 12.196 28.2765 12.604 28.2165 13.144H29.9565C29.8845 12.7 29.8605 12.244 29.8605 11.584V8.704C29.8605 7.9 29.7405 7.42 29.4525 7.024C29.0205 6.436 28.3365 6.136 27.4125 6.136C26.3325 6.136 25.6965 6.472 24.9645 7.408C24.9885 7.108 24.9885 7.072 24.9885 6.892V6.256H23.3565C23.4285 6.748 23.4525 7.156 23.4525 7.816V11.584C23.4525 12.256 23.4285 12.628 23.3565 13.144H25.0845ZM38.2827 8.212C38.1147 7.768 38.0187 7.576 37.8627 7.336C37.2867 6.496 36.3507 6.04 35.1747 6.04C34.1907 6.04 33.3507 6.352 32.7627 6.952C32.1027 7.624 31.7427 8.596 31.7427 9.724C31.7427 11.944 33.1107 13.372 35.2227 13.372C36.3627 13.372 37.2867 12.952 37.8627 12.16C38.0787 11.872 38.1987 11.62 38.3667 11.14L36.8787 10.84C36.8067 11.14 36.7467 11.272 36.6387 11.44C36.3387 11.872 35.8587 12.112 35.2587 12.112C34.0467 12.112 33.3027 11.188 33.3027 9.688C33.3027 8.2 34.0347 7.276 35.2107 7.276C35.7387 7.276 36.1587 7.468 36.4467 7.828C36.6027 8.02 36.6867 8.188 36.8187 8.56L38.2827 8.212ZM40.1427 3.592C40.2027 4.072 40.2267 4.444 40.2267 5.164V11.584C40.2267 12.268 40.2027 12.628 40.1307 13.144H41.8587C41.7867 12.628 41.7627 12.172 41.7627 11.584V9.16C42.3027 7.96 42.9987 7.384 43.8987 7.384C44.2227 7.384 44.5107 7.504 44.7267 7.732C44.9547 7.972 45.0747 8.368 45.0747 8.92V11.584C45.0747 12.196 45.0507 12.604 44.9907 13.144H46.7307C46.6587 12.7 46.6347 12.244 46.6347 11.584V8.56C46.6347 7.012 45.7587 6.136 44.2227 6.136C43.1307 6.136 42.4827 6.472 41.7387 7.408C41.7627 7.108 41.7627 7.048 41.7627 6.892V5.176C41.7627 4.492 41.7867 4.048 41.8467 3.592H40.1427ZM55.2609 10.096C55.2369 9.82 55.2369 9.784 55.2369 9.76C55.2009 8.944 55.1169 8.512 54.8889 7.936C54.4089 6.736 53.3049 6.04 51.9009 6.04C49.8489 6.04 48.5169 7.492 48.5169 9.712C48.5169 11.956 49.8609 13.372 51.9849 13.372C52.9929 13.372 53.8329 13.06 54.4569 12.448C54.7569 12.148 54.9129 11.92 55.1889 11.344L53.7729 10.888C53.6529 11.212 53.5689 11.344 53.4249 11.512C53.0769 11.896 52.5729 12.112 51.9849 12.112C51.3729 12.112 50.8329 11.872 50.4849 11.44C50.2089 11.092 50.1009 10.756 50.0409 10.096H55.2609ZM50.0769 8.908C50.2569 7.9 50.9409 7.276 51.8769 7.276C52.4409 7.276 52.8489 7.432 53.1729 7.756C53.4729 8.056 53.6169 8.38 53.7009 8.908H50.0769ZM63.2976 8.212C63.1296 7.768 63.0336 7.576 62.8776 7.336C62.3016 6.496 61.3656 6.04 60.1896 6.04C59.2056 6.04 58.3656 6.352 57.7776 6.952C57.1176 7.624 56.7576 8.596 56.7576 9.724C56.7576 11.944 58.1256 13.372 60.2376 13.372C61.3776 13.372 62.3016 12.952 62.8776 12.16C63.0936 11.872 63.2136 11.62 63.3816 11.14L61.8936 10.84C61.8216 11.14 61.7616 11.272 61.6536 11.44C61.3536 11.872 60.8736 12.112 60.2736 12.112C59.0616 12.112 58.3176 11.188 58.3176 9.688C58.3176 8.2 59.0496 7.276 60.2256 7.276C60.7536 7.276 61.1736 7.468 61.4616 7.828C61.6176 8.02 61.7016 8.188 61.8336 8.56L63.2976 8.212ZM65.1696 3.592C65.2296 4.048 65.2536 4.444 65.2536 5.164V11.584C65.2536 12.244 65.2296 12.652 65.1696 13.144H66.8616C66.7896 12.676 66.7776 12.388 66.7776 11.608V10.828L67.7616 9.892L69.0576 11.788C69.5616 12.52 69.7056 12.76 69.8496 13.144H71.9856C71.7096 12.868 71.7096 12.868 70.8936 11.752L68.8656 8.98L70.5696 7.36C71.0856 6.868 71.0856 6.868 71.7696 6.256H69.5256C69.3336 6.556 69.1296 6.796 68.5776 7.324L66.7776 9.112V5.164C66.7776 4.468 66.8016 4.048 66.8616 3.592H65.1696ZM73.9817 7.36C74.2337 7.228 74.3297 7.204 74.9417 7.024C76.8737 6.448 78.4217 6.172 79.6697 6.172C80.3297 6.172 80.8337 6.28 81.2177 6.496C81.7937 6.82 82.1297 7.396 82.1297 8.056C82.1297 8.368 82.0817 8.668 81.9977 8.908C81.7577 9.616 81.0497 10.3 80.1857 10.684C79.1657 11.128 78.1577 11.308 76.2377 11.392C76.5857 12.04 76.6937 12.292 76.8497 12.94C79.0457 12.7 79.9817 12.484 81.0737 11.944C82.7777 11.116 83.7377 9.736 83.7377 8.104C83.7377 6.064 82.1897 4.732 79.8137 4.732C78.4217 4.732 77.7737 4.828 75.0377 5.416C74.2337 5.596 74.0417 5.62 73.6337 5.656L73.9817 7.36ZM87.5897 5.08C87.8297 5.044 88.0457 5.032 88.5377 5.008C89.7137 4.96 90.0017 4.948 90.6137 4.9C90.3137 6.004 90.1697 6.46 89.8577 7.408C88.8497 7.444 88.2137 7.6 87.5897 7.984C86.6417 8.572 86.1017 9.508 86.1017 10.612C86.1017 11.92 86.9177 12.892 88.0217 12.892C88.6817 12.892 89.2217 12.52 89.6657 11.752C90.0137 11.152 90.3257 10.384 90.8537 8.8C91.9937 8.992 92.7017 9.22 93.5537 9.628C93.3617 10.24 92.9657 10.888 92.4857 11.404C91.9937 11.92 91.5257 12.232 90.6257 12.664C91.0937 13 91.2137 13.12 91.7177 13.744C92.4017 13.384 93.0017 12.94 93.5297 12.388C94.1417 11.752 94.5017 11.164 94.8377 10.276C95.4497 10.624 96.1457 11.092 96.4937 11.392L97.0337 9.808C96.8537 9.724 96.8057 9.712 96.4817 9.52C96.1097 9.304 95.5817 9.028 95.1977 8.836C95.3177 8.068 95.3777 7.348 95.4137 6.292C95.4257 5.836 95.4377 5.74 95.4857 5.488L93.9737 5.428C94.0097 5.668 94.0217 5.8 94.0217 6.064C94.0217 7.18 93.9977 7.672 93.9017 8.284C92.9897 7.888 92.1857 7.66 91.2497 7.528C91.3577 7.156 92.0897 4.948 92.1497 4.804C92.2337 4.576 92.2937 4.444 92.4017 4.3L91.4537 3.484C91.2977 3.58 91.2137 3.604 90.9737 3.628C90.5297 3.688 89.4617 3.736 88.7417 3.736C88.1057 3.736 87.8057 3.724 87.5297 3.676L87.5897 5.08ZM89.4857 8.668C89.2337 9.448 88.9457 10.192 88.7057 10.672C88.4297 11.212 88.2497 11.428 88.0217 11.428C87.6977 11.428 87.4337 11.032 87.4337 10.54C87.4337 10.12 87.5897 9.712 87.8897 9.388C88.2617 8.98 88.6817 8.788 89.4857 8.668ZM99.1457 6.424C99.2537 6.412 99.3137 6.412 99.3737 6.412C99.4697 6.412 99.6377 6.412 99.8537 6.424C100.058 6.436 100.178 6.436 100.238 6.436H100.934C100.958 6.436 101.006 6.436 101.09 6.424C100.694 8.56 99.7697 11.356 98.9417 12.88L100.454 13.468C101.246 11.344 101.45 10.744 101.798 9.496C102.11 8.404 102.41 7.132 102.542 6.388C102.938 6.376 103.898 6.256 104.51 6.136C104.798 6.088 104.798 6.088 104.894 6.076L104.834 4.696C104.234 4.876 103.67 4.972 102.782 5.056C102.83 4.78 102.842 4.708 102.902 4.372C103.046 3.496 103.046 3.496 103.13 3.22L101.546 3.076C101.558 3.172 101.558 3.244 101.558 3.292C101.558 3.628 101.438 4.552 101.33 5.128C101.054 5.14 100.922 5.14 100.778 5.14C100.082 5.14 99.6017 5.104 99.1697 5.032L99.1457 6.424ZM108.662 6.688C107.906 6.676 107.798 6.676 107.474 6.676C106.178 6.676 105.602 6.736 103.898 7.06L104.006 8.38C105.194 8.116 105.986 8.032 107.174 8.032C107.774 8.032 108.11 8.056 108.686 8.116L108.662 6.688ZM103.934 9.208C103.274 10.108 103.046 10.648 103.046 11.284C103.046 11.884 103.382 12.46 103.898 12.76C104.474 13.084 105.242 13.24 106.31 13.24C107.018 13.24 107.546 13.192 108.542 13.048C108.818 13 108.914 12.988 109.13 12.964L109.022 11.488C108.326 11.74 107.174 11.932 106.298 11.932C105.098 11.932 104.498 11.62 104.498 11.008C104.498 10.588 104.642 10.288 105.122 9.688L103.934 9.208ZM111.662 6.22C112.13 6.124 112.85 6.04 113.654 5.98C116.258 5.788 116.726 5.752 117.698 5.608C116.918 6.004 116.486 6.316 116.03 6.808C115.298 7.612 114.89 8.62 114.89 9.64C114.89 10.888 115.502 11.908 116.606 12.532C117.338 12.94 118.094 13.156 119.414 13.324C119.618 13.348 119.678 13.36 119.822 13.396L120.038 11.764C119.918 11.776 119.81 11.776 119.798 11.776C119.366 11.776 118.598 11.644 118.01 11.464C117.002 11.164 116.414 10.444 116.414 9.508C116.414 8.296 117.314 7.096 118.838 6.304C119.606 5.896 120.494 5.656 121.214 5.656C121.334 5.656 121.334 5.656 121.466 5.668L121.382 4.132C121.166 4.192 120.986 4.204 120.002 4.252C116.678 4.408 114.686 4.516 114.014 4.552C112.25 4.672 112.25 4.672 112.034 4.672C111.974 4.672 111.842 4.672 111.578 4.66L111.662 6.22ZM2.772 30.564V29.688H9.252V30.564H10.752C10.704 30.144 10.68 29.652 10.68 29.04V22.152C10.68 21.588 10.692 21.24 10.74 20.832C10.32 20.88 9.96 20.892 9.396 20.892H2.616C2.052 20.892 1.692 20.88 1.284 20.832C1.32 21.252 1.344 21.624 1.344 22.152V29.04C1.344 29.7 1.32 30.144 1.26 30.564H2.772ZM2.772 22.248H9.252V28.32H2.772V22.248ZM18.756 27.084H16.74C16.152 27.084 15.948 27.072 15.648 27.024V28.248C15.972 28.212 16.116 28.2 16.74 28.2H18.756V29.436H16.092C15.456 29.436 15.24 29.424 14.916 29.388V30.684C15.36 30.636 15.816 30.612 16.32 30.612H22.728C23.244 30.612 23.736 30.636 24.132 30.684V29.376C23.808 29.424 23.496 29.436 22.956 29.436H20.016V28.2H22.332C22.932 28.2 23.136 28.212 23.448 28.26V27.024C23.124 27.072 22.884 27.084 22.332 27.084H20.016V26.028C20.316 26.244 20.568 26.46 20.832 26.748C21.336 26.124 21.552 25.788 21.864 25.152C22.308 25.812 22.68 26.196 23.352 26.748C23.556 26.328 23.772 25.992 24.06 25.668C23.22 25.164 22.8 24.78 22.308 24C22.38 23.748 22.416 23.616 22.476 23.4C22.632 22.8 22.632 22.8 22.704 22.548L21.444 22.404C21.42 22.92 21.324 23.352 21.072 24.024C20.796 24.768 20.52 25.236 20.016 25.812V23.58C20.016 22.896 20.028 22.68 20.076 22.392H18.696C18.744 22.692 18.756 22.92 18.756 23.58V25.488C18.048 24.9 17.784 24.588 17.448 23.964C17.532 23.676 17.628 23.28 17.796 22.572L16.584 22.428C16.536 23.088 16.404 23.652 16.188 24.24C15.948 24.852 15.696 25.248 15.204 25.8C15.264 24.636 15.276 23.808 15.288 22.116H22.788C23.292 22.116 23.76 22.14 24.048 22.176V20.844C23.676 20.892 23.136 20.916 22.62 20.916H19.608V20.592C19.608 20.292 19.62 20.1 19.668 19.884H18.24C18.288 20.1 18.3 20.304 18.3 20.568V20.916H15.36C14.844 20.916 14.424 20.904 13.92 20.856C13.956 21.204 13.968 21.468 13.98 21.984C13.98 22.14 13.98 22.344 13.98 22.608C13.98 26.676 13.704 28.524 12.924 29.784C13.356 30.156 13.656 30.456 13.968 30.876C14.376 30.144 14.592 29.58 14.796 28.692C15 27.876 15.132 26.928 15.18 26.076C15.468 26.28 15.564 26.376 15.936 26.772C16.368 26.256 16.728 25.704 17.004 25.128C17.328 25.656 17.628 26.04 18.108 26.568C18.36 26.1 18.504 25.848 18.756 25.512V27.084ZM36.828 21.924C36.54 21.972 36.276 21.984 35.7 21.984H33.612C33.744 21.516 33.852 21.108 33.924 20.796C34.02 20.388 34.044 20.28 34.092 20.136L32.772 19.872C32.76 20.22 32.64 20.94 32.484 21.504C32.112 22.956 31.608 24.024 30.864 24.96C31.2 25.212 31.464 25.476 31.728 25.824C31.98 25.488 32.064 25.368 32.28 25.032C32.496 26.172 32.724 26.832 33.288 27.852C32.82 28.416 32.28 28.896 31.584 29.352C31.308 29.532 31.152 29.616 30.636 29.868C30.936 30.252 31.044 30.444 31.284 31.068C32.328 30.528 33.24 29.796 34.008 28.92C34.632 29.736 35.448 30.456 36.348 30.984C36.564 30.456 36.768 30.084 37.044 29.712C36.108 29.244 35.412 28.668 34.764 27.84C35.52 26.532 35.892 25.128 35.988 23.136C36.456 23.148 36.588 23.148 36.828 23.184V21.924ZM34.764 23.136C34.704 24.636 34.488 25.656 34.02 26.664C33.504 25.644 33.252 24.792 33.06 23.508C33.12 23.352 33.12 23.352 33.216 23.136H34.764ZM30.996 29.196C30.588 28.932 30.504 28.884 30.024 28.656C30.396 28.128 30.504 27.876 30.744 27.12C31.26 27.12 31.464 27.132 31.716 27.18V25.968C31.488 26.016 31.248 26.028 30.828 26.028H28.932C29.028 25.8 29.076 25.716 29.184 25.416L27.936 25.176C27.792 25.608 27.744 25.752 27.624 26.028H26.724C26.28 26.028 26.04 26.016 25.776 25.968V27.18C26.052 27.132 26.292 27.12 26.724 27.12H27.072C26.784 27.624 26.676 27.78 26.292 28.308C27.144 28.62 27.468 28.752 28.068 29.016C27.408 29.436 26.772 29.676 25.692 29.904C25.956 30.264 26.136 30.588 26.316 31.008C27.72 30.612 28.428 30.264 29.184 29.58C29.688 29.856 29.856 29.964 30.3 30.312L30.996 29.196ZM29.496 27.12C29.376 27.54 29.208 27.852 28.956 28.188C28.596 28.032 28.44 27.972 27.936 27.792C28.152 27.468 28.188 27.408 28.356 27.12H29.496ZM29.448 22.152V20.712C29.448 20.352 29.46 20.148 29.496 19.92H28.188C28.236 20.16 28.248 20.364 28.248 20.736V22.152H26.82C26.364 22.152 26.088 22.14 25.812 22.092V23.244C26.076 23.196 26.376 23.184 26.808 23.184H27.456C27.06 23.76 26.496 24.192 25.536 24.684C25.92 25.068 26.052 25.236 26.316 25.68C27.24 25.044 27.624 24.672 28.272 23.796C28.248 24.012 28.236 24.204 28.236 24.312V24.768C28.236 24.9 28.224 25.032 28.2 25.164H29.484C29.448 25.02 29.436 24.876 29.436 24.72V24.288C29.436 24.192 29.424 24.048 29.4 23.796C29.7 24.252 29.868 24.432 30.468 24.936C30.792 24.372 30.84 24.3 31.164 23.952C30.576 23.628 30.324 23.448 30.108 23.184H30.912C31.284 23.184 31.5 23.196 31.68 23.22V22.116C31.536 22.14 31.272 22.152 30.912 22.152H29.448ZM26.112 20.424C26.484 20.976 26.676 21.348 26.916 22.02L27.972 21.624C27.732 20.988 27.588 20.7 27.132 20.04L26.112 20.424ZM30.528 20.016C30.324 20.604 30.06 21.096 29.676 21.624L30.696 22.08C31.068 21.528 31.152 21.384 31.608 20.46L30.528 20.016ZM46.908 27.9H47.928C48.408 27.9 48.744 27.912 48.984 27.96V26.736C48.768 26.784 48.444 26.796 47.928 26.796H46.908V25.488H47.916C48.336 25.488 48.708 25.512 48.984 25.548V24.336C48.744 24.36 48.384 24.384 47.916 24.384H46.908V23.136H47.976C48.42 23.136 48.864 23.16 49.188 23.208V21.936C48.876 21.984 48.456 22.008 47.976 22.008H47.1C47.412 21.432 47.472 21.312 47.928 20.22L46.584 19.968C46.452 20.592 46.164 21.312 45.804 22.008H44.328C44.604 21.48 44.736 21.192 44.976 20.592C45.096 20.316 45.096 20.316 45.156 20.16L43.764 19.872C43.608 20.844 42.948 22.272 42.228 23.208V22.116C42.012 22.152 41.856 22.164 41.556 22.164H41.148V21.156C41.148 20.592 41.16 20.316 41.22 19.944H39.816C39.876 20.328 39.888 20.592 39.888 21.168V22.164H39.3C38.964 22.164 38.712 22.14 38.412 22.092V23.376C38.748 23.34 39.012 23.328 39.288 23.328H39.888V25.608C39.144 25.812 38.688 25.92 38.316 25.956L38.568 27.288C38.64 27.252 38.64 27.252 38.76 27.216C38.772 27.216 38.808 27.204 38.868 27.18C38.94 27.156 38.988 27.144 39.036 27.132C39.42 27.012 39.42 27.012 39.888 26.868V29.412C39.888 29.688 39.816 29.748 39.516 29.748C39.264 29.748 38.952 29.724 38.436 29.676C38.616 30.18 38.676 30.42 38.712 30.912C39.048 30.924 39.204 30.936 39.384 30.936C39.828 30.936 40.236 30.888 40.524 30.804C40.98 30.66 41.148 30.384 41.148 29.76V26.436C41.664 26.244 41.664 26.244 42.156 26.052L42.132 24.888C42.18 24.972 42.18 24.972 42.24 25.068C42.468 24.828 42.552 24.732 42.708 24.552C42.696 24.72 42.696 24.78 42.696 24.996V29.772C42.696 30.312 42.672 30.684 42.624 31.032H43.944V30.468H47.988C48.54 30.468 48.96 30.492 49.32 30.528V29.256C49.056 29.292 48.66 29.316 48.036 29.316H46.908V27.9ZM43.944 24.384V23.136H45.672V24.384H43.944ZM43.944 25.488H45.672V26.796H43.944V25.488ZM43.944 27.9H45.672V29.316H43.944V27.9ZM41.148 23.328H41.556C41.784 23.328 41.916 23.328 42.108 23.352C41.916 23.58 41.82 23.676 41.52 23.964C41.736 24.24 41.892 24.456 42.12 24.84C41.688 25.02 41.532 25.068 41.148 25.212V23.328ZM59.016 24.36C60.048 23.58 60.636 22.956 61.272 21.972C61.476 21.66 61.476 21.66 61.608 21.468L60.936 20.748C60.684 20.784 60.456 20.796 60.024 20.796H58.644C58.692 20.736 58.728 20.688 58.752 20.664C58.8 20.592 58.836 20.544 58.848 20.532C58.98 20.316 58.98 20.316 59.052 20.22L57.78 19.836C57.732 20.04 57.48 20.46 57.252 20.76C56.676 21.468 55.824 22.128 54.9 22.584C55.224 22.86 55.428 23.112 55.656 23.484C56.556 22.968 57.18 22.476 57.804 21.828H59.964C59.508 22.476 59.196 22.788 58.5 23.328C58.2 23.028 58.08 22.932 57.552 22.524L56.676 23.172C56.784 23.256 56.868 23.316 56.916 23.364C57 23.424 57.048 23.472 57.072 23.496C57.204 23.604 57.228 23.64 57.444 23.88C57.468 23.904 57.492 23.94 57.54 23.976C56.628 24.504 56.184 24.696 54.984 25.032C55.344 25.416 55.512 25.656 55.716 26.1C56.832 25.704 57.648 25.296 58.536 24.696C57.888 25.68 56.424 26.724 54.936 27.276C55.284 27.648 55.5 27.912 55.716 28.26C56.856 27.744 57.696 27.156 58.596 26.304H60.672C60.12 27.096 59.748 27.516 59.136 28.008C58.788 27.696 58.692 27.624 58.08 27.168L57.168 27.84C57.684 28.224 57.756 28.284 58.128 28.68C56.94 29.34 56.124 29.616 54.696 29.796C55.008 30.228 55.176 30.516 55.344 31.008C56.532 30.78 57.264 30.54 58.14 30.096C59.34 29.484 60.456 28.584 61.152 27.648C61.296 27.444 61.788 26.688 61.884 26.52C62.028 26.232 62.028 26.232 62.184 25.956L61.476 25.212C61.224 25.248 60.984 25.26 60.552 25.26H59.496C59.604 25.104 59.712 24.96 59.748 24.9C59.856 24.72 59.856 24.72 59.928 24.624L59.016 24.36ZM52.764 22.992H51.948C51.492 22.992 51.288 22.98 51.024 22.932V24.204C51.312 24.156 51.528 24.144 51.948 24.144H52.596C52.248 25.296 51.492 26.652 50.76 27.432C51.048 27.852 51.24 28.224 51.396 28.716C52.056 27.852 52.488 27.072 52.836 26.04C52.788 26.544 52.764 27.072 52.764 27.42V29.496C52.764 30.192 52.74 30.564 52.692 30.972H54.084C54.036 30.564 54.012 30.168 54.012 29.496V27.024C54.012 26.568 53.988 26.04 53.94 25.692C54.336 26.328 54.432 26.46 54.768 26.856C55.008 26.28 55.128 26.04 55.344 25.704C54.684 25.128 54.516 24.936 54.072 24.144H54.396C54.768 24.144 54.984 24.156 55.224 24.192V22.944C54.996 22.98 54.792 22.992 54.396 22.992H54.012V21.396C54.636 21.204 54.636 21.204 55.452 20.844L54.708 19.788C54.492 19.944 54.3 20.028 53.964 20.16C53.004 20.508 52.2 20.7 51.048 20.82C51.312 21.288 51.444 21.576 51.528 21.936C52.152 21.84 52.332 21.804 52.764 21.708V22.992Z" fill="#194035"/>
<rect x="35" y="142" width="20" height="6" rx="3" fill="#8BE5C9"/>
<rect x="107" y="112" width="20" height="36" rx="5" fill="#8BE5C9"/>
<rect x="71" y="127" width="20" height="21" rx="5" fill="#8BE5C9"/>
<rect x="143" y="92" width="20" height="56" rx="5" fill="#3CD3A5"/>
<rect x="179" y="69.2432" width="20" height="78.7568" rx="5" fill="#3CD3A5"/>
<rect x="215" y="50.811" width="20" height="97.1892" rx="5" fill="#3CD3A5"/>
<rect x="252" y="24" width="20" height="124" rx="5" fill="#0F8D67"/>
<path d="M26.5804 162.084C27.0284 162.084 27.3084 162.098 27.6375 162.126L27.6361 161.202C27.4051 161.237 27.0552 161.258 26.6142 161.258H24.6542C24.7588 160.992 24.8426 160.852 25.0522 160.628C25.2269 160.439 25.5765 160.145 25.8842 159.928C26.7933 159.305 26.8632 159.249 27.0589 159.067C27.4014 158.745 27.5549 158.409 27.5543 157.947C27.5528 156.988 26.796 156.4 25.571 156.4C24.871 156.4 24.3183 156.617 23.9689 157.023C23.7103 157.324 23.5848 157.611 23.4875 158.143L24.4887 158.262C24.5372 157.94 24.586 157.786 24.7048 157.618C24.8794 157.345 25.1872 157.205 25.5932 157.205C26.1882 157.205 26.5596 157.499 26.5603 157.975C26.5608 158.332 26.3652 158.563 25.7218 159.004C25.0225 159.473 24.8128 159.634 24.5681 159.851C24.1137 160.264 23.7994 160.712 23.6111 161.223C23.5205 161.475 23.4719 161.72 23.4304 162.119C23.6754 162.091 23.7874 162.084 24.3334 162.084H26.5804ZM30.521 162.196C31.249 162.196 31.8295 161.916 32.2207 161.37C32.5491 160.915 32.7369 160.159 32.7357 159.298C32.7348 158.724 32.643 158.164 32.4602 157.674C32.3689 157.422 32.2075 157.177 31.9972 156.967C31.6256 156.596 31.1144 156.4 30.5194 156.4C29.7424 156.4 29.1129 156.743 28.7358 157.373C28.4774 157.8 28.3106 158.57 28.3117 159.312C28.3125 159.879 28.4043 160.425 28.5871 160.922C28.6784 161.174 28.8398 161.419 29.0501 161.629C29.4217 162 29.926 162.196 30.521 162.196ZM30.5268 161.384C30.1418 161.384 29.8475 161.237 29.6301 160.929C29.4056 160.607 29.2717 159.998 29.2706 159.263C29.2695 158.5 29.4226 157.926 29.7301 157.562C29.9327 157.317 30.1775 157.205 30.5135 157.205C30.8285 157.205 31.1087 157.31 31.277 157.499C31.5925 157.842 31.7684 158.479 31.7696 159.291C31.7709 160.11 31.5968 160.761 31.2823 161.09C31.1076 161.279 30.8348 161.384 30.5268 161.384ZM36.1552 162.084C36.1128 161.797 36.0984 161.545 36.0978 161.174L36.0926 157.632C36.092 157.212 36.1055 156.89 36.1469 156.477C35.8949 156.505 35.7899 156.512 35.4329 156.512H34.7889C34.4599 156.512 34.3059 156.505 34.0889 156.47L34.0902 157.359C34.3491 157.331 34.5521 157.317 34.8111 157.317H35.1471L35.1528 161.174C35.1534 161.538 35.1398 161.811 35.0982 162.084H36.1552ZM38.428 160.985C38.6316 161.391 38.7648 161.573 39.0031 161.762C39.3535 162.042 39.7667 162.168 40.3547 162.168C41.0197 162.168 41.4745 162.007 41.8449 161.636C42.3063 161.188 42.5849 160.264 42.5833 159.207C42.5825 158.633 42.5117 158.136 42.3782 157.758C42.0829 156.904 41.3471 156.379 40.4511 156.379C39.9681 156.379 39.5483 156.484 39.2266 156.687C38.6531 157.037 38.339 157.618 38.34 158.332C38.3417 159.459 39.0848 160.173 40.2468 160.173C40.7088 160.173 41.0656 160.068 41.3803 159.851C41.5411 159.732 41.618 159.648 41.7507 159.452C41.7169 160.278 41.5567 160.782 41.2072 161.118C41.0114 161.314 40.7526 161.405 40.4166 161.405C40.0596 161.405 39.7864 161.307 39.6112 161.118C39.527 161.027 39.4779 160.936 39.3936 160.733L38.428 160.985ZM40.3856 159.417C39.7066 159.417 39.272 158.976 39.271 158.297C39.27 157.625 39.7383 157.149 40.4103 157.149C41.1033 157.149 41.587 157.618 41.5879 158.276C41.5889 158.927 41.0716 159.417 40.3856 159.417ZM44.4603 160.264H44.1033C43.7883 160.264 43.5643 160.25 43.3402 160.222L43.3414 161.02C43.5724 160.992 43.7963 160.978 44.1043 160.978H46.4563L46.4576 161.839C46.4582 162.21 46.4445 162.399 46.4168 162.602H47.2708C47.2355 162.399 47.2282 162.21 47.2276 161.853L47.2263 160.978H48.8503C49.1513 160.978 49.3964 160.992 49.6134 161.02L49.6122 160.222C49.3953 160.25 49.1713 160.264 48.8493 160.264H47.2253L47.2236 159.13H48.3716C48.6726 159.13 48.8616 159.137 49.0716 159.158L49.0705 158.416C48.8606 158.444 48.6716 158.451 48.3496 158.451H47.2226L47.2212 157.541H48.6492C48.9642 157.541 49.1463 157.548 49.3633 157.576L49.3622 156.813C49.1522 156.841 48.9772 156.848 48.6482 156.848H45.3722C45.4978 156.575 45.5676 156.428 45.5746 156.407C45.6234 156.302 45.6374 156.281 45.6792 156.197L44.846 156.029C44.8252 156.169 44.7764 156.316 44.6788 156.54C44.3928 157.226 44.0295 157.688 43.3164 158.297C43.5547 158.528 43.6318 158.619 43.8353 158.92C44.2827 158.514 44.6251 158.108 44.9882 157.541H46.4512L46.4526 158.451H44.9266C44.7376 158.451 44.5836 158.444 44.4366 158.43C44.4508 158.577 44.4579 158.682 44.4582 158.836L44.4603 160.264ZM45.1953 160.264L45.1936 159.13H46.4536L46.4553 160.264H45.1953ZM53.122 162.084C53.0796 161.797 53.0652 161.545 53.0646 161.174L53.0594 157.632C53.0588 157.212 53.0723 156.89 53.1137 156.477C52.8617 156.505 52.7567 156.512 52.3997 156.512H51.7557C51.4267 156.512 51.2727 156.505 51.0557 156.47L51.057 157.359C51.3159 157.331 51.5189 157.317 51.7779 157.317H52.1139L52.1196 161.174C52.1202 161.538 52.1066 161.811 52.065 162.084H53.122ZM58.4974 162.084C58.9454 162.084 59.2254 162.098 59.5544 162.126L59.5531 161.202C59.3221 161.237 58.9722 161.258 58.5312 161.258H56.5712C56.6758 160.992 56.7596 160.852 56.9692 160.628C57.1439 160.439 57.4935 160.145 57.8012 159.928C58.7103 159.305 58.7802 159.249 58.9759 159.067C59.3184 158.745 59.4719 158.409 59.4712 157.947C59.4698 156.988 58.7129 156.4 57.4879 156.4C56.7879 156.4 56.2353 156.617 55.8859 157.023C55.6273 157.324 55.5017 157.611 55.4045 158.143L56.4057 158.262C56.4542 157.94 56.503 157.786 56.6218 157.618C56.7964 157.345 57.1041 157.205 57.5101 157.205C58.1051 157.205 58.4766 157.499 58.4773 157.975C58.4778 158.332 58.2822 158.563 57.6388 159.004C56.9395 159.473 56.7297 159.634 56.4851 159.851C56.0307 160.264 55.7163 160.712 55.5281 161.223C55.4375 161.475 55.3888 161.72 55.3474 162.119C55.5924 162.091 55.7044 162.084 56.2504 162.084H58.4974ZM65.0043 160.383L65.0061 161.594C65.0063 161.748 64.9573 161.783 64.7473 161.783C64.4603 161.783 64.0753 161.755 63.7182 161.699C63.8376 161.986 63.8799 162.147 63.9224 162.483C64.2794 162.504 64.5104 162.511 64.7344 162.511C65.1964 162.511 65.3924 162.476 65.5462 162.371C65.721 162.259 65.7977 162.056 65.7972 161.706L65.7905 157.17C65.7899 156.757 65.7966 156.568 65.8243 156.379C65.5864 156.407 65.3974 156.414 65.0124 156.414H62.0934C61.7364 156.414 61.5474 156.407 61.2743 156.379C61.3027 156.624 61.3101 156.932 61.3109 157.436C61.3136 159.256 61.2448 160.075 61.0358 160.726C60.8755 161.251 60.68 161.566 60.2886 161.958C60.5619 162.154 60.7371 162.329 60.9406 162.602C61.3389 162.154 61.5763 161.748 61.7645 161.216C61.8481 160.971 61.9038 160.74 61.9663 160.383H65.0043ZM62.0492 159.669C62.0904 159.102 62.1041 158.948 62.1038 158.731H65.0018L65.0032 159.669H62.0492ZM62.1097 158.017L62.1084 157.142H64.9994L65.0007 158.017H62.1097Z" fill="#687F78"/>
<path d="M170.58 162.084C171.028 162.084 171.308 162.098 171.637 162.126L171.636 161.202C171.405 161.237 171.055 161.258 170.614 161.258H168.654C168.759 160.992 168.843 160.852 169.052 160.628C169.227 160.439 169.577 160.145 169.884 159.928C170.793 159.305 170.863 159.249 171.059 159.067C171.401 158.745 171.555 158.409 171.554 157.947C171.553 156.988 170.796 156.4 169.571 156.4C168.871 156.4 168.318 156.617 167.969 157.023C167.71 157.324 167.585 157.611 167.488 158.143L168.489 158.262C168.537 157.94 168.586 157.786 168.705 157.618C168.879 157.345 169.187 157.205 169.593 157.205C170.188 157.205 170.56 157.499 170.56 157.975C170.561 158.332 170.365 158.563 169.722 159.004C169.023 159.473 168.813 159.634 168.568 159.851C168.114 160.264 167.799 160.712 167.611 161.223C167.52 161.475 167.472 161.72 167.43 162.119C167.675 162.091 167.787 162.084 168.333 162.084H170.58ZM174.521 162.196C175.249 162.196 175.83 161.916 176.221 161.37C176.549 160.915 176.737 160.159 176.736 159.298C176.735 158.724 176.643 158.164 176.46 157.674C176.369 157.422 176.208 157.177 175.997 156.967C175.626 156.596 175.114 156.4 174.519 156.4C173.742 156.4 173.113 156.743 172.736 157.373C172.477 157.8 172.311 158.57 172.312 159.312C172.313 159.879 172.404 160.425 172.587 160.922C172.678 161.174 172.84 161.419 173.05 161.629C173.422 162 173.926 162.196 174.521 162.196ZM174.527 161.384C174.142 161.384 173.848 161.237 173.63 160.929C173.406 160.607 173.272 159.998 173.271 159.263C173.269 158.5 173.423 157.926 173.73 157.562C173.933 157.317 174.178 157.205 174.514 157.205C174.829 157.205 175.109 157.31 175.277 157.499C175.592 157.842 175.768 158.479 175.77 159.291C175.771 160.11 175.597 160.761 175.282 161.09C175.108 161.279 174.835 161.384 174.527 161.384ZM180.547 162.084C180.995 162.084 181.275 162.098 181.604 162.126L181.603 161.202C181.372 161.237 181.022 161.258 180.581 161.258H178.621C178.726 160.992 178.809 160.852 179.019 160.628C179.194 160.439 179.543 160.145 179.851 159.928C180.76 159.305 180.83 159.249 181.026 159.067C181.368 158.745 181.522 158.409 181.521 157.947C181.52 156.988 180.763 156.4 179.538 156.4C178.838 156.4 178.285 156.617 177.936 157.023C177.677 157.324 177.552 157.611 177.454 158.143L178.456 158.262C178.504 157.94 178.553 157.786 178.672 157.618C178.846 157.345 179.154 157.205 179.56 157.205C180.155 157.205 180.526 157.499 180.527 157.975C180.528 158.332 180.332 158.563 179.689 159.004C178.989 159.473 178.78 159.634 178.535 159.851C178.08 160.264 177.766 160.712 177.578 161.223C177.487 161.475 177.439 161.72 177.397 162.119C177.642 162.091 177.754 162.084 178.3 162.084H180.547ZM184.488 162.196C185.216 162.196 185.796 161.916 186.188 161.37C186.516 160.915 186.704 160.159 186.702 159.298C186.702 158.724 186.61 158.164 186.427 157.674C186.336 157.422 186.174 157.177 185.964 156.967C185.592 156.596 185.081 156.4 184.486 156.4C183.709 156.4 183.08 156.743 182.703 157.373C182.444 157.8 182.277 158.57 182.278 159.312C182.279 159.879 182.371 160.425 182.554 160.922C182.645 161.174 182.807 161.419 183.017 161.629C183.388 162 183.893 162.196 184.488 162.196ZM184.494 161.384C184.109 161.384 183.814 161.237 183.597 160.929C183.372 160.607 183.238 159.998 183.237 159.263C183.236 158.5 183.389 157.926 183.697 157.562C183.9 157.317 184.144 157.205 184.48 157.205C184.795 157.205 185.076 157.31 185.244 157.499C185.559 157.842 185.735 158.479 185.736 159.291C185.738 160.11 185.564 160.761 185.249 161.09C185.074 161.279 184.802 161.384 184.494 161.384ZM188.46 160.264H188.103C187.788 160.264 187.564 160.25 187.34 160.222L187.341 161.02C187.572 160.992 187.796 160.978 188.104 160.978H190.456L190.458 161.839C190.458 162.21 190.444 162.399 190.417 162.602H191.271C191.235 162.399 191.228 162.21 191.228 161.853L191.226 160.978H192.85C193.151 160.978 193.396 160.992 193.613 161.02L193.612 160.222C193.395 160.25 193.171 160.264 192.849 160.264H191.225L191.224 159.13H192.372C192.673 159.13 192.862 159.137 193.072 159.158L193.071 158.416C192.861 158.444 192.672 158.451 192.35 158.451H191.223L191.221 157.541H192.649C192.964 157.541 193.146 157.548 193.363 157.576L193.362 156.813C193.152 156.841 192.977 156.848 192.648 156.848H189.372C189.498 156.575 189.568 156.428 189.575 156.407C189.623 156.302 189.637 156.281 189.679 156.197L188.846 156.029C188.825 156.169 188.776 156.316 188.679 156.54C188.393 157.226 188.029 157.688 187.316 158.297C187.555 158.528 187.632 158.619 187.835 158.92C188.283 158.514 188.625 158.108 188.988 157.541H190.451L190.453 158.451H188.927C188.738 158.451 188.584 158.444 188.437 158.43C188.451 158.577 188.458 158.682 188.458 158.836L188.46 160.264ZM189.195 160.264L189.194 159.13H190.454L190.455 160.264H189.195ZM197.122 162.084C197.08 161.797 197.065 161.545 197.065 161.174L197.059 157.632C197.059 157.212 197.072 156.89 197.114 156.477C196.862 156.505 196.757 156.512 196.4 156.512H195.756C195.427 156.512 195.273 156.505 195.056 156.47L195.057 157.359C195.316 157.331 195.519 157.317 195.778 157.317H196.114L196.12 161.174C196.12 161.538 196.107 161.811 196.065 162.084H197.122ZM202.497 162.084C202.945 162.084 203.225 162.098 203.554 162.126L203.553 161.202C203.322 161.237 202.972 161.258 202.531 161.258H200.571C200.676 160.992 200.76 160.852 200.969 160.628C201.144 160.439 201.494 160.145 201.801 159.928C202.71 159.305 202.78 159.249 202.976 159.067C203.318 158.745 203.472 158.409 203.471 157.947C203.47 156.988 202.713 156.4 201.488 156.4C200.788 156.4 200.235 156.617 199.886 157.023C199.627 157.324 199.502 157.611 199.405 158.143L200.406 158.262C200.454 157.94 200.503 157.786 200.622 157.618C200.796 157.345 201.104 157.205 201.51 157.205C202.105 157.205 202.477 157.499 202.477 157.975C202.478 158.332 202.282 158.563 201.639 159.004C200.94 159.473 200.73 159.634 200.485 159.851C200.031 160.264 199.716 160.712 199.528 161.223C199.437 161.475 199.389 161.72 199.347 162.119C199.592 162.091 199.704 162.084 200.25 162.084H202.497ZM209.004 160.383L209.006 161.594C209.006 161.748 208.957 161.783 208.747 161.783C208.46 161.783 208.075 161.755 207.718 161.699C207.838 161.986 207.88 162.147 207.922 162.483C208.279 162.504 208.51 162.511 208.734 162.511C209.196 162.511 209.392 162.476 209.546 162.371C209.721 162.259 209.798 162.056 209.797 161.706L209.79 157.17C209.79 156.757 209.797 156.568 209.824 156.379C209.586 156.407 209.397 156.414 209.012 156.414H206.093C205.736 156.414 205.547 156.407 205.274 156.379C205.303 156.624 205.31 156.932 205.311 157.436C205.314 159.256 205.245 160.075 205.036 160.726C204.876 161.251 204.68 161.566 204.289 161.958C204.562 162.154 204.737 162.329 204.941 162.602C205.339 162.154 205.576 161.748 205.764 161.216C205.848 160.971 205.904 160.74 205.966 160.383H209.004ZM206.049 159.669C206.09 159.102 206.104 158.948 206.104 158.731H209.002L209.003 159.669H206.049ZM206.11 158.017L206.108 157.142H208.999L209.001 158.017H206.11Z" fill="#687F78"/>
<path d="M246.072 162.084C246.52 162.084 246.8 162.098 247.129 162.126L247.128 161.202C246.897 161.237 246.547 161.258 246.106 161.258H244.146C244.25 160.992 244.334 160.852 244.544 160.628C244.719 160.439 245.068 160.145 245.376 159.928C246.285 159.305 246.355 159.249 246.551 159.067C246.893 158.745 247.047 158.409 247.046 157.947C247.045 156.988 246.288 156.4 245.063 156.4C244.363 156.4 243.81 156.617 243.461 157.023C243.202 157.324 243.076 157.611 242.979 158.143L243.98 158.262C244.029 157.94 244.078 157.786 244.196 157.618C244.371 157.345 244.679 157.205 245.085 157.205C245.68 157.205 246.051 157.499 246.052 157.975C246.053 158.332 245.857 158.563 245.214 159.004C244.514 159.473 244.304 159.634 244.06 159.851C243.605 160.264 243.291 160.712 243.103 161.223C243.012 161.475 242.964 161.72 242.922 162.119C243.167 162.091 243.279 162.084 243.825 162.084H246.072ZM250.013 162.196C250.741 162.196 251.321 161.916 251.712 161.37C252.041 160.915 252.229 160.159 252.227 159.298C252.227 158.724 252.135 158.164 251.952 157.674C251.861 157.422 251.699 157.177 251.489 156.967C251.117 156.596 250.606 156.4 250.011 156.4C249.234 156.4 248.605 156.743 248.227 157.373C247.969 157.8 247.802 158.57 247.803 159.312C247.804 159.879 247.896 160.425 248.079 160.922C248.17 161.174 248.332 161.419 248.542 161.629C248.913 162 249.418 162.196 250.013 162.196ZM250.018 161.384C249.633 161.384 249.339 161.237 249.122 160.929C248.897 160.607 248.763 159.998 248.762 159.263C248.761 158.5 248.914 157.926 249.222 157.562C249.424 157.317 249.669 157.205 250.005 157.205C250.32 157.205 250.6 157.31 250.769 157.499C251.084 157.842 251.26 158.479 251.261 159.291C251.263 160.11 251.089 160.761 250.774 161.09C250.599 161.279 250.326 161.384 250.018 161.384ZM256.039 162.084C256.487 162.084 256.767 162.098 257.096 162.126L257.095 161.202C256.864 161.237 256.514 161.258 256.073 161.258H254.113C254.217 160.992 254.301 160.852 254.511 160.628C254.685 160.439 255.035 160.145 255.343 159.928C256.252 159.305 256.322 159.249 256.517 159.067C256.86 158.745 257.013 158.409 257.013 157.947C257.011 156.988 256.254 156.4 255.029 156.4C254.329 156.4 253.777 156.617 253.427 157.023C253.169 157.324 253.043 157.611 252.946 158.143L253.947 158.262C253.996 157.94 254.045 157.786 254.163 157.618C254.338 157.345 254.646 157.205 255.052 157.205C255.647 157.205 256.018 157.499 256.019 157.975C256.019 158.332 255.824 158.563 255.18 159.004C254.481 159.473 254.271 159.634 254.027 159.851C253.572 160.264 253.258 160.712 253.07 161.223C252.979 161.475 252.93 161.72 252.889 162.119C253.134 162.091 253.246 162.084 253.792 162.084H256.039ZM260.63 162.084C260.588 161.797 260.573 161.545 260.573 161.174L260.568 157.632C260.567 157.212 260.581 156.89 260.622 156.477C260.37 156.505 260.265 156.512 259.908 156.512H259.264C258.935 156.512 258.781 156.505 258.564 156.47L258.565 157.359C258.824 157.331 259.027 157.317 259.286 157.317H259.622L259.628 161.174C259.628 161.538 259.615 161.811 259.573 162.084H260.63ZM263.952 160.264H263.595C263.28 160.264 263.056 160.25 262.832 160.222L262.833 161.02C263.064 160.992 263.288 160.978 263.596 160.978H265.948L265.949 161.839C265.95 162.21 265.936 162.399 265.908 162.602H266.762C266.727 162.399 266.72 162.21 266.719 161.853L266.718 160.978H268.342C268.643 160.978 268.888 160.992 269.105 161.02L269.104 160.222C268.887 160.25 268.663 160.264 268.341 160.264H266.717L266.715 159.13H267.863C268.164 159.13 268.353 159.137 268.563 159.158L268.562 158.416C268.352 158.444 268.163 158.451 267.841 158.451H266.714L266.713 157.541H268.141C268.456 157.541 268.638 157.548 268.855 157.576L268.854 156.813C268.644 156.841 268.469 156.848 268.14 156.848H264.864C264.99 156.575 265.059 156.428 265.066 156.407C265.115 156.302 265.129 156.281 265.171 156.197L264.338 156.029C264.317 156.169 264.268 156.316 264.17 156.54C263.884 157.226 263.521 157.688 262.808 158.297C263.046 158.528 263.124 158.619 263.327 158.92C263.774 158.514 264.117 158.108 264.48 157.541H265.943L265.944 158.451H264.418C264.229 158.451 264.075 158.444 263.928 158.43C263.942 158.577 263.95 158.682 263.95 158.836L263.952 160.264ZM264.687 160.264L264.685 159.13H265.945L265.947 160.264H264.687ZM274.007 157.653C273.853 157.289 273.747 157.128 273.565 156.939C273.229 156.589 272.731 156.407 272.129 156.407C271.394 156.407 270.835 156.68 270.422 157.24C270.066 157.716 269.85 158.542 269.852 159.403C269.853 160.46 270.149 161.3 270.667 161.748C271.011 162.042 271.529 162.21 272.089 162.21C273.279 162.21 274.118 161.426 274.116 160.32C274.115 159.907 274.031 159.543 273.863 159.27C273.554 158.745 272.951 158.437 272.237 158.437C271.53 158.437 271.118 158.626 270.74 159.137C270.775 158.598 270.851 158.262 271.025 157.898C271.263 157.415 271.626 157.17 272.123 157.17C272.62 157.17 272.88 157.366 273.062 157.877L274.007 157.653ZM272.077 159.2C272.77 159.2 273.184 159.606 273.185 160.299C273.185 160.544 273.13 160.775 273.025 160.936C272.829 161.244 272.473 161.426 272.067 161.426C271.381 161.426 270.883 160.957 270.882 160.32C270.881 159.676 271.391 159.2 272.077 159.2ZM279.513 160.383L279.514 161.594C279.515 161.748 279.466 161.783 279.256 161.783C278.969 161.783 278.584 161.755 278.227 161.699C278.346 161.986 278.388 162.147 278.431 162.483C278.788 162.504 279.019 162.511 279.243 162.511C279.705 162.511 279.901 162.476 280.055 162.371C280.229 162.259 280.306 162.056 280.306 161.706L280.299 157.17C280.298 156.757 280.305 156.568 280.333 156.379C280.095 156.407 279.906 156.414 279.521 156.414H276.602C276.245 156.414 276.056 156.407 275.783 156.379C275.811 156.624 275.818 156.932 275.819 157.436C275.822 159.256 275.753 160.075 275.544 160.726C275.384 161.251 275.188 161.566 274.797 161.958C275.07 162.154 275.245 162.329 275.449 162.602C275.847 162.154 276.085 161.748 276.273 161.216C276.356 160.971 276.412 160.74 276.475 160.383H279.513ZM276.557 159.669C276.599 159.102 276.612 158.948 276.612 158.731H279.51L279.511 159.669H276.557ZM276.618 158.017L276.617 157.142H279.508L279.509 158.017H276.618Z" fill="#687F78"/>
<path d="M101.072 162.084C101.52 162.084 101.8 162.098 102.129 162.126L102.128 161.202C101.897 161.237 101.547 161.258 101.106 161.258H99.1459C99.2505 160.992 99.3343 160.852 99.5439 160.628C99.7186 160.439 100.068 160.145 100.376 159.928C101.285 159.305 101.355 159.249 101.551 159.067C101.893 158.745 102.047 158.409 102.046 157.947C102.045 156.988 101.288 156.4 100.063 156.4C99.3627 156.4 98.81 156.617 98.4606 157.023C98.202 157.324 98.0765 157.611 97.9792 158.143L98.9804 158.262C99.0289 157.94 99.0777 157.786 99.1965 157.618C99.3711 157.345 99.6788 157.205 100.085 157.205C100.68 157.205 101.051 157.499 101.052 157.975C101.053 158.332 100.857 158.563 100.214 159.004C99.5142 159.473 99.3045 159.634 99.0598 159.851C98.6054 160.264 98.2911 160.712 98.1028 161.223C98.0122 161.475 97.9635 161.72 97.9221 162.119C98.1671 162.091 98.2791 162.084 98.8251 162.084H101.072ZM105.013 162.196C105.741 162.196 106.321 161.916 106.712 161.37C107.041 160.915 107.229 160.159 107.227 159.298C107.227 158.724 107.135 158.164 106.952 157.674C106.861 157.422 106.699 157.177 106.489 156.967C106.117 156.596 105.606 156.4 105.011 156.4C104.234 156.4 103.605 156.743 103.227 157.373C102.969 157.8 102.802 158.57 102.803 159.312C102.804 159.879 102.896 160.425 103.079 160.922C103.17 161.174 103.332 161.419 103.542 161.629C103.913 162 104.418 162.196 105.013 162.196ZM105.018 161.384C104.633 161.384 104.339 161.237 104.122 160.929C103.897 160.607 103.763 159.998 103.762 159.263C103.761 158.5 103.914 157.926 104.222 157.562C104.424 157.317 104.669 157.205 105.005 157.205C105.32 157.205 105.6 157.31 105.769 157.499C106.084 157.842 106.26 158.479 106.261 159.291C106.263 160.11 106.089 160.761 105.774 161.09C105.599 161.279 105.326 161.384 105.018 161.384ZM111.039 162.084C111.487 162.084 111.767 162.098 112.096 162.126L112.095 161.202C111.864 161.237 111.514 161.258 111.073 161.258H109.113C109.217 160.992 109.301 160.852 109.511 160.628C109.685 160.439 110.035 160.145 110.343 159.928C111.252 159.305 111.322 159.249 111.517 159.067C111.86 158.745 112.013 158.409 112.013 157.947C112.011 156.988 111.254 156.4 110.029 156.4C109.329 156.4 108.777 156.617 108.427 157.023C108.169 157.324 108.043 157.611 107.946 158.143L108.947 158.262C108.996 157.94 109.045 157.786 109.163 157.618C109.338 157.345 109.646 157.205 110.052 157.205C110.647 157.205 111.018 157.499 111.019 157.975C111.019 158.332 110.824 158.563 110.18 159.004C109.481 159.473 109.271 159.634 109.027 159.851C108.572 160.264 108.258 160.712 108.07 161.223C107.979 161.475 107.93 161.72 107.889 162.119C108.134 162.091 108.246 162.084 108.792 162.084H111.039ZM114.979 162.196C115.707 162.196 116.288 161.916 116.679 161.37C117.008 160.915 117.195 160.159 117.194 159.298C117.193 158.724 117.101 158.164 116.919 157.674C116.827 157.422 116.666 157.177 116.456 156.967C116.084 156.596 115.573 156.4 114.978 156.4C114.201 156.4 113.571 156.743 113.194 157.373C112.936 157.8 112.769 158.57 112.77 159.312C112.771 159.879 112.863 160.425 113.046 160.922C113.137 161.174 113.298 161.419 113.509 161.629C113.88 162 114.384 162.196 114.979 162.196ZM114.985 161.384C114.6 161.384 114.306 161.237 114.089 160.929C113.864 160.607 113.73 159.998 113.729 159.263C113.728 158.5 113.881 157.926 114.189 157.562C114.391 157.317 114.636 157.205 114.972 157.205C115.287 157.205 115.567 157.31 115.735 157.499C116.051 157.842 116.227 158.479 116.228 159.291C116.229 160.11 116.055 160.761 115.741 161.09C115.566 161.279 115.293 161.384 114.985 161.384ZM118.952 160.264H118.595C118.28 160.264 118.056 160.25 117.832 160.222L117.833 161.02C118.064 160.992 118.288 160.978 118.596 160.978H120.948L120.949 161.839C120.95 162.21 120.936 162.399 120.908 162.602H121.762C121.727 162.399 121.72 162.21 121.719 161.853L121.718 160.978H123.342C123.643 160.978 123.888 160.992 124.105 161.02L124.104 160.222C123.887 160.25 123.663 160.264 123.341 160.264H121.717L121.715 159.13H122.863C123.164 159.13 123.353 159.137 123.563 159.158L123.562 158.416C123.352 158.444 123.163 158.451 122.841 158.451H121.714L121.713 157.541H123.141C123.456 157.541 123.638 157.548 123.855 157.576L123.854 156.813C123.644 156.841 123.469 156.848 123.14 156.848H119.864C119.99 156.575 120.059 156.428 120.066 156.407C120.115 156.302 120.129 156.281 120.171 156.197L119.338 156.029C119.317 156.169 119.268 156.316 119.17 156.54C118.884 157.226 118.521 157.688 117.808 158.297C118.046 158.528 118.124 158.619 118.327 158.92C118.774 158.514 119.117 158.108 119.48 157.541H120.943L120.944 158.451H119.418C119.229 158.451 119.075 158.444 118.928 158.43C118.942 158.577 118.95 158.682 118.95 158.836L118.952 160.264ZM119.687 160.264L119.685 159.13H120.945L120.947 160.264H119.687ZM129.007 157.653C128.853 157.289 128.747 157.128 128.565 156.939C128.229 156.589 127.731 156.407 127.129 156.407C126.394 156.407 125.835 156.68 125.422 157.24C125.066 157.716 124.85 158.542 124.852 159.403C124.853 160.46 125.149 161.3 125.667 161.748C126.011 162.042 126.529 162.21 127.089 162.21C128.279 162.21 129.118 161.426 129.116 160.32C129.115 159.907 129.031 159.543 128.863 159.27C128.554 158.745 127.951 158.437 127.237 158.437C126.53 158.437 126.118 158.626 125.74 159.137C125.775 158.598 125.851 158.262 126.025 157.898C126.263 157.415 126.626 157.17 127.123 157.17C127.62 157.17 127.88 157.366 128.062 157.877L129.007 157.653ZM127.077 159.2C127.77 159.2 128.184 159.606 128.185 160.299C128.185 160.544 128.13 160.775 128.025 160.936C127.829 161.244 127.473 161.426 127.067 161.426C126.381 161.426 125.883 160.957 125.882 160.32C125.881 159.676 126.391 159.2 127.077 159.2ZM134.513 160.383L134.514 161.594C134.515 161.748 134.466 161.783 134.256 161.783C133.969 161.783 133.584 161.755 133.227 161.699C133.346 161.986 133.388 162.147 133.431 162.483C133.788 162.504 134.019 162.511 134.243 162.511C134.705 162.511 134.901 162.476 135.055 162.371C135.229 162.259 135.306 162.056 135.306 161.706L135.299 157.17C135.298 156.757 135.305 156.568 135.333 156.379C135.095 156.407 134.906 156.414 134.521 156.414H131.602C131.245 156.414 131.056 156.407 130.783 156.379C130.811 156.624 130.818 156.932 130.819 157.436C130.822 159.256 130.753 160.075 130.544 160.726C130.384 161.251 130.188 161.566 129.797 161.958C130.07 162.154 130.245 162.329 130.449 162.602C130.847 162.154 131.085 161.748 131.273 161.216C131.356 160.971 131.412 160.74 131.475 160.383H134.513ZM131.557 159.669C131.599 159.102 131.612 158.948 131.612 158.731H134.51L134.511 159.669H131.557ZM131.618 158.017L131.617 157.142H134.508L134.509 158.017H131.618Z" fill="#687F78"/>
<rect x="163" width="76" height="42" rx="5" fill="#F1AF2A"/>
<path d="M172.817 30.232C173.045 30.196 173.081 30.196 173.597 30.16C173.837 30.136 174.209 30.112 174.725 30.076V33.748C174.725 34.348 174.701 34.672 174.653 35.032H175.973C175.925 34.672 175.901 34.348 175.901 33.748V29.968C176.117 29.956 176.393 29.92 176.753 29.884C176.801 30.076 176.825 30.172 176.885 30.448L177.893 30.028C177.581 29.104 177.257 28.3 176.945 27.688L176.045 28.048C176.237 28.444 176.285 28.564 176.393 28.864C175.781 28.936 175.733 28.936 175.025 28.972C175.541 28.384 176.381 27.268 177.053 26.272C177.257 25.972 177.329 25.852 177.449 25.72L176.345 25.084C176.177 25.48 175.829 26.056 175.049 27.184C174.881 26.968 174.749 26.824 174.545 26.584C174.845 26.176 175.385 25.3 175.661 24.748C175.793 24.508 175.841 24.424 175.913 24.316L174.773 23.848C174.653 24.28 174.233 25.096 173.777 25.792C173.657 25.648 173.585 25.576 173.417 25.372L172.733 26.368C173.609 27.184 173.729 27.316 174.377 28.144C174.137 28.456 174.089 28.516 173.681 29.02C173.405 29.032 173.285 29.032 173.201 29.032C172.961 29.032 172.865 29.02 172.685 28.996L172.817 30.232ZM182.105 26.92C182.105 29.416 181.961 31.54 181.721 32.704C181.577 33.448 181.445 33.592 180.905 33.592C180.485 33.592 179.945 33.544 179.333 33.436C179.525 33.952 179.609 34.252 179.669 34.78C180.101 34.816 180.473 34.828 180.785 34.828C181.565 34.828 182.045 34.732 182.321 34.516C182.717 34.204 182.933 33.544 183.125 32.164C183.257 31.18 183.389 29.092 183.401 27.724C183.413 26.02 183.413 26.02 183.461 25.636C183.197 25.672 182.981 25.684 182.477 25.684H179.861C180.005 25.312 180.053 25.168 180.209 24.676C180.305 24.34 180.305 24.34 180.365 24.184L179.021 23.944C178.961 24.34 178.817 24.856 178.589 25.456C178.277 26.308 177.773 27.16 177.173 27.844C177.617 28.168 177.893 28.444 178.133 28.816C178.697 28.12 178.901 27.784 179.333 26.92H182.105ZM173.189 30.64C173.117 32.008 172.961 32.836 172.625 33.868L173.693 34.36C174.029 33.316 174.197 32.308 174.281 30.808L173.189 30.64ZM176.357 30.808C176.561 31.756 176.729 32.968 176.813 33.892L177.905 33.628C177.773 32.62 177.581 31.624 177.329 30.568L176.357 30.808ZM181.037 31.324C180.581 30.088 180.269 29.44 179.561 28.312L178.517 28.888C179.141 29.932 179.381 30.472 179.885 31.936L181.037 31.324ZM184.765 31.168C185.053 32.096 185.261 32.512 185.661 32.96C186.573 34 187.853 34.48 189.725 34.48C191.437 34.48 192.781 34.032 193.661 33.184C194.253 32.592 194.621 31.712 194.621 30.848C194.621 29.904 194.381 29.232 193.853 28.64C193.293 28.016 192.701 27.744 191.565 27.568C192.413 27.344 192.765 27.216 193.117 26.944C193.805 26.432 194.221 25.552 194.221 24.592C194.221 22.512 192.493 21.168 189.821 21.168C188.541 21.168 187.501 21.456 186.685 22.048C185.933 22.592 185.565 23.152 185.165 24.336L187.453 24.72C187.645 24.064 187.805 23.792 188.125 23.488C188.509 23.168 189.085 22.992 189.869 22.992C191.229 22.992 191.981 23.616 191.981 24.72C191.981 25.952 191.037 26.688 189.437 26.688C188.749 26.688 188.397 26.672 187.885 26.608V28.592C188.429 28.528 188.893 28.512 189.597 28.512C190.301 28.512 191.053 28.672 191.437 28.896C192.013 29.232 192.333 29.84 192.333 30.576C192.333 31.84 191.325 32.656 189.741 32.656C188.973 32.656 188.333 32.448 187.805 32.032C187.405 31.712 187.261 31.456 187.053 30.72L184.765 31.168ZM205.868 24.064C205.516 23.232 205.276 22.864 204.86 22.432C204.092 21.632 202.956 21.216 201.58 21.216C199.9 21.216 198.62 21.84 197.676 23.12C196.86 24.208 196.364 26.096 196.364 28.064C196.364 30.48 197.036 32.4 198.22 33.424C199.004 34.096 200.188 34.48 201.468 34.48C204.188 34.48 206.108 32.688 206.108 30.16C206.108 29.216 205.916 28.384 205.532 27.76C204.828 26.56 203.452 25.856 201.82 25.856C200.204 25.856 199.26 26.288 198.396 27.456C198.476 26.224 198.652 25.456 199.052 24.624C199.596 23.52 200.428 22.96 201.564 22.96C202.7 22.96 203.292 23.408 203.708 24.576L205.868 24.064ZM201.452 27.6C203.036 27.6 203.98 28.528 203.98 30.112C203.98 30.672 203.852 31.2 203.612 31.568C203.164 32.272 202.348 32.688 201.42 32.688C199.852 32.688 198.716 31.616 198.716 30.16C198.716 28.688 199.884 27.6 201.452 27.6ZM214.943 25.144V24.772C214.943 24.472 214.955 24.232 215.003 23.932H213.539C213.575 24.172 213.599 24.484 213.599 24.784V25.144H212.027C211.379 25.144 211.067 25.132 210.731 25.084V26.392C211.031 26.344 211.259 26.332 211.931 26.332H212.615L211.655 26.668C211.907 27.16 212.171 27.808 212.327 28.348H211.283C210.779 28.348 210.515 28.336 210.287 28.3V29.596C210.563 29.548 210.863 29.536 211.319 29.536H217.199C217.847 29.536 218.099 29.548 218.423 29.596V28.288C218.099 28.324 217.715 28.348 217.199 28.348H216.119C216.491 27.724 216.611 27.484 216.995 26.608L215.975 26.332H216.875C217.535 26.332 217.775 26.344 218.087 26.392V25.084C217.739 25.132 217.379 25.144 216.767 25.144H214.943ZM212.651 28.348L213.563 28.012C213.287 27.172 213.239 27.052 212.903 26.332H215.663C215.363 27.244 215.207 27.616 214.787 28.348H212.651ZM208.523 33.556C208.523 34.192 208.499 34.576 208.451 34.984H209.867C209.819 34.54 209.807 34.168 209.807 33.592V26.956C210.191 26.152 210.491 25.408 210.695 24.748C210.779 24.46 210.815 24.352 210.887 24.16L209.567 23.776C209.507 24.196 209.351 24.748 209.147 25.3C208.643 26.668 207.947 27.82 207.119 28.66C207.383 29.14 207.479 29.38 207.671 30.088C208.055 29.668 208.235 29.428 208.547 28.9C208.523 29.392 208.523 29.656 208.523 30.232V33.556ZM212.435 34.276H216.023V34.9H217.415C217.367 34.564 217.355 34.288 217.355 33.784V31.384C217.355 30.88 217.367 30.652 217.403 30.352C217.151 30.388 216.995 30.4 216.515 30.4H212.063C211.667 30.4 211.403 30.388 211.103 30.352C211.139 30.688 211.151 30.952 211.151 31.348V33.724C211.151 34.24 211.127 34.576 211.091 34.9H212.435V34.276ZM212.435 31.564H216.035V33.1H212.435V31.564ZM222.059 34.288C222.047 34.132 222.047 34.036 222.047 33.964C222.047 33.112 222.455 31.72 223.115 30.328L222.155 29.896C221.687 30.976 221.663 31.06 221.531 31.48C221.543 31.18 221.555 31.084 221.555 30.82C221.567 29.776 221.615 29.068 221.735 28.168C221.927 26.632 222.203 25.288 222.491 24.58L220.907 24.412C220.883 24.736 220.859 24.856 220.727 25.528C220.379 27.304 220.235 28.672 220.235 30.22C220.235 31.432 220.319 32.356 220.547 33.808C220.583 34.084 220.595 34.156 220.607 34.372L222.059 34.288ZM223.715 27.1C224.987 27.232 224.999 27.232 225.875 27.232C226.763 27.232 227.675 27.184 228.443 27.088C229.019 27.016 229.199 26.992 229.295 26.98L229.223 25.528C228.431 25.744 227.291 25.852 225.959 25.852C224.915 25.852 224.279 25.804 223.739 25.66L223.715 27.1ZM224.543 29.08C223.799 29.968 223.439 30.772 223.439 31.552C223.439 31.984 223.571 32.428 223.799 32.728C224.327 33.436 225.287 33.772 226.775 33.772C227.567 33.772 228.299 33.7 229.259 33.544C229.535 33.496 229.583 33.484 229.751 33.472L229.631 31.948C228.875 32.236 227.831 32.404 226.775 32.404C225.527 32.404 224.867 32.044 224.867 31.36C224.867 30.844 225.119 30.328 225.719 29.632L224.543 29.08Z" fill="white"/>
<path d="M186.92 16.12C186.86 15.71 186.84 15.35 186.84 14.82V9.76C186.84 9.16 186.86 8.7 186.92 8.11C186.56 8.15 186.41 8.16 185.9 8.16H184.98C184.51 8.16 184.29 8.15 183.98 8.1V9.37C184.35 9.33 184.64 9.31 185.01 9.31H185.49V14.82C185.49 15.34 185.47 15.73 185.41 16.12H186.92ZM191.67 13.52H191.16C190.71 13.52 190.39 13.5 190.07 13.46V14.6C190.4 14.56 190.72 14.54 191.16 14.54H194.52V15.77C194.52 16.3 194.5 16.57 194.46 16.86H195.68C195.63 16.57 195.62 16.3 195.62 15.79V14.54H197.94C198.37 14.54 198.72 14.56 199.03 14.6V13.46C198.72 13.5 198.4 13.52 197.94 13.52H195.62V11.9H197.26C197.69 11.9 197.96 11.91 198.26 11.94V10.88C197.96 10.92 197.69 10.93 197.23 10.93H195.62V9.63H197.66C198.11 9.63 198.37 9.64 198.68 9.68V8.59C198.38 8.63 198.13 8.64 197.66 8.64H192.98C193.16 8.25 193.26 8.04 193.27 8.01C193.34 7.86 193.36 7.83 193.42 7.71L192.23 7.47C192.2 7.67 192.13 7.88 191.99 8.2C191.58 9.18 191.06 9.84 190.04 10.71C190.38 11.04 190.49 11.17 190.78 11.6C191.42 11.02 191.91 10.44 192.43 9.63H194.52V10.93H192.34C192.07 10.93 191.85 10.92 191.64 10.9C191.66 11.11 191.67 11.26 191.67 11.48V13.52ZM192.72 13.52V11.9H194.52V13.52H192.72ZM205.06 11V8.8C205.06 8.23 205.07 7.95 205.13 7.58H203.84C203.88 7.96 203.9 8.25 203.9 8.81V11H201.67C201.18 11 200.8 10.98 200.49 10.94V12.04C200.8 12 201.18 11.98 201.67 11.98H203.9V13.29H201.24C200.71 13.29 200.32 13.27 200.04 13.23V14.34C200.33 14.3 200.72 14.28 201.24 14.28H203.9V15.56C203.9 16.1 203.87 16.56 203.83 16.82H205.13C205.08 16.41 205.06 16.14 205.06 15.58V14.28H207.89C208.42 14.28 208.79 14.3 209.09 14.34V13.23C208.81 13.27 208.44 13.29 207.9 13.29H205.06V11.98H207.48C207.97 11.98 208.34 12 208.65 12.04V10.94C208.36 10.98 208 11 207.48 11H205.06ZM200.59 8.46C201.27 9.27 201.64 9.81 202.16 10.8L203.14 10.24C202.68 9.38 202.21 8.67 201.61 7.95L200.59 8.46ZM207.23 7.93C206.8 8.86 206.39 9.52 205.76 10.28L206.71 10.81C207.3 10.09 207.56 9.69 208.27 8.43L207.23 7.93ZM210.37 10.33C210.68 10.26 211.14 10.2 212.03 10.13C213.97 9.99 214.59 9.93 215.4 9.81C214.75 10.14 214.39 10.41 214.01 10.82C213.4 11.48 213.06 12.32 213.06 13.17C213.06 14.21 213.57 15.06 214.49 15.58C215.1 15.92 215.73 16.1 216.83 16.24C217.02 16.27 217.04 16.27 217.17 16.3L217.35 14.94C217.25 14.95 217.16 14.95 217.15 14.95C216.79 14.95 216.15 14.84 215.66 14.69C214.82 14.44 214.33 13.84 214.33 13.06C214.33 12.05 215.08 11.05 216.35 10.39C216.99 10.05 217.73 9.85 218.33 9.85C218.43 9.85 218.43 9.85 218.54 9.86L218.47 8.59C218.31 8.63 218.26 8.63 217.44 8.67C214.77 8.8 213.06 8.89 212.33 8.93C210.86 9.03 210.86 9.03 210.68 9.03C210.63 9.03 210.52 9.03 210.3 9.02L210.37 10.33ZM216.49 11.29C216.93 11.77 217.21 12.17 217.54 12.78L218.24 12.41C217.9 11.79 217.63 11.41 217.19 10.94L216.49 11.29ZM219.43 11.76C219.12 11.19 218.84 10.81 218.39 10.35L217.72 10.7C218.11 11.13 218.44 11.6 218.74 12.15L219.43 11.76Z" fill="white"/>
<path d="M248.065 24.6964L238.595 17.6817C237.935 17.1928 237 17.6639 237 18.4852V25.5C237 26.0523 237.448 26.5 238 26.5H247.47C248.434 26.5 248.84 25.2703 248.065 24.6964Z" fill="#F1AF2A"/>
</svg>
