<svg width="129" height="143" viewBox="0 0 129 143" fill="none" xmlns="http://www.w3.org/2000/svg">
<circle cx="82.2538" cy="51.1091" r="44.2538" fill="#3CD3A5"/>
<circle cx="82.1699" cy="51.0046" r="37.5" stroke="white" stroke-width="3"/>
<path d="M63.3832 61.6657H58.1032V59.3257H63.3832V57.0157H58.1032V54.6757H62.4532L56.5132 45.0757H60.7132L65.3632 53.7157L69.8332 45.0757H73.8532L68.0632 54.6757H72.2632V57.0157H66.9832V59.3257H72.2632V61.6657H66.9832V66.3157H63.3832V61.6657Z" fill="white"/>
<path d="M96.5698 58.9132C96.4565 63.0857 94.5213 65.1909 90.7642 65.2286C86.9881 65.1909 85.0623 63.0857 84.9868 58.9132V41.4113C85.0623 37.2765 86.9881 35.1713 90.7642 35.0958C94.5213 35.1713 96.4565 37.2765 96.5698 41.4113V58.9132ZM79.0679 59.2531C79.1056 63.048 80.3234 65.9744 82.7212 68.0323C84.9679 70.0714 87.6489 71.1098 90.7642 71.1476C93.9738 71.1098 96.702 70.0714 98.9487 68.0323C101.233 65.9744 102.413 63.048 102.489 59.2531V41.0431C102.413 37.2293 101.233 34.2934 98.9487 32.2355C96.702 30.1964 93.9738 29.1769 90.7642 29.1769C87.6489 29.1769 84.9679 30.1964 82.7212 32.2355C80.3234 34.2934 79.1056 37.2293 79.0679 41.0431V59.2531Z" fill="white"/>
<path d="M45.2586 14.5271C38.3673 16.8076 35.8091 19.3673 33.5271 26.2586C33.1995 27.2471 31.7989 27.2471 31.4729 26.2586C29.1924 19.3673 26.6327 16.8091 19.7414 14.5271C18.7529 14.1995 18.7529 12.7989 19.7414 12.4729C26.6327 10.1924 29.1924 7.63273 31.4729 0.741427C31.8005 -0.247142 33.2011 -0.247142 33.5271 0.741427C35.8076 7.63273 38.3673 10.1909 45.2586 12.4729C46.2471 12.8005 46.2471 14.2011 45.2586 14.5271Z" fill="#3CD3A5"/>
<path d="M3.07568 101.558H21.3489C21.5319 101.558 21.7068 101.51 21.864 101.417C27.2419 98.2106 39.5132 92.8338 47.4905 95.9361C57.6104 99.8715 80.0989 107.18 81.2233 112.802C82.3477 118.425 80.6611 120.673 76.7256 120.673C73.5772 120.673 57.7978 115.426 50.3016 112.802" stroke="#194035" stroke-width="3" stroke-linecap="round"/>
<path d="M81.7855 117.862C93.2172 115.988 116.643 112.24 118.892 112.24C121.703 112.24 129.574 112.24 126.2 120.673C125.224 123.115 109.147 127.982 102.025 130.231C92.8424 133.042 73.5772 138.889 69.979 139.789C65.4813 140.913 58.7348 141.475 50.3016 138.664C43.613 136.435 29.7406 131.442 23.4765 129.165C23.3669 129.125 23.2557 129.107 23.1392 129.107H3.07568" stroke="#194035" stroke-width="3" stroke-linecap="round"/>
<rect x="1.5" y="96.5048" width="10" height="38" rx="3.5" fill="white" stroke="#194035" stroke-width="3"/>
</svg>
