<svg width="235" height="134" viewBox="0 0 235 134" fill="none" xmlns="http://www.w3.org/2000/svg">
<path fill-rule="evenodd" clip-rule="evenodd" d="M228.094 105.89C224.105 121.83 207.901 131.531 191.9 127.556C175.906 123.582 166.169 107.436 170.16 91.4966C174.147 75.5543 190.351 65.8521 206.347 69.8264C222.347 73.8006 232.082 89.9484 228.094 105.89Z" fill="#F2A900"/>
<path fill-rule="evenodd" clip-rule="evenodd" d="M205.821 94.394C204.897 98.0818 199.194 96.2082 197.345 95.7488L198.976 89.2305C200.826 89.6899 206.783 90.5472 205.821 94.394ZM204.807 104.912C203.794 108.967 196.943 106.775 194.722 106.225L196.521 99.0387C198.743 99.591 205.865 100.684 204.807 104.912ZM212.294 94.4526C212.888 90.4933 209.863 88.3649 205.725 86.945L207.067 81.5815L203.791 80.768L202.484 85.99C201.623 85.7762 200.738 85.5743 199.859 85.3745L201.175 80.118L197.9 79.3043L196.557 84.6658C195.844 84.5041 195.144 84.3442 194.465 84.1758L194.468 84.1591L189.949 83.0349L189.078 86.5219C189.078 86.5219 191.509 87.0769 191.458 87.1113C192.785 87.4414 193.025 88.3164 192.984 89.0102L191.456 95.1202C191.547 95.1434 191.666 95.1769 191.796 95.2289C191.687 95.202 191.571 95.1723 191.45 95.1434L189.307 103.703C189.145 104.104 188.734 104.707 187.806 104.478C187.838 104.526 185.424 103.886 185.424 103.886L183.797 107.623L188.062 108.682C188.855 108.88 189.632 109.087 190.397 109.283L189.041 114.708L192.314 115.521L193.657 110.154C194.551 110.396 195.419 110.619 196.269 110.829L194.93 116.171L198.207 116.985L199.563 111.57C205.15 112.624 209.352 112.199 211.12 107.164C212.546 103.11 211.05 100.771 208.11 99.246C210.251 98.7541 211.863 97.351 212.294 94.4526H212.294Z" fill="white"/>
<path fill-rule="evenodd" clip-rule="evenodd" d="M55.5384 75.6038H63.578L46.86 92.1491C40.8059 98.1366 31.0028 98.1366 24.9487 92.1491L8.23062 75.6038H16.2703L28.9616 88.176C32.794 91.9685 39.0008 91.9685 42.8332 88.176L55.5384 75.6038Z" fill="#23292F"/>
<path fill-rule="evenodd" clip-rule="evenodd" d="M16.1731 121.614H8.13342L24.9487 104.958C31.0028 98.9701 40.8059 98.9701 46.86 104.958L63.6752 121.614H55.6356L42.8471 108.945C39.0147 105.152 32.8079 105.152 28.9755 108.945L16.1731 121.614Z" fill="#23292F"/>
<path fill-rule="evenodd" clip-rule="evenodd" d="M118.007 65.1493V50.1298L99.78 39.5027L118.007 65.1493Z" fill="#8A92B2"/>
<path fill-rule="evenodd" clip-rule="evenodd" d="M118.007 46.7291V27.7023L99.78 35.9604L118.007 46.7291Z" fill="#61688F"/>
<path fill-rule="evenodd" clip-rule="evenodd" d="M118.007 5.63806L99.7799 35.9606L118.007 27.7023V5.63806H118.007Z" fill="#8A92B2"/>
<path fill-rule="evenodd" clip-rule="evenodd" d="M118.007 50.1298V65.1493L136.235 39.5029L118.007 50.1298Z" fill="#61688F"/>
<path fill-rule="evenodd" clip-rule="evenodd" d="M118.007 46.7291V27.7023L136.235 35.9604L118.007 46.7291Z" fill="#454975"/>
<path fill-rule="evenodd" clip-rule="evenodd" d="M118.007 5.63806V27.7023L136.235 35.9606L118.007 5.63806H118.007Z" fill="#61688F"/>
<path d="M128.578 117.253C122.324 119.315 120.003 121.63 117.932 127.861C117.635 128.755 116.364 128.755 116.068 127.861C113.998 121.63 111.675 119.317 105.422 117.253C104.525 116.957 104.525 115.69 105.422 115.396C111.675 113.334 113.998 111.019 116.068 104.787C116.365 103.893 117.636 103.893 117.932 104.787C120.001 111.019 122.324 113.332 128.578 115.396C129.475 115.692 129.475 116.958 128.578 117.253Z" fill="#3CD3A5"/>
<path d="M223.862 25.9235C217.608 27.9857 215.287 30.3003 213.216 36.5318C212.919 37.4257 211.648 37.4257 211.352 36.5318C209.282 30.3003 206.96 27.987 200.706 25.9235C199.809 25.6274 199.809 24.3609 200.706 24.0661C206.96 22.0039 209.282 19.6893 211.352 13.4578C211.649 12.5639 212.92 12.5639 213.216 13.4578C215.285 19.6893 217.608 22.0026 223.862 24.0661C224.759 24.3622 224.759 25.6287 223.862 25.9235Z" fill="#3CD3A5"/>
<path d="M27.8502 25.9235C21.5966 27.9857 19.2751 30.3003 17.2042 36.5318C16.907 37.4257 15.6361 37.4257 15.3402 36.5318C13.2707 30.3003 10.9479 27.987 4.6943 25.9235C3.79721 25.6274 3.79721 24.3609 4.6943 24.0661C10.9479 22.0039 13.2707 19.6893 15.3402 13.4578C15.6374 12.5639 16.9084 12.5639 17.2042 13.4578C19.2737 19.6893 21.5966 22.0026 27.8502 24.0661C28.7472 24.3622 28.7472 25.6287 27.8502 25.9235Z" fill="#3CD3A5"/>
</svg>
