<?xml version="1.0" encoding="UTF-8"?><svg id="_レイヤー_2" xmlns="http://www.w3.org/2000/svg" viewBox="0 0 1260 221.43"><defs><style>.cls-1{fill:#00d9b1;}.cls-2{fill:#00241e;}</style></defs><g id="_レイヤー_1-2"><g><g><path class="cls-1" d="M39.74,103.05H1.48c-1.32,0-1.98-1.59-1.05-2.52L100.76,.44c.93-.93,2.53-.27,2.53,1.05V39.65c0,2.74-1.09,5.38-3.04,7.32l-53.18,53.05c-1.94,1.94-4.58,3.03-7.33,3.03Z"/><path class="cls-1" d="M182.21,118.38h38.26c1.32,0,1.98,1.59,1.05,2.52l-100.33,100.09c-.93,.93-2.53,.27-2.53-1.05v-38.17c0-2.74,1.09-5.38,3.04-7.32l53.18-53.05c1.94-1.94,4.58-3.03,7.33-3.03Z"/><path class="cls-1" d="M118.66,39.65V1.48c0-1.32,1.59-1.98,2.53-1.05l100.33,100.09c.93,.93,.27,2.52-1.05,2.52h-38.26c-2.75,0-5.39-1.09-7.33-3.03l-53.18-53.05c-1.94-1.94-3.04-4.57-3.04-7.31Z"/><path class="cls-1" d="M103.29,181.78v38.17c0,1.32-1.59,1.98-2.53,1.05L.44,120.9c-.93-.93-.27-2.52,1.05-2.52H39.74c2.75,0,5.39,1.09,7.33,3.03l53.18,53.05c1.94,1.94,3.04,4.57,3.04,7.31Z"/><path class="cls-1" d="M70.42,105.15l34.98-34.9c3.08-3.07,8.07-3.07,11.15,0l34.98,34.9c3.08,3.07,3.08,8.05,0,11.12l-34.98,34.9c-3.08,3.07-8.07,3.07-11.15,0l-34.98-34.9c-3.08-3.07-3.08-8.05,0-11.12Z"/></g><g><path class="cls-2" d="M283.6,113.03c0-39.27,31.29-72.1,70.65-72.1,21.4,0,39.97,9.06,52.28,23.56l-13.32,11.28c-9.28-10.88-23.42-17.93-38.96-17.93-29.27,0-52.28,25.38-52.28,55.18s23.01,54.58,52.28,54.58c15.54,0,29.67-7.05,38.96-17.92l13.32,11.28c-12.31,14.5-30.89,23.56-52.28,23.56-39.36,0-70.65-32.22-70.65-71.49Z"/><path class="cls-2" d="M430.2,134.98c0-29.8,22.41-49.34,49.25-49.34s49.46,19.54,49.46,49.34-22.61,49.54-49.46,49.54-49.25-19.73-49.25-49.54Zm81.15,0c0-19.33-14.53-32.83-31.89-32.83s-31.49,13.49-31.49,32.83,14.33,33.03,31.49,33.03,31.89-13.49,31.89-33.03Z"/><path class="cls-2" d="M695.32,127.73v54.37h-17.56v-53.37c0-15.71-9.69-25.78-22.81-25.78s-28.87,7.85-28.87,28.2v50.95h-17.56V88.06h17.56v14.3c5.65-11.48,20.99-16.72,31.29-16.72,23.42,0,38.15,15.71,37.95,42.09Z"/><path class="cls-2" d="M720.29,134.98c0-29.8,23.62-49.34,50.67-49.34,14.74,0,27.65,5.84,35.93,14.9l-11.1,11.48c-5.85-6.04-14.33-9.87-24.22-9.87-18.57,0-33.51,13.49-33.51,32.83s14.94,33.03,33.51,33.03c9.89,0,18.37-3.83,24.22-9.87l11.1,11.48c-8.28,9.26-21.2,14.9-35.93,14.9-27.05,0-50.67-19.73-50.67-49.54Z"/><path class="cls-2" d="M918.66,127.73v54.37h-17.56v-53.37c0-15.71-9.69-25.78-22.81-25.78s-28.87,7.85-28.87,28.2v50.95h-17.56V36.91h17.56V102.36c5.65-11.48,20.99-16.72,31.29-16.72,23.42,0,38.15,15.71,37.95,42.09Z"/><path class="cls-2" d="M1038.5,142.63h-76.71c2.62,16.71,14.74,25.37,30.88,25.37,11.51,0,22-5.24,27.45-14.7l15.14,6.04c-8.08,16.31-25.03,25.17-43.2,25.17-26.85,0-48.45-19.94-48.45-49.74s21.6-49.14,48.45-49.14,46.83,19.33,46.83,49.14c0,2.62-.2,5.24-.4,7.85Zm-17.16-15.1c-2.22-16.11-13.73-25.38-29.27-25.38s-27.25,8.46-30.08,25.38h59.35Z"/><path class="cls-2" d="M1063.86,134.98c0-29.8,23.62-49.34,50.67-49.34,14.74,0,27.65,5.84,35.93,14.9l-11.1,11.48c-5.85-6.04-14.33-9.87-24.22-9.87-18.57,0-33.51,13.49-33.51,32.83s14.94,33.03,33.51,33.03c9.89,0,18.37-3.83,24.22-9.87l11.1,11.48c-8.28,9.26-21.2,14.9-35.93,14.9-27.05,0-50.67-19.73-50.67-49.54Z"/><path class="cls-2" d="M1260,182.11h-23.62l-43.4-45.92v45.92h-17.56V36.91h17.56V121.29l32.7-33.23h24.43l-40.37,40.68,50.26,53.37Z"/><path class="cls-2" d="M558.3,182.11V88.06h17.56v94.05h-17.56Z"/><ellipse class="cls-2" cx="567.08" cy="53.42" rx="11.71" ry="11.68"/></g></g></g></svg>